<?xml version="1.0" encoding="utf-8"?>
<!-- Generator: Adobe Illustrator 15.0.2, SVG Export Plug-In . SVG Version: 6.00 Build 0)  -->
<!DOCTYPE svg PUBLIC "-//W3C//DTD SVG 1.1//EN" "http://www.w3.org/Graphics/SVG/1.1/DTD/svg11.dtd">
<svg version="1.1"
	 id="Layer_1" inkscape:version="0.48.4 r9939" sodipodi:docname="cfr14-control-knobs-ras.svg" xmlns:inkscape="http://www.inkscape.org/namespaces/inkscape" xmlns:sodipodi="http://sodipodi.sourceforge.net/DTD/sodipodi-0.dtd" xmlns:svg="http://www.w3.org/2000/svg" xmlns:rdf="http://www.w3.org/1999/02/22-rdf-syntax-ns#" xmlns:cc="http://creativecommons.org/ns#" xmlns:dc="http://purl.org/dc/elements/1.1/"
	 xmlns="http://www.w3.org/2000/svg" xmlns:xlink="http://www.w3.org/1999/xlink" x="0px" y="0px" width="176.16px"
	 height="294.96px" viewBox="0 0 176.16 294.96" enable-background="new 0 0 176.16 294.96" xml:space="preserve">
<sodipodi:namedview  id="namedview15" inkscape:current-layer="Layer_1" inkscape:window-y="0" inkscape:window-maximized="0" inkscape:pageopacity="0" inkscape:pageshadow="2" inkscape:window-width="1548" inkscape:window-height="952" inkscape:window-x="0" pagecolor="#ffffff" bordercolor="#666666" borderopacity="1" objecttolerance="10" gridtolerance="10" guidetolerance="10" showgrid="false" inkscape:zoom="1.4773889" inkscape:cx="276.98946" inkscape:cy="117.25307">
	</sodipodi:namedview>
<g>
	<path id="path3009" inkscape:connector-curvature="0" d="M10.133,286.676c-0.043-0.044-0.052-1.163-0.019-2.49
		c0.163-6.531,0.221-11.889,0.352-32.697c0.031-4.995,0.094-13.669,0.139-19.275c0.045-5.606,0.08-10.325,0.077-10.485
		c-0.021-1.056,0.022-79.888,0.052-95.493c0.015-7.82-0.02-13.251-0.085-13.53c-0.061-0.256-0.065-0.493-0.011-0.527
		c0.054-0.034,0.137-7.839,0.184-17.344c0.047-9.505,0.105-20.604,0.13-24.664c0.024-4.06,0.044-7.513,0.045-7.674
		C11,61.44,10.901,34.493,10.892,34.258c-0.007-0.161,0.012-2.244,0.042-4.628c0.03-2.384,0.059-4.783,0.063-5.332
		c0.014-1.663-0.121-10.53-0.178-11.688c-0.064-1.296,0.039-1.367,0.832-0.575l0.509,0.509l-0.006,5.642
		c-0.004,3.104-0.022,5.642-0.043,5.642c-0.02,0-0.188-0.079-0.372-0.175c-0.486-0.254-0.667-0.233-0.512,0.058
		c0.069,0.129,0.232,0.235,0.362,0.235c0.161,0,0.293,0.135,0.414,0.425c0.157,0.375,0.17,2.074,0.109,14.382
		c-0.106,21.702-0.169,39.928-0.243,70.315c-0.037,15.402-0.091,29.532-0.12,31.401c-0.029,1.869-0.04,6.904-0.023,11.19
		c0.045,12.288-0.027,97.472-0.086,100.531c-0.028,1.515-0.083,8.975-0.118,16.579c-0.037,7.604-0.098,14.532-0.135,15.395
		l-0.068,1.57l-0.471,0.51C10.372,286.763,10.276,286.82,10.133,286.676L10.133,286.676z M12.166,285.431
		c0-0.082,0.175-0.322,0.389-0.531l0.389-0.375l3.448-0.055c6.245-0.097,45.294-0.172,96.91-0.184l50.813-0.011l0.526,0.309
		c0.642,0.375,0.847,0.595,0.661,0.707c-0.109,0.068-24.802,0.094-57.469,0.06c-15.604-0.016-82.802,0.117-89.312,0.176
		C13.333,285.576,12.166,285.557,12.166,285.431L12.166,285.431z M165.855,284.207l-0.52-0.439l-0.05-1.288
		c-0.167-4.249-0.186-116.435-0.021-129.179c0.04-3.189,0.075-6.063,0.076-6.385c0.002-0.322-0.003-11.816-0.013-25.542
		c-0.027-40.962,0.104-96.774,0.254-108.84l0.032-2.568l0.46-0.391c0.765-0.649,0.814-0.568,0.787,1.312
		c-0.034,2.505-0.146,17.62-0.217,29.641c-0.037,5.929-0.089,25.147-0.117,42.708c-0.027,17.561-0.077,44.029-0.108,58.818
		c-0.057,25.878-0.081,53.019-0.08,84.128c0,8.087,0.001,14.783,0.003,14.879c0,0.097,0.028,6.291,0.06,13.768
		c0.032,7.475,0.092,15.859,0.131,18.631c0.162,11.151,0.162,11.188-0.005,11.188C166.443,284.646,166.14,284.45,165.855,284.207
		L165.855,284.207z M30.615,267.078c-0.542-0.22-0.567-0.35-0.582-3.064c-0.013-2.302,0.007-2.588,0.189-2.753
		c0.272-0.247,0.591-0.169,0.78,0.188c0.115,0.215,0.141,0.693,0.101,1.833c-0.056,1.6,0.033,2.348,0.298,2.517
		c0.219,0.14,1.776,0.126,2.156-0.018c0.627-0.24,1.018,0.558,0.519,1.057c-0.207,0.206-0.391,0.233-1.572,0.233
		c-0.736,0-1.408,0.023-1.494,0.053C30.924,267.151,30.747,267.13,30.615,267.078L30.615,267.078z M41.118,267.028
		c-0.094-0.112-0.123-0.95-0.098-2.799c0.037-2.68,0.092-3.017,0.5-3.017c0.326,0,0.879,0.637,1.406,1.616
		c0.789,1.462,0.976,1.707,1.178,1.54c0.122-0.104,0.164-0.46,0.164-1.403c0-0.695,0.032-1.348,0.071-1.448
		c0.099-0.259,0.599-0.233,0.744,0.036c0.068,0.129,0.115,0.998,0.108,2.023c-0.007,0.988,0.024,2.034,0.068,2.322
		c0.099,0.646-0.077,1.172-0.39,1.172c-0.344,0-1.335-1.165-1.947-2.288c-0.393-0.721-0.603-0.993-0.743-0.968
		c-0.17,0.034-0.197,0.24-0.208,1.571c-0.007,0.845-0.05,1.596-0.095,1.669C41.764,267.241,41.28,267.222,41.118,267.028
		L41.118,267.028z M39.372,266.948c-0.148-0.06-0.322-0.259-0.387-0.444c-0.171-0.492-0.542-0.641-1.459-0.581
		c-0.667,0.041-0.82,0.094-1,0.336c-0.478,0.644-0.569,0.707-0.813,0.577c-0.158-0.085-0.231-0.245-0.231-0.508
		c0-0.465,0.291-1.536,0.54-1.982c0.249-0.45,0.866-2.302,0.866-2.6c0-0.346,0.323-0.767,0.588-0.767
		c0.483,0,1.005,0.652,1.333,1.669c0.172,0.53,0.357,1.073,0.412,1.201c0.3,0.714,0.408,1.002,0.608,1.627
		c0.274,0.852,0.276,1.039,0.018,1.339C39.686,267.002,39.583,267.03,39.372,266.948L39.372,266.948z M38.235,264.652
		c0.206-0.206,0.184-0.414-0.116-1.13c-0.099-0.238-0.258-0.433-0.352-0.433c-0.399,0-0.71,1.293-0.388,1.615
		C37.58,264.906,38.009,264.878,38.235,264.652L38.235,264.652z M47.631,266.95c-0.403-0.252-0.467-0.691-0.442-3.041
		c0.03-2.85-0.058-2.71,1.623-2.589c1.436,0.104,1.678,0.24,2.194,1.243c0.315,0.613,0.351,0.794,0.349,1.748
		c-0.002,1.027-0.015,1.083-0.429,1.689c-0.235,0.343-0.539,0.704-0.676,0.798C49.931,267.025,47.935,267.14,47.631,266.95z
		 M49.671,265.631c0.478-0.32,0.675-0.83,0.685-1.765c0.006-0.627-0.027-0.718-0.392-1.084c-0.349-0.348-0.473-0.398-0.992-0.398
		c-0.49,0-0.617,0.046-0.73,0.256c-0.171,0.321-0.08,2.637,0.118,3.005C48.543,265.989,49.15,265.982,49.671,265.631z
		 M103.28,266.904c-0.576-0.174-1.142-0.712-1.476-1.405c-0.369-0.76-0.387-2.263-0.037-2.938c0.454-0.876,1.186-1.368,2.064-1.391
		c0.558-0.014,0.681,0.031,1.153,0.418c0.647,0.531,1.066,1.518,1.058,2.492c-0.007,0.698-0.536,1.978-0.999,2.419
		C104.573,266.945,103.914,267.096,103.28,266.904L103.28,266.904z M104.485,265.519c0.481-0.515,0.659-0.965,0.509-1.295
		c-0.063-0.142-0.094-0.421-0.063-0.622c0.062-0.421-0.216-1.035-0.547-1.213c-0.333-0.179-0.973-0.146-1.271,0.062
		c-0.802,0.563-0.803,2.302-0.001,3.105C103.582,266.025,104.024,266.014,104.485,265.519z M114.396,266.936
		c-0.498-0.272-0.528-0.417-0.528-2.508c0-2.264,0.048-2.156-0.943-2.158c-0.513-0.003-0.696-0.174-0.696-0.652
		c0-0.524,0.368-0.84,0.768-0.657c0.179,0.08,0.928,0.136,1.872,0.136c1.555,0,1.574,0.004,1.768,0.297
		c0.156,0.238,0.168,0.355,0.064,0.586c-0.116,0.257-0.205,0.288-0.771,0.288c-1.013,0-1.027,0.035-0.995,2.332
		c0.018,1.337-0.018,2.03-0.115,2.211c-0.075,0.145-0.15,0.261-0.164,0.259S114.523,267.007,114.396,266.936L114.396,266.936z
		 M53.69,266.865c-0.339-0.227-0.39-0.634-0.362-2.94c0.024-2.087,0.051-2.38,0.237-2.563c0.535-0.526,0.762,0.682,0.796,4.217
		C54.373,266.788,54.166,267.183,53.69,266.865z M56.239,266.691c-0.164-0.311-0.163-0.272-0.084-2.934
		c0.063-2.135,0.147-2.545,0.524-2.545c0.25,0,0.838,0.565,1.073,1.03c0.088,0.176,0.368,0.675,0.623,1.112
		c0.836,1.433,1.009,1.368,1.009-0.378c0-1.082,0.033-1.309,0.228-1.545c0.185-0.227,0.266-0.254,0.439-0.148
		c0.193,0.119,0.214,0.353,0.228,2.579c0.016,2.353-0.043,2.858-0.333,2.858c-0.259,0-1.446-1.339-1.914-2.158
		c-0.333-0.586-0.542-0.831-0.703-0.831c-0.215,0-0.229,0.09-0.231,1.465c-0.001,0.806-0.044,1.531-0.095,1.611
		C56.85,267.05,56.39,266.98,56.239,266.691L56.239,266.691z M62.951,266.849c-0.783-0.339-1.477-1.797-1.489-3.133
		c-0.005-0.703,0.042-0.92,0.307-1.373c0.173-0.295,0.506-0.682,0.739-0.86c0.359-0.272,0.54-0.325,1.159-0.325
		c0.629-0.002,0.806,0.048,1.242,0.353c0.43,0.302,0.514,0.428,0.546,0.81c0.06,0.73-0.329,0.852-0.958,0.3
		c-0.929-0.816-2.068-0.116-2.068,1.271c0,0.925,0.693,2.009,1.284,2.009c0.756,0,1.14-0.816,0.502-1.068
		c-0.567-0.225-0.673-0.3-0.713-0.503c-0.109-0.559,0.711-0.811,1.621-0.502c0.403,0.138,0.412,0.153,0.49,0.952
		c0.095,0.954-0.035,1.293-0.677,1.783c-0.323,0.247-0.577,0.329-1.083,0.356C63.49,266.936,63.084,266.906,62.951,266.849z
		 M72.758,266.87c-0.437-0.082-1.245-0.975-1.463-1.613c-0.261-0.767-0.249-1.979,0.027-2.586c0.447-0.984,1.551-1.6,2.5-1.394
		c0.377,0.082,1.003,0.45,1.172,0.693c0.148,0.21,0.098,0.732-0.085,0.883c-0.142,0.117-0.234,0.104-0.484-0.073
		c-0.848-0.602-1.193-0.62-1.875-0.098c-0.513,0.391-0.618,0.94-0.338,1.767c0.285,0.837,0.753,1.334,1.254,1.332
		c0.449-0.003,0.607-0.088,0.72-0.395c0.097-0.261-0.104-0.542-0.388-0.542c-0.304,0-0.624-0.409-0.536-0.687
		c0.094-0.295,0.785-0.533,1.267-0.437c0.618,0.123,0.788,0.372,0.788,1.15c0,0.794-0.099,1.034-0.682,1.644
		c-0.384,0.4-0.472,0.437-1.012,0.423C73.3,266.931,72.91,266.899,72.758,266.87L72.758,266.87z M77.37,266.87
		c-0.48-0.027-0.75-0.103-0.85-0.235c-0.176-0.231-0.208-5.143-0.035-5.415c0.087-0.14,0.415-0.165,1.726-0.142
		c0.89,0.019,1.711,0.058,1.823,0.092c0.113,0.031,0.239,0.192,0.279,0.354c0.129,0.515-0.127,0.627-1.51,0.659
		c-1.401,0.032-1.617,0.128-1.397,0.61c0.164,0.359,0.564,0.529,1.256,0.529c0.398,0,0.544,0.053,0.643,0.237
		c0.177,0.332,0.035,0.696-0.274,0.71c-1.167,0.046-1.42,0.094-1.564,0.291c-0.234,0.32-0.188,0.613,0.147,0.949
		c0.293,0.293,0.339,0.302,1.41,0.245c1.004-0.053,1.119-0.037,1.228,0.167c0.204,0.38,0.082,0.838-0.246,0.927
		C79.704,266.934,78.608,266.941,77.37,266.87L77.37,266.87z M91.055,266.861c-0.077-0.049-0.301-0.483-0.496-0.964
		c-0.393-0.975-0.789-1.402-1.295-1.402c-0.545,0-0.705,0.263-0.705,1.16c0,0.656-0.042,0.833-0.244,1.016
		c-0.243,0.22-0.25,0.22-0.47-0.053c-0.204-0.252-0.222-0.485-0.216-2.723c0.006-1.945,0.041-2.481,0.174-2.611
		c0.164-0.165,0.313-0.167,2.234-0.019c1.635,0.124,2.278,1.261,1.451,2.565c-0.193,0.305-0.352,0.646-0.351,0.755
		c0,0.11,0.188,0.567,0.418,1.014c0.346,0.676,0.397,0.863,0.294,1.085C91.727,266.957,91.339,267.042,91.055,266.861
		L91.055,266.861z M90.58,263.226c0.268-0.229,0.258-0.389-0.033-0.702c-0.416-0.446-1.988-0.3-1.988,0.183
		c0,0.444,0.33,0.719,0.911,0.756C90.119,263.503,90.303,263.464,90.58,263.226z M98.365,266.835
		c-0.542-0.163-1.063-0.634-1.417-1.286c-0.263-0.483-0.345-0.811-0.392-1.57c-0.066-1.066,0.097-1.549,0.791-2.341
		c0.331-0.375,0.499-0.446,1.476-0.618c0.828-0.144,1.992,0.916,1.703,1.552c-0.211,0.463-0.444,0.463-0.955,0.002
		c-0.535-0.484-0.729-0.515-1.252-0.194c-0.547,0.334-0.778,0.852-0.68,1.516c0.292,1.952,1.616,2.421,2.169,0.769
		c0.238-0.709,0.48-0.886,0.813-0.586c0.325,0.295,0.305,0.771-0.068,1.602C100.12,266.645,99.255,267.101,98.365,266.835
		L98.365,266.835z M121.437,266.691c-0.091-0.146-0.309-0.606-0.481-1.025c-0.398-0.963-0.692-1.29-1.168-1.29
		c-0.534,0-0.647,0.186-0.647,1.053c0,0.847-0.205,1.29-0.596,1.29c-0.366,0-0.48-0.517-0.467-2.107
		c0.03-3.714,0.028-3.702,1.057-3.567c0.358,0.046,1.009,0.094,1.447,0.107c1.035,0.032,1.353,0.256,1.618,1.155
		c0.109,0.366,0.153,0.691,0.101,0.726c-0.055,0.032-0.238,0.354-0.41,0.717l-0.311,0.656l0.362,0.787
		c0.424,0.918,0.447,1.209,0.127,1.526C121.769,267.021,121.646,267.014,121.437,266.691L121.437,266.691z M121.015,263.206
		c0.277-0.276,0.294-0.46,0.07-0.767c-0.229-0.311-1.6-0.332-1.904-0.027c-0.326,0.325-0.089,0.831,0.43,0.925
		C120.412,263.478,120.775,263.444,121.015,263.206L121.015,263.206z M106.985,266.515c-0.18-0.529-0.116-5,0.073-5.229
		c0.446-0.535,1.11-0.019,1.874,1.463c0.571,1.107,0.858,1.464,1.071,1.334c0.102-0.064,0.126-0.32,0.082-0.865
		c-0.084-1.066,0.129-2.051,0.452-2.099c0.134-0.019,0.299,0.034,0.365,0.119c0.071,0.087,0.147,1.24,0.185,2.753
		c0.064,2.703,0.028,2.952-0.416,2.783c-0.309-0.119-1.343-1.433-1.849-2.351c-0.397-0.719-0.533-0.874-0.738-0.845
		c-0.243,0.034-0.251,0.08-0.209,1.354c0.035,1.076,0.007,1.371-0.149,1.611C107.471,266.936,107.123,266.922,106.985,266.515
		L106.985,266.515z M124.741,266.742c-0.32-0.128-1.252-1.412-1.407-1.938c-0.446-1.515,0.146-3.032,1.414-3.609
		c1.833-0.837,3.57,1.291,2.932,3.589c-0.208,0.75-0.876,1.695-1.334,1.886C125.929,266.842,125.089,266.881,124.741,266.742
		L124.741,266.742z M126.13,265.366c0.216-0.164,0.392-0.397,0.392-0.52c0-0.121,0.053-0.254,0.117-0.295
		c0.206-0.126,0.132-1.21-0.117-1.698c-0.414-0.813-1.123-0.944-1.813-0.338c-0.375,0.327-0.414,0.421-0.414,0.975
		c0,1.165,0.561,2.176,1.206,2.176C125.632,265.666,125.914,265.531,126.13,265.366L126.13,265.366z M147.871,266.655
		c-0.144-0.101-0.531-0.721-0.86-1.378c-0.331-0.657-0.659-1.307-0.73-1.446c-0.154-0.302-0.511-0.542-0.666-0.446
		c-0.062,0.037-0.112,0.714-0.112,1.504c0,1.467-0.068,1.714-0.477,1.714c-0.453,0-0.493-0.257-0.472-2.954
		c0.021-2.635,0.065-2.904,0.473-2.904c0.341,0,1.284,1.169,1.872,2.325c0.233,0.455,0.674,0.917,0.775,0.814
		c0.034-0.032,0.081-0.687,0.105-1.453c0.022-0.767,0.079-1.485,0.126-1.598c0.096-0.237,0.559-0.274,0.735-0.06
		c0.171,0.209,0.178,5.705,0.007,5.911C148.478,266.888,148.19,266.876,147.871,266.655L147.871,266.655z M151.42,266.599
		c-0.99-0.519-1.625-1.709-1.597-3.002c0.018-0.891,0.317-1.627,0.89-2.181c0.55-0.533,1.538-0.7,2.227-0.373
		c0.847,0.402,1.469,1.554,1.469,2.726C154.408,265.755,152.768,267.309,151.42,266.599L151.42,266.599z M152.411,265.435
		c0.116-0.064,0.378-0.364,0.578-0.666c0.287-0.435,0.363-0.676,0.363-1.145c0-0.656-0.287-1.252-0.713-1.48
		c-0.273-0.146-1.116-0.085-1.295,0.094c-0.059,0.058-0.188,0.433-0.291,0.833c-0.169,0.671-0.169,0.765,0.013,1.222
		c0.253,0.632,0.725,1.257,0.953,1.257C152.117,265.549,152.293,265.497,152.411,265.435L152.411,265.435z M85.637,266.524
		c-0.132-0.092-0.241-0.238-0.241-0.322c0-0.085-0.078-0.22-0.174-0.3c-0.193-0.16-1.849-0.38-2.11-0.279
		c-0.091,0.036-0.274,0.247-0.407,0.472c-0.179,0.304-0.307,0.397-0.503,0.37c-0.468-0.066-0.394-0.636,0.385-2.94
		c0.8-2.366,0.945-2.661,1.302-2.661c0.309,0,1.155,0.833,1.155,1.137c0,0.229,0.354,1.303,0.821,2.495
		c0.34,0.867,0.548,1.656,0.496,1.893C86.304,266.655,85.927,266.728,85.637,266.524L85.637,266.524z M84.579,264.258
		c0.043-0.162,0.006-0.544-0.083-0.849c-0.264-0.904-0.8-0.657-1.014,0.469c-0.114,0.603-0.001,0.751,0.543,0.71
		C84.421,264.558,84.514,264.503,84.579,264.258L84.579,264.258z M128.798,266.476c-0.211-0.233-0.224-0.424-0.195-2.824
		c0.016-1.485,0.08-2.668,0.149-2.799c0.07-0.13,0.244-0.227,0.413-0.227c0.438,0,0.588,0.433,0.442,1.264
		c-0.151,0.869-0.034,3.242,0.171,3.448c0.172,0.17,1.025,0.19,2.035,0.046c0.663-0.094,0.665-0.094,0.855,0.272
		c0.16,0.312,0.167,0.417,0.036,0.687l-0.152,0.318l-1.766,0.032C129.114,266.725,129.012,266.714,128.798,266.476L128.798,266.476z
		 M142.633,266.456c-0.103-0.145-0.4-0.604-0.662-1.025c-0.588-0.94-0.901-1.288-1.161-1.288c-0.344,0-0.473,0.304-0.521,1.229
		c-0.05,0.998-0.188,1.261-0.63,1.208c-0.397-0.045-0.441-0.329-0.368-2.377c0.033-0.902,0.03-1.957-0.007-2.344
		c-0.066-0.719,0.076-1.348,0.305-1.348c0.225,0,0.641,0.469,0.657,0.736c0.008,0.143,0.004,0.474-0.009,0.735
		c-0.026,0.505,0.188,0.814,0.477,0.688c0.088-0.039,0.497-0.462,0.907-0.94c0.411-0.479,0.872-0.902,1.025-0.94
		c0.45-0.114,0.63,0.022,0.63,0.48c0,0.339-0.116,0.54-0.644,1.114c-0.355,0.387-0.645,0.771-0.645,0.855
		c0,0.163,0.818,1.582,1.19,2.06c0.213,0.277,0.282,0.875,0.145,1.236C143.22,266.803,142.849,266.762,142.633,266.456
		L142.633,266.456z M155.61,266.165c-0.186-0.281-0.202-0.579-0.165-2.78c0.023-1.354,0.085-2.547,0.139-2.647
		c0.08-0.151,0.287-0.174,1.188-0.135c1.245,0.052,1.795,0.171,2.183,0.471c0.367,0.286,0.509,0.979,0.347,1.689
		c-0.119,0.51-0.105,0.61,0.14,1.046c0.525,0.934,0.243,1.924-0.663,2.324c-0.328,0.145-0.901,0.238-1.727,0.284l-1.235,0.066
		L155.61,266.165L155.61,266.165z M158.242,264.888c0.194-0.269,0.189-0.565-0.014-0.735c-0.257-0.212-1.325-0.302-1.533-0.13
		c-0.216,0.179-0.236,0.835-0.032,1.043C156.876,265.289,158.048,265.153,158.242,264.888L158.242,264.888z M158.166,262.606
		c0.102-0.16,0.039-0.554-0.109-0.709c-0.041-0.041-0.389-0.094-0.773-0.117c-0.676-0.038-0.702-0.029-0.818,0.296
		c-0.104,0.29-0.082,0.363,0.171,0.567c0.229,0.186,0.408,0.224,0.858,0.181C157.809,262.793,158.111,262.696,158.166,262.606
		L158.166,262.606z M131.516,248.661c-0.206-0.121-0.214-0.254-0.136-2.318c0.069-1.801,0.056-2.213-0.077-2.323
		c-0.09-0.075-0.557-0.15-1.037-0.171l-0.874-0.034l-0.007-6.562c-0.007-4.494-0.051-6.637-0.138-6.797
		c-0.07-0.13-0.457-0.356-0.869-0.51c-0.408-0.151-0.962-0.428-1.231-0.616c-0.268-0.185-0.549-0.338-0.623-0.338
		c-0.075,0-0.675-0.54-1.332-1.202c-0.979-0.981-1.285-1.38-1.695-2.196c-0.907-1.811-1.063-2.639-1.203-6.385
		c-0.068-1.804-0.092-3.623-0.053-4.042c0.038-0.419,0.073-3.22,0.078-6.227c0.009-5.68-0.022-6.08-0.463-5.896
		c-0.297,0.126-2.233,0.238-4.005,0.234l-1.581-0.005l-0.039-0.339c-0.021-0.192,0.03-0.385,0.118-0.441
		c0.146-0.094,2.354-0.056,4.69,0.082c0.952,0.058,1.027,0.044,1.153-0.189c0.096-0.182,0.127-2.088,0.109-6.889
		c-0.037-10.179-0.019-12.177,0.114-12.429c0.068-0.123,0.122-0.359,0.122-0.523c0-0.282,0.32-0.964,1.041-2.218
		c0.369-0.641,1.455-1.819,2.222-2.41c1.167-0.896,2.966-1.647,4.39-1.83c0.7-0.09,0.808-0.313,0.782-1.637
		c-0.009-0.518-0.002-1.439,0.017-2.053c0.02-0.611,0.018-2.572-0.003-4.354c-0.021-1.783-0.002-3.299,0.041-3.369
		c0.128-0.206,0.632-0.145,0.76,0.094c0.075,0.14,0.078,0.355,0.008,0.599c-0.121,0.42-0.156,8.988-0.04,9.883
		c0.089,0.695,0.182,0.744,1.681,0.883c2.354,0.223,4.066,1.231,5.685,3.351c0.823,1.078,1.37,2.38,1.702,4.042
		c0.21,1.057,0.241,1.608,0.225,3.869c-0.073,9.262-0.06,14.733,0.034,14.923c0.102,0.206,0.36,0.211,6.109,0.143
		c5.834-0.071,6.008-0.066,6.207,0.153c0.196,0.217,0.194,0.237-0.066,0.484c-0.245,0.233-0.353,0.252-1.148,0.188
		c-0.484-0.037-3.139-0.071-5.9-0.076c-3.807-0.005-5.062,0.03-5.194,0.14c-0.148,0.124-0.164,0.762-0.105,4.721
		c0.039,2.518,0.08,6.923,0.094,9.79c0.023,5.028,0.014,5.234-0.216,5.742c-0.132,0.291-0.356,0.869-0.498,1.288
		c-0.802,2.353-2.691,4.124-5.441,5.099c-0.378,0.133-0.599,0.291-0.669,0.477c-0.057,0.15-0.098,2.503-0.091,5.229
		c0.01,3.824,0.049,5.06,0.171,5.41c0.209,0.6,0.199,1.064-0.031,1.549c-0.188,0.395-0.198,0.398-0.968,0.401
		c-0.427,0-0.856,0.052-0.953,0.111c-0.148,0.094-0.176,0.543-0.176,2.84c0,2.642-0.007,2.73-0.233,2.758
		C131.842,248.777,131.637,248.731,131.516,248.661L131.516,248.661z M131.303,242.516c0.047-0.487-0.227-0.721-0.629-0.535
		c-0.161,0.073-0.323,0.212-0.362,0.313c-0.104,0.271,0.306,0.658,0.657,0.617C131.206,242.884,131.273,242.804,131.303,242.516z
		 M133.041,241.353c0.037-0.096,0.145-0.176,0.24-0.176c0.125,0,0.154-0.087,0.106-0.322c-0.081-0.383-0.079-0.151-0.01-5.008
		c0.031-2.128,0.017-4.183-0.032-4.569l-0.087-0.703l-0.447-0.039c-0.813-0.066-0.779-0.309-0.739,5.209
		c0.025,3.581,0.074,5.012,0.172,5.11c0.074,0.073,0.136,0.201,0.136,0.281c0,0.142,0.312,0.382,0.502,0.389
		C132.932,241.528,133.004,241.45,133.041,241.353L133.041,241.353z M131.076,240.622l0.35-0.323l-0.025-4.746
		c-0.015-2.611-0.063-4.806-0.107-4.877c-0.15-0.242-0.808-0.295-1.043-0.082c-0.205,0.186-0.214,0.426-0.17,4.453
		c0.042,3.691,0.072,4.296,0.238,4.55c0.105,0.16,0.14,0.293,0.074,0.293c-0.161,0-0.277,0.515-0.183,0.813
		C130.316,241.036,130.659,241.003,131.076,240.622L131.076,240.622z M131.224,229.266c0.127-0.156,0.153-0.719,0.125-2.763
		c-0.038-2.67-0.002-2.901,0.453-2.901c0.115,0,0.24,0.092,0.276,0.206c0.034,0.112,0.053,1.38,0.04,2.817
		c-0.026,2.92-0.052,2.83,0.8,2.833c1.039,0.004,3.378-1.083,4.444-2.064c0.739-0.682,1.814-2.272,2.051-3.03
		c0.078-0.259,0.215-0.68,0.302-0.938c0.199-0.588,0.398-3.32,0.298-4.101c-0.073-0.565-0.092-0.59-0.577-0.743
		c-0.908-0.289-1.596-1.279-1.125-1.625c0.287-0.208,0.336-0.197,0.799,0.21c0.514,0.451,0.791,0.412,0.906-0.126
		c0.157-0.729,0.154-7.021-0.002-7.176c-0.106-0.107-0.256-0.076-0.649,0.14c-0.508,0.276-0.958,0.265-0.862-0.021
		c0.026-0.08,0.327-0.339,0.668-0.575c1.007-0.7,0.951-0.542,0.939-2.627c-0.006-1.027-0.005-2.189,0.002-2.581
		c0.018-0.971-0.071-1.03-1.562-1.039c-1.114-0.005-1.192-0.021-1.225-0.249c-0.063-0.451,0.195-0.524,1.328-0.387
		c1.523,0.188,1.478,0.283,1.389-2.928c-0.039-1.394-0.094-2.574-0.124-2.622c-0.029-0.048-0.162-0.087-0.296-0.087
		c-0.355,0-1.267-0.954-1.267-1.33c0-0.336,0.302-0.558,0.606-0.443c0.107,0.041,0.309,0.217,0.447,0.396
		c0.237,0.302,0.568,0.433,0.601,0.233c0.055-0.339,0.083-6.62,0.031-6.971c-0.095-0.634-0.471-0.602-1.034,0.087
		c-0.443,0.54-0.725,0.659-0.842,0.357c-0.178-0.465,0.679-1.732,1.271-1.881c0.637-0.16,0.719-0.394,0.632-1.781
		c-0.124-1.942-0.451-3.24-1.154-4.559c-0.249-0.464-2.466-2.739-2.672-2.739c-0.085,0-0.264-0.103-0.396-0.227
		c-0.409-0.382-2.361-0.968-3.288-0.986l-0.821-0.018l0.02,3.925c0.01,2.16,0.025,5.293,0.034,6.963
		c0.013,2.609-0.011,3.063-0.169,3.221c-0.14,0.14-0.229,0.153-0.384,0.055c-0.19-0.119-0.204-0.62-0.204-7.147v-7.016l-0.496-0.037
		c-0.526-0.036-2.146,0.574-3.37,1.271c-1.434,0.816-2.713,2.329-3.381,3.995c-0.373,0.93-0.394,1.063-0.403,2.485
		c-0.009,1.563,0.083,2.069,0.379,2.069c0.097,0,0.453,0.104,0.794,0.233c0.66,0.249,1.236,0.89,1.105,1.229
		c-0.106,0.279-0.381,0.213-0.962-0.231c-0.543-0.414-1.207-0.556-1.238-0.263c-0.055,0.521-0.075,1.513-0.078,3.778
		c-0.001,1.416-0.01,2.852-0.021,3.188c-0.029,1.066,0.323,1.32,1.231,0.888c0.293-0.14,0.441-0.302,0.487-0.526
		c0.153-0.769,0.739-0.729,0.737,0.051c-0.003,0.569-0.029,0.62-0.564,1.06c-0.317,0.261-0.507,0.32-1.018,0.32
		c-0.666,0-0.755,0.06-0.828,0.563c-0.097,0.685-0.048,4.813,0.061,5.102c0.147,0.387,0.512,0.479,1.534,0.394
		c0.845-0.071,1.153,0.066,1.01,0.443c-0.055,0.143-0.3,0.177-1.22,0.177c-0.74,0-1.203,0.05-1.293,0.142
		c-0.201,0.199-0.194,4.964,0.008,5.355c0.173,0.334,0.314,0.416,1.072,0.608c0.68,0.172,1.356,0.721,1.356,1.094
		c0,0.332-0.396,0.71-0.605,0.581c-0.085-0.053-0.383-0.27-0.662-0.48c-0.563-0.43-0.849-0.479-1.13-0.199
		c-0.165,0.167-0.186,0.627-0.172,3.838c0.012,2.394,0.064,3.79,0.152,4.06c0.146,0.444,0.116,0.438,1.48,0.325
		c0.342-0.027,0.415,0.009,0.446,0.22c0.047,0.334-0.534,0.744-1.057,0.744c-0.7,0-0.815,0.181-0.883,1.377
		c-0.046,0.806-0.014,1.213,0.13,1.655c0.105,0.322,0.191,0.7,0.191,0.84c0,0.142,0.13,0.501,0.287,0.798
		c0.158,0.3,0.366,0.742,0.463,0.982c0.335,0.84,1.528,2.21,2.237,2.574c0.259,0.133,0.627,0.373,0.82,0.535
		c0.464,0.39,1.682,0.962,2.051,0.964c0.161,0.002,0.372,0.055,0.469,0.116C130.433,229.525,131.049,229.479,131.224,229.266
		L131.224,229.266z M131.249,222.284c-0.131-0.21-0.05-0.821,0.136-1.012c0.371-0.382,0.801,0.31,0.545,0.875
		C131.79,222.451,131.4,222.529,131.249,222.284z M131.231,219.119c-0.094-0.112-0.13-1.574-0.128-4.956
		c0.007-8.783-0.015-10.653-0.127-10.832c-0.086-0.133-0.304-0.167-0.931-0.142c-0.693,0.027-0.835,0-0.933-0.181
		c-0.21-0.394,0.008-0.513,0.841-0.46c1.182,0.078,1.19,0.058,1.102-2.305c-0.076-2.043-0.012-2.373,0.453-2.281
		c0.215,0.041,0.227,0.16,0.227,2.169c0,1.17,0.043,2.17,0.098,2.223c0.053,0.055,0.502,0.126,0.996,0.157
		c0.865,0.058,0.899,0.071,0.899,0.353c0,0.282-0.03,0.293-0.879,0.327c-0.484,0.019-0.927,0.083-0.984,0.14
		c-0.105,0.105-0.108,2.209-0.016,10.488c0.028,2.513,0.012,4.753-0.036,4.979C131.722,219.233,131.449,219.382,131.231,219.119z
		 M125.135,216.156c-0.075-0.163-0.137-0.77-0.137-1.346c0-0.904,0.034-1.083,0.242-1.293c0.192-0.192,0.277-0.213,0.41-0.101
		c0.22,0.181,0.243,2.682,0.027,2.896C125.459,216.533,125.282,216.483,125.135,216.156z M138.262,214.792
		c-0.094-0.094-0.14-0.6-0.14-1.506c0-1.19,0.027-1.389,0.222-1.565c0.211-0.192,0.231-0.188,0.41,0.066
		c0.142,0.204,0.188,0.554,0.186,1.444c0,0.646-0.032,1.293-0.071,1.437C138.79,214.954,138.486,215.016,138.262,214.792
		L138.262,214.792z M127.297,203.271c-0.36-0.361-0.104-0.812,0.42-0.738c0.354,0.05,0.366,0.53,0.02,0.762
		C127.518,203.439,127.463,203.436,127.297,203.271L127.297,203.271z M135.222,203.255c-0.2-0.082-0.185-0.565,0.023-0.739
		c0.252-0.208,0.586-0.099,0.63,0.208C135.938,203.168,135.63,203.42,135.222,203.255z M131.12,194.818
		c-0.081-0.032-0.146-0.256-0.146-0.499c0-0.353,0.06-0.469,0.305-0.602c0.273-0.146,0.321-0.14,0.47,0.062
		c0.211,0.291,0.207,0.533-0.02,0.856C131.55,194.891,131.408,194.935,131.12,194.818L131.12,194.818z M138.383,193.167
		c-0.046-0.111-0.082-0.731-0.085-1.377l-0.002-1.172h0.293c0.256,0,0.305,0.066,0.379,0.528c0.127,0.79,0.115,1.726-0.026,1.991
		C138.786,193.426,138.493,193.443,138.383,193.167L138.383,193.167z M125.051,193.129c-0.14-0.227-0.087-1.858,0.066-2.044
		c0.188-0.227,0.4-0.22,0.596,0.016c0.18,0.218,0.161,1.596-0.024,1.943C125.565,193.278,125.174,193.329,125.051,193.129
		L125.051,193.129z M140.699,213.759c0-0.064-0.056-0.116-0.124-0.116s-0.092,0.052-0.053,0.116
		c0.041,0.064,0.097,0.119,0.125,0.119S140.699,213.824,140.699,213.759z M67.727,248.301c-0.093-0.092-0.141-0.588-0.141-1.455
		c0-1.433-0.049-1.685-0.325-1.685c-0.252,0-1.18,0.618-1.63,1.087c-0.729,0.758-1.274,0.929-3.005,0.947
		c-1.421,0.014-1.577-0.005-1.976-0.254c-0.83-0.515-1.03-1.547-1.111-5.7c-0.031-1.625-0.093-2.509-0.183-2.618
		c-0.16-0.19-0.481-0.153-2.31,0.276c-1.787,0.422-3.006,0.742-3.856,1.014c-0.743,0.238-0.745,0.238-0.682,0.628
		c0.037,0.229,0.007,0.432-0.075,0.498c-0.076,0.063-0.56,0.112-1.076,0.112s-1.086,0.06-1.267,0.131
		c-0.446,0.174-1.044,0.162-1.302-0.025c-0.293-0.215-0.15-0.602,0.29-0.785c0.191-0.08,0.556-0.336,0.81-0.569
		c0.681-0.625,1.134-0.952,1.324-0.952c0.093,0,0.393,0.162,0.667,0.361l0.498,0.361l0.545-0.235c0.758-0.325,2.79-0.84,4.975-1.259
		c1.671-0.32,1.541,0.073,1.514-4.574c-0.021-3.591-0.042-3.982-0.223-4.115c-0.11-0.08-0.269-0.146-0.353-0.146
		c-0.212,0-1.598-0.533-2.445-0.94c-0.39-0.188-0.917-0.416-1.171-0.506c-0.522-0.185-1.632-0.814-1.986-1.126
		c-0.129-0.114-0.419-0.307-0.645-0.428c-0.226-0.121-0.938-0.588-1.582-1.036c-1.652-1.149-5.069-4.584-5.87-5.899
		c-0.223-0.366-0.698-1.117-1.055-1.664c-1.259-1.93-2.766-5.442-3.015-7.03c-0.036-0.225-0.172-0.918-0.304-1.535
		c-0.132-0.62-0.269-1.332-0.304-1.584c-0.188-1.348-0.289-2.405-0.292-3.032c-0.001-0.387-0.049-0.775-0.106-0.867
		c-0.087-0.138-0.819-0.16-4.373-0.14c-3.674,0.021-4.29-0.002-4.415-0.153c-0.216-0.261-0.109-0.569,0.225-0.65
		c0.373-0.089,7.303,0.053,7.85,0.161c0.713,0.142,0.81-0.032,0.886-1.572c0.037-0.742,0.111-1.611,0.166-1.935
		c0.234-1.391,0.501-2.734,0.652-3.279c0.447-1.61,0.742-2.51,0.979-2.988c0.144-0.291,0.373-0.845,0.507-1.229
		c0.136-0.387,0.336-0.836,0.447-0.998c0.111-0.16,0.353-0.535,0.538-0.833c0.78-1.25,1.779-2.687,2.516-3.618
		c1.199-1.518,3.926-4.055,5.437-5.062c1.924-1.279,3.205-2.037,3.925-2.321c0.354-0.14,0.811-0.354,1.015-0.48
		c0.397-0.244,4.051-1.441,5.02-1.646c1.328-0.278,2.666-0.462,4.159-0.569c1.261-0.092,1.612-0.155,1.729-0.313
		c0.107-0.146,0.146-0.915,0.146-2.856c0-2.21,0.029-2.684,0.174-2.803c0.096-0.08,0.251-0.114,0.345-0.08
		c0.219,0.084,0.357,0.808,0.206,1.091c-0.063,0.119-0.152,1.168-0.197,2.328c-0.1,2.6-0.107,2.581,1.07,2.542
		c0.934-0.029,3.575,0.252,4.845,0.518c1.308,0.272,3.964,1.084,4.595,1.405c0.304,0.153,0.623,0.278,0.709,0.278
		c0.086,0,0.417,0.129,0.736,0.284c0.319,0.155,0.764,0.366,0.99,0.469c1.276,0.575,3.329,1.889,4.899,3.136
		c0.953,0.758,4.234,4.135,4.653,4.794c0.148,0.231,0.354,0.504,0.457,0.609c0.506,0.503,2.878,4.741,2.879,5.14
		c0,0.107,0.126,0.45,0.282,0.762c0.366,0.739,0.801,2.126,1.168,3.73c0.275,1.203,0.335,1.652,0.488,3.739
		c0.033,0.446,0.126,0.947,0.206,1.114c0.142,0.293,0.179,0.302,1.257,0.302c1.043,0,1.112,0.014,1.146,0.25
		c0.07,0.501-0.275,0.656-1.264,0.569c-0.682-0.06-0.925-0.041-1.019,0.078c-0.097,0.124-0.267,1.934-0.295,3.145
		c-0.007,0.295-0.445,2.961-0.559,3.398c-0.272,1.043-0.716,2.54-0.816,2.753c-0.063,0.128-0.389,0.893-0.724,1.698
		c-0.336,0.805-0.734,1.634-0.886,1.837c-0.15,0.206-0.33,0.522-0.399,0.705c-0.236,0.629-1.93,3.017-2.93,4.131
		c-1.151,1.281-2.776,2.886-3.415,3.368c-1.604,1.213-1.603,1.213-1.849,0.916c-0.194-0.233-0.703-0.231-0.703,0.002
		c0,0.099,0.131,0.229,0.293,0.288c0.161,0.062,0.292,0.165,0.292,0.231c0,0.063-0.329,0.283-0.732,0.487
		c-0.403,0.201-0.917,0.511-1.143,0.687c-0.513,0.398-2.389,1.305-3.398,1.641c-1.387,0.463-1.259,0.048-1.275,4.126
		c-0.016,4.236,0.079,5.438,0.455,5.742c0.147,0.119,0.452,0.21,0.7,0.21c0.407,0,2.313,0.646,3.314,1.124
		c0.353,0.167,0.487,0.181,0.733,0.068c0.456-0.208,0.602-0.174,1.081,0.257c0.242,0.217,0.744,0.565,1.116,0.773
		c0.698,0.394,0.906,0.634,0.906,1.05c0,0.188-0.073,0.24-0.322,0.238c-0.177-0.002-0.454-0.08-0.615-0.172
		c-0.182-0.103-0.635-0.169-1.195-0.171c-1.168-0.005-1.476-0.145-1.522-0.683c-0.02-0.227-0.114-0.453-0.212-0.506
		c-1.574-0.84-3.92-1.739-4.087-1.567c-0.062,0.064-0.16,0.753-0.217,1.536c-0.089,1.194-0.146,1.471-0.368,1.753
		c-0.441,0.561-0.834,0.675-2.503,0.732c-0.374,0.014-0.63,0.094-0.782,0.244c-0.391,0.392-0.672,0.479-1.554,0.48
		c-0.743,0.003-0.943,0.051-1.502,0.369c-1.255,0.711-1.46,0.801-1.87,0.801c-0.69,0.004-0.713,0.055-0.741,1.625
		c-0.02,1.123-0.063,1.453-0.201,1.54C67.942,248.47,67.894,248.468,67.727,248.301L67.727,248.301z M64.657,245.814
		c0.225-0.117,0.654-0.412,0.951-0.659c0.298-0.247,0.799-0.572,1.113-0.721c0.314-0.146,0.608-0.318,0.651-0.38
		c0.171-0.238-0.156-0.499-0.863-0.693c-0.407-0.11-1.091-0.337-1.521-0.504c-0.985-0.382-1.625-0.318-2.354,0.235
		c-0.273,0.209-0.813,0.559-1.2,0.776c-0.8,0.453-0.876,0.535-0.874,0.94c0.002,0.325,0.557,1.002,0.964,1.176
		C61.966,246.175,64.185,246.054,64.657,245.814z M70.219,243.795c0.379-0.186,0.71-0.403,0.736-0.48
		c0.026-0.078-0.137-0.229-0.362-0.337c-0.38-0.181-0.443-0.181-0.89-0.002c-0.264,0.107-0.582,0.194-0.705,0.194
		c-0.123,0-0.355,0.167-0.516,0.373l-0.293,0.375l0.255,0.146C68.812,244.278,69.43,244.184,70.219,243.795z M61.677,242.523
		c0.466-0.291,1.05-0.613,1.298-0.717c0.66-0.274,1.656-0.139,2.678,0.362c1.058,0.521,1.75,0.646,1.904,0.341
		c0.061-0.121,0.115-1.204,0.121-2.407c0.01-1.84-0.018-2.213-0.17-2.339c-0.208-0.174-2.963-0.163-3.898,0.016
		c-0.305,0.058-1.094,0.142-1.754,0.188c-0.79,0.055-1.257,0.14-1.367,0.25c-0.134,0.135-0.166,0.604-0.158,2.341
		c0.006,1.194,0.038,2.245,0.072,2.334C60.505,243.159,60.789,243.077,61.677,242.523L61.677,242.523z M74.406,242.395
		c0.274-0.143,0.538-0.165,1.14-0.105c0.588,0.06,0.815,0.041,0.91-0.078c0.15-0.186,0.313-3.145,0.185-3.332
		c-0.05-0.073-0.459-0.22-0.91-0.327c-0.452-0.105-0.926-0.22-1.055-0.252c-0.527-0.133-2.413-0.418-3.456-0.521
		c-2.683-0.27-2.659-0.27-2.76-0.107c-0.145,0.235-0.093,4.567,0.057,4.717c0.087,0.089,0.288,0.066,0.681-0.076
		c0.693-0.247,1.34-0.251,1.803-0.014C71.785,242.706,73.702,242.758,74.406,242.395L74.406,242.395z M76.596,237.969
		c0.092-0.11,0.115-0.627,0.072-1.669c-0.034-0.83-0.094-2.563-0.133-3.852c-0.043-1.409-0.123-2.407-0.199-2.503
		c-0.147-0.181-0.463-0.146-1.954,0.215c-1.127,0.274-3.648,0.579-4.833,0.586c-1.246,0.005-1.22-0.055-1.243,2.936
		c-0.021,2.765,0.025,3.238,0.331,3.335c0.113,0.036,0.807,0.092,1.54,0.123c1.841,0.078,4.445,0.474,5.669,0.86
		C76.343,238.157,76.444,238.152,76.596,237.969L76.596,237.969z M62.372,237.44c0.58-0.073,1.377-0.186,1.771-0.249
		c0.394-0.062,1.271-0.114,1.948-0.114c0.996,0,1.262-0.037,1.391-0.19c0.119-0.146,0.156-0.652,0.148-2.08
		c-0.02-3.71-0.024-3.79-0.249-3.886c-0.112-0.051-0.812-0.131-1.553-0.181c-0.741-0.051-1.927-0.204-2.636-0.341
		c-2.438-0.47-2.746-0.515-2.835-0.426c-0.156,0.155-0.184,3.295-0.043,4.888c0.1,1.129,0.102,1.639,0.006,1.93
		c-0.198,0.6,0.012,0.91,0.569,0.84C61.124,237.598,61.792,237.513,62.372,237.44L62.372,237.44z M67.466,229.755
		c0.109-0.13,0.141-1.363,0.131-5.089l-0.012-4.916l0.264-0.186c0.243-0.171,0.276-0.169,0.417,0.023
		c0.116,0.157,0.136,0.62,0.085,1.963c-0.161,4.252-0.167,7.998-0.013,8.209c0.133,0.181,0.281,0.196,1.207,0.133
		c2.007-0.145,5.905-0.874,6.559-1.231c0.141-0.075,0.364-0.137,0.498-0.137c0.259,0,1.721-0.655,1.82-0.815
		c0.033-0.055,0.206-0.133,0.383-0.176c0.476-0.117,3.094-1.424,3.634-1.814c0.255-0.186,0.801-0.513,1.211-0.726
		c0.793-0.414,2.782-2.14,3.913-3.398c0.369-0.412,0.797-0.863,0.953-1.007c0.521-0.479,2.31-2.966,2.762-3.84
		c0.101-0.195,0.499-0.959,0.888-1.698c0.387-0.741,0.786-1.611,0.886-1.934c0.1-0.323,0.348-1.035,0.553-1.582
		c0.205-0.549,0.413-1.181,0.461-1.407c0.051-0.224,0.203-0.913,0.34-1.531c0.139-0.615,0.278-1.38,0.311-1.697
		c0.034-0.318,0.121-1.042,0.194-1.609c0.085-0.661,0.094-1.186,0.025-1.464l-0.107-0.436l-5.976-0.018
		c-3.54-0.01-6.029,0.027-6.108,0.091c-0.121,0.101-0.352,1.724-0.293,2.064c0.026,0.151-0.621,2.732-0.787,3.135
		c-0.862,2.102-2.066,3.904-3.583,5.371c-0.97,0.937-1.521,1.327-2.878,2.042c-0.548,0.288-1.207,0.645-1.464,0.791
		c-0.735,0.415-1.671,0.678-2.179,0.609c-0.343-0.046-0.528-0.003-0.753,0.174c-0.224,0.176-0.397,0.217-0.689,0.162
		c-0.215-0.041-0.674,0-1.021,0.09c-0.529,0.137-0.906,0.14-2.349,0.016c-0.945-0.08-1.779-0.186-1.854-0.231
		c-0.075-0.046-0.515-0.178-0.977-0.293c-0.882-0.22-1.466-0.45-2.758-1.094c-1.411-0.702-2.167-1.272-3.59-2.705
		c-1.106-1.114-1.513-1.617-1.906-2.354c-0.275-0.515-0.631-1.162-0.791-1.438c-0.16-0.274-0.291-0.592-0.292-0.702
		c0-0.112-0.104-0.373-0.231-0.581c-0.355-0.581-0.834-2.55-0.906-3.722c-0.035-0.581-0.122-1.125-0.191-1.215
		c-0.098-0.121-0.363-0.14-1.187-0.08c-1.445,0.107-7.921,0.114-9.436,0.012c-1.775-0.119-1.722-0.19-1.479,1.938
		c0.106,0.929,0.297,2.109,0.424,2.625c0.127,0.517,0.232,1.057,0.233,1.205c0.002,0.422,1.136,3.715,1.723,5.005
		c0.293,0.646,0.773,1.568,1.067,2.051c0.293,0.483,0.528,0.973,0.52,1.09c-0.008,0.116,0.066,0.242,0.166,0.281
		c0.098,0.036,0.63,0.68,1.181,1.428c1.002,1.359,3.279,3.728,4.419,4.595c0.326,0.248,0.75,0.589,0.944,0.758
		c0.472,0.412,2.09,1.431,2.787,1.753c0.309,0.145,0.656,0.346,0.771,0.451c0.266,0.24,4.061,1.895,4.528,1.975
		c0.193,0.032,1.089,0.245,1.991,0.474c2.61,0.659,5.281,0.954,5.563,0.616V229.755z M70.69,216.943
		c0.258-0.058,0.601-0.163,0.762-0.233c0.161-0.071,0.768-0.312,1.348-0.533c2.231-0.854,3.637-1.833,5.349-3.726
		c0.792-0.877,2.208-3.076,2.208-3.431c0-0.073,0.046-0.186,0.102-0.245c0.3-0.329,1.051-3.14,1.146-4.293l0.074-0.901l-0.313-0.08
		c-0.339-0.085-0.573-0.398-0.445-0.598c0.044-0.068,0.198-0.162,0.343-0.208c0.425-0.133,0.359-1.06-0.193-2.728
		c-0.704-2.122-1.108-2.896-2.275-4.349c-1.576-1.961-3.224-3.245-5.276-4.107c-2.638-1.112-4.63-1.441-7.152-1.186
		c-1.6,0.162-4.356,1.071-5.52,1.817c-0.322,0.208-0.797,0.51-1.054,0.67c-0.564,0.354-2.379,2.01-2.665,2.429
		c-1.357,1.995-1.862,3.063-2.427,5.144c-0.357,1.312-0.438,2.051-0.256,2.339c0.063,0.099,0.306,0.143,0.703,0.124
		c0.65-0.03,0.888,0.096,0.77,0.402c-0.083,0.22-0.733,0.376-1.089,0.264c-0.173-0.055-0.288,0-0.42,0.201
		c-0.164,0.249-0.165,0.394-0.01,1.382c0.259,1.666,0.516,2.483,1.326,4.231c0.924,1.993,2.453,3.811,4.382,5.209
		c0.79,0.572,2.252,1.315,2.936,1.494c0.341,0.089,1.016,0.295,1.498,0.455c1.304,0.439,2.785,0.644,4.333,0.598
		C69.616,217.064,70.433,217,70.69,216.943L70.69,216.943z M67.841,216.546c-0.162-0.162-0.177-0.551-0.031-0.782
		c0.168-0.266,0.479-0.058,0.479,0.32C68.289,216.499,68.045,216.75,67.841,216.546L67.841,216.546z M67.774,213.581
		c-0.15-0.15-0.188-0.455-0.188-1.523c0-1.526,0.035-1.472-1.099-1.683c-1.559-0.288-3.856-1.852-4.39-2.986
		c-0.139-0.295-0.253-0.586-0.253-0.641c0-0.058-0.096-0.229-0.212-0.382c-0.254-0.337-0.45-0.986-0.559-1.86
		c-0.122-0.984-0.187-1.056-0.94-1.056c-0.605,0-0.646-0.019-0.611-0.263c0.033-0.231,0.124-0.272,0.706-0.325
		c0.368-0.032,0.723-0.112,0.79-0.179s0.174-0.405,0.239-0.75c0.286-1.506,1.423-3.133,2.798-4.005
		c0.597-0.38,2.185-0.923,2.694-0.923c0.662,0,0.772-0.21,0.836-1.59c0.048-1.037,0.095-1.279,0.267-1.387
		c0.348-0.216,0.44,0.116,0.359,1.302c-0.1,1.453-0.002,1.602,1.156,1.789c1.56,0.252,2.774,1.001,3.735,2.303
		c0.424,0.572,1.161,2.007,1.515,2.942c0.16,0.424,0.17,0.429,1.549,0.385c0.771-0.022,0.919,0.005,0.986,0.177
		c0.143,0.37-0.279,0.549-1.157,0.491c-1.102-0.075-1.216,0.028-1.289,1.146c-0.032,0.49-0.117,0.95-0.192,1.023
		c-0.074,0.075-0.134,0.302-0.134,0.506c0,0.52-0.971,1.97-1.78,2.661c-0.915,0.783-2.245,1.438-3.28,1.613
		c-0.471,0.08-0.907,0.192-0.969,0.247c-0.063,0.058-0.099,0.703-0.08,1.485c0.027,1.104-0.001,1.412-0.139,1.524
		C67.997,213.739,67.924,213.73,67.774,213.581L67.774,213.581z M70.792,208.828c1.487-0.806,2.399-1.995,2.884-3.762
		c0.259-0.945,0.229-1.433-0.099-1.606c-0.106-0.058-1.257-0.094-2.56-0.085c-2.104,0.014-2.392,0.039-2.578,0.225
		c-0.189,0.189-0.209,0.478-0.209,3.022c0,2.188,0.034,2.833,0.153,2.906C68.6,209.663,70.006,209.253,70.792,208.828
		L70.792,208.828z M67.559,209.361c0.102-0.183,0.07-5.037-0.036-5.526c-0.085-0.396-0.361-0.462-1.577-0.389
		c-0.612,0.036-1.667,0.029-2.342-0.017c-1.579-0.105-1.703-0.025-1.586,1.017c0.093,0.828,0.588,2.073,1.068,2.684
		c0.595,0.76,1.796,1.628,2.798,2.019C66.947,209.567,67.411,209.625,67.559,209.361L67.559,209.361z M66.428,202.745
		c0.809,0,0.931-0.027,1.046-0.244c0.084-0.156,0.128-0.996,0.123-2.313c-0.01-2.708,0.059-2.648-2.063-1.817
		c-1.165,0.458-2.103,1.11-2.553,1.773c-0.551,0.817-0.903,1.604-0.903,2.023c0,0.697,0.1,0.731,1.863,0.651
		C64.807,202.78,65.926,202.745,66.428,202.745z M73.542,202.414c0.119-0.84-1.482-3.064-2.713-3.77
		c-0.894-0.513-2.112-0.867-2.416-0.705c-0.216,0.115-0.243,0.25-0.263,1.325c-0.031,1.724,0.032,3.039,0.158,3.279
		c0.1,0.19,0.32,0.204,2.652,0.177l2.543-0.032L73.542,202.414z M57.304,203.489c-0.186-0.075-0.189-0.419-0.005-0.602
		c0.203-0.204,0.758-0.174,0.842,0.043C58.308,203.366,57.815,203.695,57.304,203.489L57.304,203.489z M78.753,203.257
		c-0.098-0.256,0.106-0.561,0.405-0.606c0.295-0.043,0.467,0.376,0.258,0.628C79.226,203.507,78.844,203.496,78.753,203.257
		L78.753,203.257z M67.564,192.259c-0.11-0.24-0.096-0.332,0.08-0.526c0.117-0.13,0.255-0.235,0.307-0.235
		c0.176,0,0.358,0.489,0.287,0.773C68.143,192.651,67.739,192.644,67.564,192.259L67.564,192.259z M93.948,213.291
		c0-0.064-0.053-0.117-0.117-0.117c-0.063,0-0.116,0.053-0.116,0.117c0,0.066,0.053,0.119,0.116,0.119
		C93.896,213.41,93.948,213.357,93.948,213.291z M48.569,202.83c3.376,0.012,4.621-0.022,4.696-0.123
		c0.057-0.073,0.188-0.719,0.292-1.431c0.177-1.215,0.792-3.288,1.188-4.007c0.098-0.179,0.327-0.616,0.509-0.973
		c0.396-0.78,1.7-2.361,2.749-3.334c0.648-0.6,2.318-1.778,2.719-1.918c0.07-0.025,0.537-0.25,1.038-0.499
		c0.501-0.249,1.007-0.453,1.123-0.453c0.116,0,0.55-0.103,0.963-0.227c0.414-0.126,1.469-0.313,2.346-0.419
		c1.906-0.229,3.612-0.116,5.364,0.354c1.246,0.335,1.487,0.431,3.119,1.238c2.096,1.039,3.102,1.811,4.519,3.47
		c0.587,0.687,1.117,1.377,1.177,1.535s0.217,0.439,0.349,0.623c0.45,0.631,1.402,3.384,1.597,4.615
		c0.118,0.746,0.253,1.227,0.373,1.327c0.139,0.114,0.417,0.138,1.066,0.083c0.81-0.066,8.462-0.09,10.174-0.03
		c0.41,0.014,0.806-0.012,0.879-0.06c0.174-0.107,0.155-1.83-0.028-2.687c-0.074-0.343-0.192-0.918-0.263-1.271
		c-0.235-1.205-0.581-2.636-0.693-2.871c-0.26-0.55-0.548-1.616-0.494-1.824c0.041-0.155,0-0.227-0.133-0.227
		c-0.106,0-0.226-0.092-0.266-0.204c-0.038-0.114-0.349-0.784-0.688-1.494c-2.398-5-7.013-9.495-12.472-12.146
		c-0.676-0.33-1.494-0.691-1.816-0.806c-0.322-0.115-1.034-0.376-1.582-0.579c-1.031-0.383-1.12-0.403-3.457-0.813
		c-1.708-0.3-4.565-0.611-4.792-0.526c-0.138,0.055-0.163,0.865-0.153,5.007c0.006,2.719-0.029,5.06-0.078,5.206
		c-0.106,0.313-0.368,0.346-0.479,0.058c-0.044-0.112-0.067-2.104-0.051-4.424c0.027-4.068,0.028-5.229,0.001-5.531
		c-0.031-0.35-0.467-0.396-2.035-0.215c-2.168,0.252-3.202,0.451-4.891,0.942c-1.354,0.392-3.098,1.008-3.515,1.241
		c-0.097,0.055-0.711,0.361-1.366,0.682c-1.277,0.625-2.934,1.649-3.789,2.344c-0.29,0.235-0.738,0.571-0.996,0.748
		c-1.143,0.782-3.836,3.613-4.815,5.062c-1.928,2.856-2.399,3.732-3.212,5.978c-0.14,0.387-0.325,0.886-0.412,1.112
		c-0.491,1.277-1.116,4.426-1.198,6.023c-0.083,1.654-0.093,1.646,1.611,1.52C43.423,202.857,46.043,202.823,48.569,202.83
		L48.569,202.83z M107.716,203.434c-0.322-0.06-1.303-0.073-2.177-0.032c-1.817,0.085-2.1,0.037-2.1-0.364
		c0-0.51,0.294-0.588,2.123-0.551c0.927,0.018,1.843,0.041,2.036,0.055c0.193,0.012,0.675-0.019,1.071-0.066
		c0.778-0.096,1.096,0.051,1.096,0.506C109.766,203.54,109.108,203.683,107.716,203.434L107.716,203.434z M13.22,148.031
		l-0.879-0.062l-0.036-0.498l-0.036-0.499l0.563-0.012c0.31-0.007,0.774-0.028,1.032-0.047c0.421-0.032,5.595-0.133,11.576-0.228
		c1.211-0.02,2.233-0.065,2.271-0.104c0.038-0.038,0.172-0.013,0.3,0.055c0.234,0.125,5.995,0.211,13.623,0.205
		c2.062-0.003,5.937,0.006,8.612,0.018c2.674,0.012,4.968,0.022,5.096,0.022c0.129,0,1.922-0.004,3.984-0.011
		c2.062-0.007,5.779-0.01,8.26-0.005c2.481,0.003,8.333-0.024,13.006-0.062c4.672-0.038,10.946-0.089,13.942-0.113
		c2.998-0.024,5.542-0.083,5.659-0.13c0.114-0.047,0.405-0.046,0.645,0.004c0.567,0.116,1.468,0.119,5.745,0.021
		c2.121-0.049,3.647-0.132,3.786-0.207c0.159-0.085,0.277-0.087,0.376-0.004c0.117,0.097,2.669,0.191,4.177,0.154
		c0.161-0.003,6.515-0.037,14.119-0.073c8.514-0.04,14.164-0.112,14.704-0.187c0.483-0.067,0.983-0.113,1.114-0.103
		c0.217,0.018,4.678,0.116,5.33,0.118c0.162,0,1.928-0.032,3.926-0.071c1.997-0.039,3.896-0.066,4.219-0.06
		c2.155,0.042,5.637,0.012,5.975-0.051c0.357-0.067,0.411-0.043,0.474,0.204c0.038,0.154,0.053,0.485,0.032,0.737l-0.038,0.458
		l-4.452,0.016c-5.516,0.02-15.037,0.026-20.095,0.012c-4.274-0.012-19.609,0.142-21.323,0.213
		c-2.211,0.093-17.582,0.186-38.256,0.231c-11.6,0.025-22.83,0.051-24.957,0.058s-5.765,0.009-8.085,0.007
		c-2.32-0.003-7.329-0.003-11.131-0.001c-3.801,0.002-8.916,0.001-11.365-0.004c-2.449-0.004-5.929,0.007-7.733,0.025
		C15.575,148.078,13.703,148.065,13.22,148.031L13.22,148.031z M49.015,126.962c-0.523-0.111-0.533-0.166-0.52-2.824
		c0.011-1.985,0.049-2.589,0.181-2.795c0.192-0.3,0.537-0.344,0.743-0.095c0.117,0.14,0.172,1.063,0.109,1.823
		c-0.037,0.441,0.173,2.533,0.265,2.65c0.067,0.085,0.507,0.12,1.245,0.1c0.627-0.017,1.227,0.014,1.331,0.07
		c0.283,0.151,0.343,0.547,0.121,0.801c-0.168,0.192-0.404,0.229-1.718,0.271C49.935,126.991,49.144,126.99,49.015,126.962
		L49.015,126.962z M42.97,126.693c-0.238-0.238-0.242-0.31-0.162-2.724c0.046-1.364,0.132-2.54,0.19-2.614
		c0.112-0.142,2.407-0.358,3.204-0.302c0.51,0.036,0.761,0.264,0.761,0.69c0,0.498-0.431,0.645-1.622,0.555l-1.063-0.08
		l-0.141,0.309c-0.119,0.262-0.108,0.345,0.072,0.544c0.17,0.187,0.361,0.234,0.949,0.234c0.629,0,0.764,0.039,0.919,0.26
		c0.224,0.319,0.224,0.437,0.001,0.731c-0.15,0.198-0.294,0.225-1.051,0.197c-1.021-0.038-0.991-0.072-1.027,1.143
		c-0.021,0.738-0.062,0.883-0.302,1.077C43.351,126.997,43.271,126.994,42.97,126.693L42.97,126.693z M60.424,126.742
		c-0.128-0.155-0.153-0.709-0.122-2.723c0.021-1.391,0.088-2.587,0.148-2.66c0.138-0.166,2.073-0.093,2.742,0.103
		c0.258,0.075,0.626,0.297,0.819,0.493c0.305,0.309,0.351,0.441,0.352,1.008c0,0.505-0.066,0.75-0.292,1.082
		c-0.358,0.525-0.735,0.667-1.771,0.667c-0.948,0-1.042,0.1-1.042,1.113c0,0.363-0.054,0.762-0.121,0.887
		C60.989,126.99,60.64,127.005,60.424,126.742L60.424,126.742z M63.037,123.581c0.525-0.476,0.018-1.329-0.791-1.329
		c-0.697,0-0.987,0.181-0.987,0.615c0,0.653,0.27,0.908,0.964,0.908C62.616,123.774,62.896,123.708,63.037,123.581z M72.785,126.707
		c-0.493-0.22-0.905-0.674-1.279-1.409c-0.293-0.577-0.296-2.235-0.004-2.839c0.279-0.58,0.833-1.107,1.334-1.273
		c0.904-0.299,2.046,0.112,2.368,0.853c0.313,0.719-0.325,1.103-0.844,0.507c-0.331-0.381-1.092-0.406-1.542-0.053
		c-0.834,0.656-0.585,2.594,0.398,3.103c0.602,0.311,1.282-0.087,1.282-0.752c0-0.422,0.258-0.833,0.523-0.833
		c0.548,0,0.669,0.493,0.35,1.429c-0.199,0.585-0.781,1.133-1.447,1.363C73.426,126.973,73.375,126.969,72.785,126.707
		L72.785,126.707z M77.072,126.371c-0.99-1.027-1.215-2.454-0.599-3.8c0.481-1.051,1.261-1.538,2.252-1.405
		c1.003,0.134,1.989,1.516,1.981,2.776c-0.005,0.95-0.568,2.147-1.256,2.674c-0.351,0.269-0.536,0.322-1.126,0.322
		C77.634,126.938,77.607,126.925,77.072,126.371z M79.033,125.621c0.599-0.548,0.816-2.169,0.386-2.875
		c-0.528-0.866-1.683-0.729-2.194,0.26c-0.243,0.47-0.128,1.698,0.21,2.245C77.892,125.99,78.48,126.126,79.033,125.621z
		 M89.693,126.848c-0.35-0.078-0.402-0.473-0.309-2.37c0.105-2.106,0.064-2.226-0.764-2.226c-0.666,0-0.91-0.201-0.861-0.708
		c0.035-0.374,0.064-0.402,0.39-0.367c0.627,0.067,1.265,0.063,2.492-0.016c1.101-0.07,1.222-0.058,1.435,0.156
		c0.272,0.272,0.284,0.353,0.086,0.62c-0.098,0.131-0.396,0.224-0.885,0.274c-0.563,0.059-0.767,0.13-0.86,0.306
		c-0.073,0.14-0.108,0.922-0.087,2.004c0.041,2.188-0.033,2.462-0.635,2.329H89.693z M97.197,126.615
		c-0.102-0.112-0.315-0.563-0.475-1.002c-0.396-1.092-0.577-1.272-1.245-1.229l-0.533,0.035l-0.094,0.82
		c-0.131,1.151-0.221,1.4-0.516,1.443c-0.467,0.067-0.526-0.288-0.481-2.916c0.033-1.973,0.074-2.479,0.214-2.613
		c0.144-0.135,0.429-0.146,1.627-0.056c0.798,0.06,1.549,0.161,1.668,0.226c0.348,0.186,0.572,0.62,0.643,1.236
		c0.056,0.49,0.021,0.629-0.238,0.975c-0.39,0.52-0.391,1.066-0.006,1.938c0.294,0.664,0.298,1.07,0.009,1.26
		C97.562,126.869,97.396,126.835,97.197,126.615L97.197,126.615z M96.854,123.165c0.185-0.184,0.181-0.735-0.006-0.89
		c-0.132-0.109-0.871-0.18-1.585-0.152c-0.381,0.015-0.563,0.533-0.32,0.905c0.163,0.246,0.271,0.277,0.977,0.277
		C96.381,123.306,96.772,123.247,96.854,123.165z M100.803,126.708c-0.412-0.173-1.097-0.983-1.288-1.526
		c-0.104-0.295-0.191-0.938-0.198-1.464c-0.009-0.781,0.035-1.018,0.26-1.408c0.598-1.036,1.096-1.347,2.151-1.347
		c0.519,0,0.708,0.058,1.001,0.305c0.784,0.659,1.366,2.153,1.156,2.958c-0.288,1.096-0.396,1.361-0.713,1.759
		C102.604,126.701,101.552,127.021,100.803,126.708z M102.094,125.574c0.265-0.102,0.654-1.025,0.725-1.715
		c0.042-0.427-0.005-0.677-0.201-1.055c-0.316-0.608-0.403-0.666-0.997-0.668c-0.548-0.002-0.921,0.224-1.173,0.709
		c-0.146,0.283-0.158,0.508-0.065,1.251c0.099,0.795,0.157,0.948,0.474,1.23C101.211,125.644,101.672,125.735,102.094,125.574
		L102.094,125.574z M54.167,126.467c-0.207-0.229-0.207-0.271-0.012-1.098c0.112-0.473,0.31-1.059,0.439-1.302
		c0.27-0.502,0.636-1.649,0.75-2.344c0.167-1.024,0.38-1.176,1.06-0.757c0.529,0.327,0.779,0.713,0.944,1.455
		c0.072,0.325,0.353,1.119,0.624,1.763c0.271,0.644,0.521,1.417,0.557,1.716c0.057,0.475,0.033,0.562-0.19,0.681
		c-0.228,0.122-0.307,0.08-0.748-0.394c-0.488-0.526-0.498-0.53-1.253-0.525c-1.01,0.007-1.14,0.055-1.365,0.493
		C54.667,126.752,54.488,126.821,54.167,126.467L54.167,126.467z M56.776,124.454c0.193-0.161,0.187-0.592-0.017-1.079
		c-0.313-0.75-0.69-0.671-0.949,0.198c-0.218,0.736-0.218,0.729,0.016,0.963C56.027,124.737,56.483,124.696,56.776,124.454
		L56.776,124.454z M55.923,120.955c-0.101-0.163-0.171-0.132-0.171,0.073c0,0.101,0.054,0.15,0.119,0.109
		C55.937,121.096,55.959,121.014,55.923,120.955z M82.353,126.476c-0.16-0.298-0.037-5.039,0.136-5.247
		c0.387-0.466,1.093,0.147,1.919,1.667c0.544,1.001,0.7,1.229,0.844,1.229c0.25,0.001,0.378-0.549,0.378-1.625
		c0-1.158,0.172-1.581,0.55-1.35c0.189,0.116,0.218,0.377,0.271,2.519c0.058,2.354,0.007,2.844-0.31,2.965
		c-0.19,0.073-0.511-0.034-0.511-0.171c0-0.054-0.207-0.336-0.459-0.629s-0.628-0.873-0.833-1.29
		c-0.439-0.891-0.755-1.231-0.957-1.029c-0.079,0.079-0.157,0.686-0.188,1.456c-0.028,0.727-0.1,1.414-0.159,1.526
		C82.891,126.772,82.504,126.76,82.353,126.476L82.353,126.476z M106.047,126.585c-1.004-0.105-0.992-0.066-0.983-2.985
		c0.007-2.619,0.05-2.872,0.484-2.872c0.411,0,0.472,0.281,0.511,2.334c0.029,1.631,0.071,2.046,0.22,2.195
		c0.206,0.207,1.249,0.271,2.052,0.127c0.415-0.074,0.535-0.05,0.732,0.146c0.276,0.277,0.301,0.571,0.069,0.887
		c-0.146,0.198-0.315,0.228-1.318,0.23C107.18,126.648,106.386,126.621,106.047,126.585L106.047,126.585z M125.444,126.381
		c-0.097-0.113-0.392-0.653-0.655-1.201c-0.263-0.548-0.643-1.251-0.842-1.564c-0.547-0.853-0.687-0.639-0.698,1.061
		c-0.008,1.397-0.089,1.674-0.487,1.674c-0.403,0-0.457-0.371-0.421-2.94c0.03-2.189,0.06-2.506,0.233-2.616
		c0.141-0.089,0.257-0.088,0.403,0.002c0.291,0.182,1.118,1.256,1.687,2.19c0.322,0.53,0.548,0.784,0.673,0.76
		c0.216-0.042,0.205,0.031,0.229-1.695c0.018-1.237,0.032-1.314,0.273-1.391c0.19-0.06,0.313-0.011,0.474,0.186
		c0.198,0.244,0.213,0.481,0.184,2.756c-0.03,2.255-0.056,2.511-0.257,2.735C125.968,126.639,125.68,126.654,125.444,126.381
		L125.444,126.381z M129.239,126.438c-0.912-0.292-1.662-1.697-1.662-3.112c0-1.037,0.248-1.563,0.975-2.06
		c1.191-0.813,2.201-0.603,3.03,0.633c0.716,1.07,0.697,2.368-0.051,3.603C130.966,126.435,130.202,126.747,129.239,126.438
		L129.239,126.438z M130.516,125.206c0.593-0.53,0.769-1.994,0.326-2.718c-0.537-0.88-1.041-0.938-1.814-0.207l-0.528,0.498
		l0.115,0.926c0.122,0.978,0.345,1.42,0.849,1.679C129.889,125.602,130.115,125.564,130.516,125.206L130.516,125.206z
		 M116.443,126.292c-0.189-0.228-0.169-5.182,0.023-5.413c0.16-0.193,0.501-0.193,0.661,0.002c0.071,0.083,0.169,0.493,0.22,0.908
		c0.134,1.083,0.353,1.077,1.395-0.037c1.037-1.109,1.393-1.215,1.617-0.482c0.06,0.194-0.076,0.409-0.63,0.996
		c-0.482,0.513-0.704,0.843-0.706,1.049c-0.001,0.186,0.271,0.664,0.71,1.253c0.621,0.832,0.706,1.009,0.674,1.398
		c-0.032,0.385-0.075,0.446-0.322,0.446c-0.303,0-1.07-0.861-1.526-1.713c-0.262-0.487-0.511-0.622-0.831-0.45
		c-0.243,0.13-0.297,0.304-0.392,1.268c-0.034,0.345-0.123,0.701-0.198,0.791C116.96,126.521,116.628,126.514,116.443,126.292
		L116.443,126.292z M133.126,125.808c-0.131-0.316-0.17-0.792-0.15-1.845c0.014-0.78,0.021-1.761,0.013-2.18
		c-0.024-1.375-0.105-1.305,1.415-1.214c2.252,0.134,2.646,0.473,2.481,2.131c-0.051,0.527-0.036,0.836,0.045,0.886
		c0.158,0.098,0.302,1.039,0.213,1.395c-0.039,0.15-0.189,0.412-0.336,0.582c-0.438,0.508-1.005,0.672-2.32,0.672h-1.182
		L133.126,125.808z M135.661,125.029c0.375-0.188,0.436-0.656,0.134-1.03c-0.201-0.248-0.314-0.28-0.902-0.255
		c-0.368,0.015-0.743,0.088-0.83,0.161c-0.194,0.162-0.205,0.578-0.023,0.977c0.119,0.263,0.206,0.299,0.732,0.297
		C135.099,125.178,135.499,125.111,135.661,125.029L135.661,125.029z M135.325,122.639c0.181-0.035,0.364-0.182,0.445-0.36
		c0.203-0.446-0.03-0.607-0.934-0.643l-0.759-0.03l-0.034,0.428c-0.029,0.337,0.021,0.468,0.233,0.62
		c0.158,0.111,0.368,0.161,0.505,0.117C134.911,122.731,135.155,122.671,135.325,122.639L135.325,122.639z M132.305,113.961
		c-0.055-0.113-0.101-1.576-0.101-3.251c0-3.042,0-3.046-0.256-3.083c-0.14-0.02-0.55,0.103-0.908,0.272
		c-0.758,0.359-1.017,0.345-1.117-0.06c-0.042-0.161-0.011-1.216,0.067-2.343c0.125-1.803,0.12-2.085-0.038-2.333l-0.179-0.282
		l-1.948,0.076c-2.287,0.089-2.597,0.154-2.807,0.59c-0.213,0.438-0.373,0.475-1.034,0.24c-0.312-0.11-0.937-0.233-1.387-0.271
		c-0.77-0.067-0.823-0.09-0.85-0.365c-0.042-0.432,0.175-0.637,1.172-1.104c1.271-0.594,1.625-0.605,1.908-0.057l0.188,0.362
		l1.426-0.089c0.785-0.049,1.829-0.077,2.321-0.063c0.661,0.02,0.937-0.018,1.066-0.147c0.144-0.145,0.178-0.71,0.194-3.317
		c0.011-1.729,0.05-3.381,0.087-3.671c0.077-0.626-0.099-0.843-0.847-1.042c-0.264-0.07-0.703-0.299-0.978-0.509
		c-0.272-0.209-0.67-0.513-0.882-0.674c-0.5-0.38-1.411-1.423-1.654-1.895c-0.498-0.963-1.004-3.055-0.919-3.794
		c0.022-0.19,0.096-0.971,0.164-1.736c0.066-0.764,0.151-1.436,0.187-1.493c0.036-0.057,0.109-0.75,0.164-1.539
		c0.169-2.438,0.462-5.619,0.588-6.366c0.065-0.393,0.119-0.972,0.119-1.289s0.112-1.367,0.247-2.333
		c0.135-0.967,0.264-2.452,0.286-3.301c0.021-0.848,0.092-1.745,0.155-1.991c0.064-0.248,0.172-1.161,0.24-2.031
		c0.362-4.648,0.488-6.126,0.593-7.03c0.064-0.548,0.172-1.655,0.242-2.461c0.068-0.806,0.18-2.071,0.244-2.812
		c0.065-0.741,0.137-1.611,0.157-1.934c0.033-0.513,0.156-1.9,0.361-4.042c0.034-0.354,0.105-1.409,0.158-2.343
		c0.132-2.299,0.482-3.375,1.396-4.291c0.425-0.425,0.786-0.671,1.116-0.76c0.983-0.267,1.105-0.341,1.174-0.73
		c0.036-0.204,0.068-1.18,0.068-2.167c0.003-0.988,0.031-1.842,0.065-1.898c0.067-0.107,0.079-2.22,0.03-4.976l-0.03-1.641
		l0.36-0.035c0.6-0.059,0.647,0.112,0.513,1.774c-0.065,0.814-0.113,2.602-0.105,3.971c0.008,1.371,0.004,2.808-0.01,3.194
		c-0.072,2.035-0.079,1.97,0.236,2.122c0.913,0.437,1.394,0.632,1.557,0.632c0.102,0,0.376,0.182,0.61,0.403
		c0.591,0.556,0.843,1.452,0.937,3.325c0.041,0.817,0.149,2.093,0.24,2.834c0.092,0.741,0.221,2.217,0.288,3.281
		c0.068,1.063,0.153,2.012,0.19,2.109c0.036,0.096,0.113,1.019,0.169,2.05c0.121,2.178,0.281,4.271,0.467,6.092
		c0.157,1.531,0.15,1.449,0.393,4.57c0.106,1.354,0.249,2.792,0.319,3.197c0.071,0.404,0.103,0.828,0.074,0.941
		c-0.029,0.114,0.019,0.916,0.106,1.784c0.089,0.867,0.213,2.263,0.274,3.1c0.064,0.837,0.174,2.156,0.245,2.929
		c0.073,0.773,0.126,1.583,0.117,1.801c-0.008,0.217,0.07,0.841,0.171,1.387c0.104,0.544,0.16,1.06,0.127,1.145
		c-0.061,0.16,0.166,3.36,0.402,5.644c0.17,1.661,0.021,2.652-0.606,3.991c-0.858,1.834-1.854,2.856-3.698,3.801
		c-0.792,0.404-0.996,0.564-1.087,0.855c-0.063,0.197-0.129,1.413-0.146,2.701c-0.05,3.625-0.034,4.127,0.126,4.32
		c0.12,0.145,0.583,0.18,2.628,0.199c1.364,0.013,2.64,0.018,2.833,0.012c0.193-0.006,0.792,0.042,1.332,0.108
		c0.865,0.105,1.005,0.096,1.2-0.081c0.122-0.11,0.221-0.268,0.221-0.35c0-0.507,1.687-0.044,2.177,0.597
		c0.155,0.206,0.283,0.454,0.283,0.553c0,0.288-0.327,0.481-0.786,0.464c-0.243-0.01-0.584,0.083-0.8,0.216
		c-0.544,0.337-0.889,0.292-1.169-0.154c-0.235-0.376-0.238-0.376-1.465-0.447c-0.675-0.039-1.359-0.102-1.521-0.14
		c-0.161-0.039-1.33-0.102-2.597-0.14c-1.816-0.056-2.324-0.039-2.4,0.081c-0.052,0.083-0.079,0.811-0.06,1.616
		c0.039,1.712,0.01,1.783-0.914,2.08c-0.496,0.159-0.658,0.271-0.721,0.499c-0.045,0.161-0.086,1.733-0.093,3.493
		c-0.007,1.959-0.059,3.289-0.133,3.427C132.693,114.222,132.438,114.232,132.305,113.961L132.305,113.961z M131.876,106.79
		c0.267-0.163,0.396-0.348,0.452-0.646c0.103-0.547-0.088-0.765-0.663-0.765c-0.546,0-0.813,0.324-0.771,0.938
		C130.943,107.069,131.21,107.196,131.876,106.79L131.876,106.79z M133.935,103.98c0.049-0.543,0.048-1.03-0.004-1.082
		s-0.26-0.126-0.461-0.167c-0.348-0.07-0.375-0.049-0.494,0.379c-0.303,1.089-0.044,1.964,0.558,1.894
		C133.835,104.97,133.848,104.937,133.935,103.98L133.935,103.98z M132.31,104.491c0.039-0.102,0.07-0.496,0.07-0.875
		c0-0.552-0.043-0.712-0.217-0.806c-0.257-0.137-1.023-0.037-1.17,0.152c-0.334,0.429-0.176,1.423,0.252,1.595
		S132.23,104.695,132.31,104.491L132.31,104.491z M132.243,101.542c0.085-0.389,0.144-1.443,0.14-2.49
		c-0.006-0.999,0.002-2.001,0.016-2.226c0.027-0.465,0.012-1.065-0.041-1.582c-0.029-0.283-0.114-0.378-0.446-0.491
		c-1.085-0.37-1.088-0.362-1.146,3.284c-0.064,3.95-0.021,4.128,0.976,4.166C132.083,102.215,132.104,102.188,132.243,101.542
		L132.243,101.542z M133.825,101.952c0.207-0.337,0.26-6.839,0.059-7.083c-0.148-0.178-0.639-0.202-0.741-0.036
		c-0.039,0.063-0.1,1.641-0.134,3.505c-0.061,3.321-0.059,3.395,0.182,3.634C133.502,102.282,133.625,102.279,133.825,101.952
		L133.825,101.952z M134.332,95.039c-0.031-0.081-0.06-0.015-0.06,0.146c0,0.162,0.028,0.228,0.06,0.146
		C134.364,95.251,134.364,95.12,134.332,95.039z M132.243,93.494c0.123-0.12,0.159-0.857,0.167-3.409
		c0.007-3.038,0.022-3.272,0.231-3.479c0.183-0.182,0.256-0.196,0.4-0.076c0.148,0.124,0.164,0.462,0.106,2.263
		c-0.038,1.164-0.097,2.565-0.129,3.113c-0.031,0.547-0.012,1.154,0.043,1.347c0.099,0.341,0.121,0.351,0.762,0.329
		c1.307-0.045,3.289-1.403,4.09-2.805c0.576-1.008,0.908-1.735,0.908-1.999c0.002-0.141,0.052-0.287,0.112-0.325
		c0.062-0.038,0.114-0.265,0.116-0.505c0.003-0.24,0.012-0.647,0.022-0.904c0.02-0.552-0.1-2.021-0.256-3.128
		c-0.062-0.431-0.109-1.133-0.109-1.559c0-0.427-0.052-1.26-0.113-1.852c-0.185-1.764-0.357-3.816-0.42-5.002
		c-0.073-1.375-0.255-3.775-0.405-5.332c-0.062-0.645-0.138-1.462-0.168-1.816c-0.031-0.355-0.086-0.803-0.12-0.996
		c-0.06-0.337-0.319-4.577-0.361-5.917c-0.012-0.354-0.083-1.356-0.158-2.226c-0.287-3.324-0.366-4.306-0.425-5.214
		c-0.033-0.515-0.108-1.412-0.168-1.992c-0.061-0.58-0.142-1.661-0.182-2.402c-0.04-0.742-0.126-1.822-0.191-2.402
		c-0.134-1.181-0.165-1.556-0.275-3.398c-0.043-0.708-0.13-1.493-0.195-1.744c-0.297-1.156-1.566-2.212-2.148-1.786
		c-0.212,0.154-0.223,0.452-0.261,6.708c-0.021,3.601-0.063,6.613-0.091,6.693c-0.057,0.161-0.48,0.201-0.572,0.054
		c-0.082-0.133-0.085-1.477-0.021-7.114c0.032-2.771,0.089-5.207,0.124-5.412c0.082-0.473-0.03-0.938-0.25-1.021
		c-0.268-0.103-1.073,0.275-1.391,0.655c-0.206,0.245-0.293,0.488-0.293,0.818c0,0.369-0.051,0.484-0.23,0.531
		c-0.303,0.08-0.443,0.571-0.529,1.852c-0.039,0.58-0.149,1.792-0.243,2.694c-0.095,0.902-0.226,2.405-0.29,3.34
		c-0.254,3.674-0.334,4.686-0.405,5.174c-0.04,0.279-0.094,0.798-0.118,1.152c-0.023,0.355-0.153,1.594-0.286,2.753
		c-0.134,1.16-0.296,3.111-0.362,4.336c-0.066,1.224-0.197,2.78-0.291,3.456c-0.272,1.98-0.274,2.014-0.459,4.659
		c-0.051,0.738-0.215,2.259-0.418,3.895c-0.109,0.869-0.29,3.156-0.262,3.292c0.009,0.038-0.064,0.803-0.162,1.698
		c-0.097,0.896-0.198,1.866-0.221,2.156c-0.022,0.29-0.128,1.186-0.233,1.992c-0.231,1.771-0.151,3.852,0.183,4.703
		c0.73,1.864,2.776,3.851,3.966,3.851c0.194,0,0.55,0.134,0.792,0.299C131.513,93.805,131.925,93.805,132.243,93.494L132.243,93.494
		z M132.286,85.085c-0.077-0.078-0.141-0.251-0.141-0.387c0-0.506,0.59-0.724,0.816-0.301c0.164,0.308,0.153,0.428-0.063,0.644
		C132.679,85.262,132.477,85.276,132.286,85.085L132.286,85.085z M132.218,80.505c-0.181-0.133-0.206-0.356-0.198-1.846
		c0.01-1.868,0.083-5.522,0.2-10.013c0.044-1.611,0.071-3.94,0.063-5.175c-0.013-1.973,0.009-2.276,0.188-2.498
		c0.128-0.158,0.274-0.224,0.396-0.177c0.209,0.08,0.215,1.057,0.038,6.326c-0.041,1.225-0.087,4.707-0.103,7.739
		c-0.016,3.031-0.067,5.575-0.115,5.653C132.577,80.695,132.476,80.693,132.218,80.505L132.218,80.505z M132.335,58.327
		c-0.158-0.409-0.072-0.757,0.217-0.889c0.514-0.234,0.832,0.277,0.526,0.847C132.932,58.558,132.433,58.585,132.335,58.327z
		 M127.107,91.67c0-0.065-0.053-0.118-0.116-0.118c-0.065,0-0.118,0.053-0.118,0.118c0,0.064,0.053,0.117,0.118,0.117
		C127.055,91.788,127.107,91.735,127.107,91.67z M69.448,112.335c-0.129-0.155-0.153-1.197-0.129-5.595
		c0.015-2.972,0.06-5.734,0.099-6.137c0.079-0.83-0.042-1.083-0.521-1.083c-0.165,0-0.427,0.118-0.581,0.264l-0.282,0.263
		l-0.236-0.292c-0.227-0.28-0.233-0.4-0.162-3.003l0.074-2.712l-0.269-0.067c-0.147-0.037-1.243-0.043-2.434-0.014
		c-2.139,0.053-7.59,0.057-15.464,0.011c-3.533-0.021-4.109-0.05-4.569-0.229c-1.281-0.498-2.167-1.446-2.583-2.763
		c-0.242-0.766-0.249-0.902-0.135-2.548c0.076-1.082,0.104-5.656,0.074-12.108c-0.052-11.367-0.083-20.157-0.08-22.614
		c0.001-0.87-0.003-3.506-0.012-5.859c-0.009-2.864,0.033-4.524,0.126-5.026c0.232-1.246,1.027-2.196,2.37-2.831l0.724-0.342
		l4.356-0.043c2.417-0.023,4.447,0.004,4.561,0.062c0.143,0.073,0.205,0.244,0.205,0.569v0.465l-1.201,0.003
		c-3.908,0.011-7.235,0.124-7.821,0.266c-0.736,0.179-1.55,0.654-1.817,1.063c-0.1,0.153-0.231,0.58-0.292,0.948
		c-0.105,0.645-0.162,9.638-0.117,18.575c0.012,2.352,0.019,6.28,0.015,8.729c-0.003,2.449,0.016,8.055,0.042,12.459
		c0.046,7.763,0.055,8.021,0.286,8.499c0.631,1.304,1.806,1.734,4.342,1.589c0.161-0.009,1.295,0,2.52,0.02
		c1.226,0.02,2.28,0.005,2.343-0.032c0.063-0.038,0.459-0.026,0.878,0.026c0.418,0.052,2.396,0.099,4.394,0.106
		c1.998,0.007,5.311,0.025,7.363,0.04c3.559,0.027,3.736,0.018,3.849-0.194c0.075-0.141,0.096-1.042,0.055-2.455
		c-0.038-1.354-0.018-2.316,0.051-2.446c0.129-0.241,0.562-0.29,0.599-0.067c0.013,0.081,0.026,1.206,0.029,2.5
		c0.003,1.851,0.04,2.397,0.17,2.555c0.15,0.181,0.42,0.196,2.812,0.153c3.788-0.068,7.428-0.102,9.325-0.087
		c3.687,0.029,11.748-0.115,12.173-0.218c0.443-0.108,1.476-0.971,1.479-1.236c0-0.067,0.084-0.28,0.189-0.474
		c0.402-0.751,0.478-2.799,0.438-12.068c-0.021-4.898-0.044-14.942-0.052-22.321c-0.008-7.609-0.06-13.599-0.119-13.838
		c-0.116-0.464-0.968-1.51-1.227-1.51c-0.09,0-0.336-0.105-0.547-0.234c-0.211-0.128-0.525-0.234-0.698-0.234
		c-0.174,0-0.463-0.059-0.646-0.129c-0.229-0.09-3.716-0.135-11.557-0.151c-9.28-0.019-11.268,0.005-11.455,0.137
		c-0.221,0.154-0.226,0.393-0.215,9.541c0.012,9.893,0.027,9.577-0.492,9.583c-0.408,0.004-0.438-0.245-0.389-3.165
		c0.058-3.445,0.158-11.396,0.176-13.994c0.012-1.686-0.008-1.885-0.202-2.027c-0.167-0.122-0.629-0.144-2.09-0.097
		c-1.031,0.033-3.875,0.075-6.321,0.093l-4.447,0.033l-0.096-0.457c-0.052-0.251-0.07-0.482-0.039-0.513
		c0.08-0.08,10.844-0.043,11.898,0.041c1.437,0.114,1.337,0.441,1.312-4.299c-0.012-2.215-0.054-4.297-0.092-4.626
		c-0.051-0.435-0.018-0.7,0.12-0.966c0.208-0.402,0.376-0.452,0.708-0.209c0.19,0.139,0.206,0.257,0.133,0.966
		c-0.158,1.523-0.212,8.57-0.068,8.84l0.133,0.248l7.226-0.065c3.975-0.036,9.315-0.07,11.867-0.076l4.643-0.01l0.763,0.36
		c1.061,0.501,1.732,1.132,2.245,2.11l0.435,0.826l-0.008,5.478c-0.011,6.292-0.001,15.204,0.028,30.961l0.021,11.072l-0.261,0.749
		c-0.355,1.016-0.622,1.416-1.37,2.054c-1.12,0.958-0.66,0.908-8.253,0.893c-3.712-0.007-8.595-0.037-10.851-0.064
		s-4.159-0.012-4.229,0.035c-0.301,0.198-0.429,0.729-0.5,2.069c-0.1,1.91-0.012,2.58,0.381,2.89
		c0.399,0.314,0.386,0.44-0.105,0.977l-0.41,0.449l-0.922-0.081c-0.71-0.062-0.934-0.045-0.975,0.072
		c-0.03,0.085-0.041,2.683-0.024,5.774c0.024,4.548-0.001,5.694-0.131,6.005C69.805,112.572,69.681,112.616,69.448,112.335
		L69.448,112.335z M70.839,99.147c-0.072-0.217-0.324-0.253-0.324-0.046c0,0.102,0.083,0.185,0.185,0.185
		C70.803,99.286,70.865,99.224,70.839,99.147L70.839,99.147z M69.226,98.349c0-0.064-0.05-0.117-0.11-0.117
		s-0.143,0.053-0.183,0.117c-0.04,0.064,0.01,0.117,0.11,0.117C69.144,98.466,69.226,98.413,69.226,98.349z M71.349,97.842
		c0.127-0.479,0.067-3.678-0.072-3.81c-0.064-0.061-0.282-0.145-0.483-0.188c-0.651-0.137-0.747,0.09-0.747,1.767
		c0,1.534,0.053,1.751,0.567,2.302C70.982,98.309,71.23,98.285,71.349,97.842z M69.358,97.1c0.236-0.286,0.191-2.813-0.055-3.059
		c-0.225-0.225-0.52-0.114-0.658,0.251c-0.06,0.156-0.125,0.82-0.145,1.477c-0.032,1.069-0.013,1.209,0.191,1.358
		C68.989,97.345,69.162,97.338,69.358,97.1L69.358,97.1z M69.414,86.212c-0.105-0.277-0.085-0.622,0.051-0.878
		c0.1-0.185,0.166-0.205,0.357-0.102c0.349,0.187,0.511,0.613,0.349,0.917C70.014,86.442,69.519,86.484,69.414,86.212z
		 M69.356,82.79c-0.071-0.132-0.076-1.443-0.014-3.544c0.054-1.834,0.104-5.569,0.11-8.3c0.007-2.73,0.04-5.011,0.075-5.067
		c0.095-0.155,0.472-0.123,0.617,0.052c0.163,0.196,0.157-0.485,0.076,8.804c-0.047,5.399-0.11,8.012-0.195,8.114
		C69.846,83.066,69.487,83.035,69.356,82.79L69.356,82.79z M69.347,63.792c-0.228-0.426-0.144-0.712,0.259-0.882
		c0.209-0.087,0.415-0.137,0.459-0.11c0.134,0.083,0.237,0.729,0.158,0.982C70.121,64.101,69.516,64.107,69.347,63.792
		L69.347,63.792z M55.284,40.41c-0.171-0.45-0.145-0.727,0.078-0.813c0.269-0.104,0.363,0.029,0.409,0.574
		c0.032,0.369-0.002,0.475-0.165,0.507C55.471,40.705,55.36,40.613,55.284,40.41L55.284,40.41z M45.402,10.986
		c-0.01-0.007-6.768-0.046-15.017-0.086c-16.162-0.078-18.915-0.132-19.411-0.383c-0.288-0.145-0.8-0.734-0.8-0.921
		c0-0.043,1.279-0.049,2.841-0.013c1.563,0.037,5.557,0.102,8.875,0.144c7.76,0.099,105.84,0.123,126.659,0.031
		c17.458-0.078,16.364-0.119,15.987,0.61c-0.095,0.183-0.272,0.386-0.395,0.452c-0.151,0.081-7.518,0.124-22.291,0.131
		C60.823,10.993,45.419,10.999,45.402,10.986z"/>
</g>
</svg>
