<?xml version="1.0" encoding="UTF-8" standalone="no"?>
<!-- Generator: Adobe Illustrator 15.0.2, SVG Export Plug-In . SVG Version: 6.00 Build 0)  -->

<svg
   xmlns:dc="http://purl.org/dc/elements/1.1/"
   xmlns:cc="http://creativecommons.org/ns#"
   xmlns:rdf="http://www.w3.org/1999/02/22-rdf-syntax-ns#"
   xmlns:svg="http://www.w3.org/2000/svg"
   xmlns="http://www.w3.org/2000/svg"
   xmlns:sodipodi="http://sodipodi.sourceforge.net/DTD/sodipodi-0.dtd"
   xmlns:inkscape="http://www.inkscape.org/namespaces/inkscape"
   version="1.1"
   id="Layer_1"
   x="0px"
   y="0px"
   width="176.16px"
   height="294.96px"
   viewBox="0 0 176.16 294.96"
   enable-background="new 0 0 176.16 294.96"
   xml:space="preserve"
   inkscape:version="0.48.4 r9939"
   sodipodi:docname="cfr14-control-knobs-ras.svg"><metadata
   id="metadata19"><rdf:RDF><cc:Work
       rdf:about=""><dc:format>image/svg+xml</dc:format><dc:type
         rdf:resource="http://purl.org/dc/dcmitype/StillImage" /><dc:title></dc:title></cc:Work></rdf:RDF></metadata><defs
   id="defs17" /><sodipodi:namedview
   pagecolor="#ffffff"
   bordercolor="#666666"
   borderopacity="1"
   objecttolerance="10"
   gridtolerance="10"
   guidetolerance="10"
   inkscape:pageopacity="0"
   inkscape:pageshadow="2"
   inkscape:window-width="1548"
   inkscape:window-height="952"
   id="namedview15"
   showgrid="false"
   inkscape:zoom="1.4773889"
   inkscape:cx="276.98946"
   inkscape:cy="117.25307"
   inkscape:window-x="0"
   inkscape:window-y="0"
   inkscape:window-maximized="0"
   inkscape:current-layer="Layer_1" />

<path
   style="fill:#000000"
   d="m 22.356628,262.17396 c -0.0373,-0.0373 -0.0447,-0.99354 -0.0164,-2.125 0.13924,-5.57368 0.1885,-10.14673 0.30059,-27.9072 0.0269,-4.2625 0.0803,-11.665 0.11868,-16.45 0.0384,-4.785 0.0676,-8.8125 0.065,-8.95 -0.0172,-0.89986 0.0193,-68.18156 0.0443,-81.5 0.0125,-6.67438 -0.0168,-11.30954 -0.0729,-11.54747 -0.0516,-0.21861 -0.0559,-0.42111 -0.01,-0.45 0.0463,-0.0289 0.11712,-6.69003 0.15735,-14.802528 0.0402,-8.112497 0.0901,-17.584997 0.11078,-21.049997 0.0207,-3.465 0.0382,-6.4125 0.0388,-6.55 0.004,-0.900412 -0.0799,-23.899316 -0.0882,-24.1 -0.006,-0.1375 0.0105,-1.915 0.036,-3.95 0.0256,-2.035 0.0497,-4.0825 0.0538,-4.55 0.0122,-1.419464 -0.10342,-8.987268 -0.15241,-9.975 -0.0549,-1.106032 0.0332,-1.166878 0.70969,-0.490384 l 0.43462,0.434615 -0.005,4.815385 c -0.003,2.648461 -0.019,4.815384 -0.0363,4.815384 -0.0173,0 -0.16044,-0.06722 -0.31798,-0.149384 -0.41522,-0.216553 -0.56942,-0.199105 -0.43643,0.04938 0.0589,0.11 0.19775,0.2 0.30862,0.2 0.1372,0 0.24998,0.115828 0.35311,0.362654 0.13362,0.319801 0.14462,1.770263 0.0931,12.275 -0.0909,18.522058 -0.1445,34.07773 -0.20687,60.012345 -0.0316,13.145 -0.0776,25.205 -0.10219,26.8 -0.0246,1.595 -0.0337,5.8925 -0.0202,9.55 0.0386,10.48809 -0.0234,83.18943 -0.0731,85.8 -0.0246,1.2925 -0.0702,7.66 -0.10118,14.15 -0.031,6.49 -0.0827,12.40263 -0.11479,13.13917 l -0.0584,1.33917 -0.40173,0.43583 c -0.40655,0.44105 -0.48839,0.49037 -0.61072,0.36803 z m 1.73446,-1.06212 c 0,-0.072 0.14955,-0.2758 0.33234,-0.45296 l 0.33234,-0.32212 2.94266,-0.0459 c 5.32983,-0.0831 38.65685,-0.14613 82.709842,-0.15651 l 43.36719,-0.0102 0.44933,0.26332 c 0.54782,0.32105 0.7222,0.50792 0.56475,0.60523 -0.0947,0.0585 -21.16796,0.0802 -49.04845,0.0505 -13.316752,-0.0142 -70.669502,0.0983 -76.225002,0.14944 -4.42803,0.0408 -5.425,0.0259 -5.425,-0.0809 z m 131.170372,-1.04508 -0.4433,-0.375 -0.043,-1.1 c -0.14164,-3.62661 -0.15731,-99.37416 -0.018,-110.25 0.0349,-2.7225 0.0647,-5.175 0.0662,-5.45 0.002,-0.275 -0.003,-10.085 -0.011,-21.8 -0.0226,-34.960263 0.0886,-82.593492 0.21701,-92.891726 l 0.0273,-2.191732 0.39217,-0.333312 c 0.65313,-0.555107 0.69507,-0.485314 0.67253,1.119049 -0.03,2.13812 -0.125,15.038135 -0.18622,25.297726 -0.0302,5.06 -0.0747,21.4625 -0.0989,36.45 -0.0242,14.987495 -0.0661,37.577495 -0.0932,50.199995 -0.0473,22.08684 -0.0693,45.25054 -0.068,71.8 0,6.9025 0.001,12.6175 0.002,12.7 0.001,0.0825 0.0242,5.37 0.0514,11.75 0.0272,6.38 0.0775,13.535 0.11169,15.9 0.1377,9.51819 0.13769,9.55 -0.004,9.55 -0.0727,0 -0.33163,-0.16875 -0.57544,-0.375 z M 39.837618,245.44669 c -0.46317,-0.18793 -0.48421,-0.29871 -0.49676,-2.61492 -0.0106,-1.96448 0.006,-2.20968 0.16173,-2.35042 0.23174,-0.20972 0.50381,-0.14379 0.66553,0.1613 0.0976,0.18415 0.12002,0.59215 0.0859,1.56465 -0.0478,1.36425 0.028,2.00376 0.25483,2.14756 0.18714,0.11865 1.51598,0.10714 1.83971,-0.0159 0.53523,-0.2035 0.86864,0.47672 0.44252,0.90284 -0.17664,0.17665 -0.33333,0.2 -1.34182,0.2 -0.628,0 -1.20175,0.0197 -1.275,0.0438 -0.0732,0.0241 -0.22474,0.007 -0.33665,-0.0388 z m 8.96409,-0.0421 c -0.0798,-0.0962 -0.10475,-0.81085 -0.0833,-2.38933 0.031,-2.28663 0.0786,-2.57346 0.4273,-2.57346 0.27772,0 0.74975,0.54166 1.20023,1.3773 0.67326,1.2489 0.83274,1.45753 1.00496,1.3146 0.10447,-0.0867 0.14024,-0.39173 0.14024,-1.19597 0,-0.59376 0.0273,-1.15075 0.0607,-1.23775 0.0845,-0.22025 0.51087,-0.19815 0.63452,0.0329 0.0583,0.10902 0.0979,0.84986 0.0921,1.725 -0.006,0.84366 0.0208,1.73643 0.0586,1.98393 0.0842,0.55072 -0.0656,1 -0.33338,1 -0.293,0 -1.13874,-0.99438 -1.66168,-1.95374 -0.33532,-0.61514 -0.51467,-0.84862 -0.63418,-0.82559 -0.14476,0.0279 -0.16802,0.20413 -0.1771,1.34174 -0.006,0.72029 -0.0422,1.36091 -0.0809,1.4236 -0.0975,0.15781 -0.51005,0.14303 -0.64803,-0.0232 z m -1.4903,-0.0691 c -0.12633,-0.0499 -0.27473,-0.21995 -0.32979,-0.37788 -0.14674,-0.42095 -0.46288,-0.54726 -1.24513,-0.49745 -0.56955,0.0363 -0.69982,0.0801 -0.85361,0.28721 -0.40808,0.54958 -0.48567,0.60472 -0.69408,0.49318 -0.13532,-0.0724 -0.19771,-0.20942 -0.19771,-0.43414 0,-0.39681 0.24854,-1.31024 0.46048,-1.69235 0.21292,-0.38388 0.73952,-1.96384 0.73952,-2.21879 0,-0.29455 0.27584,-0.65349 0.50219,-0.65349 0.41202,0 0.85754,0.55746 1.1374,1.42321 0.14699,0.45473 0.30512,0.91679 0.35139,1.02679 0.25612,0.60894 0.34814,0.85467 0.51979,1.38803 0.23373,0.7263 0.23572,0.88581 0.0142,1.14312 -0.1369,0.15903 -0.22502,0.18354 -0.40469,0.11256 z m -0.97023,-1.95809 c 0.17557,-0.17557 0.15739,-0.35397 -0.0985,-0.96646 -0.0848,-0.20304 -0.21999,-0.36916 -0.30034,-0.36916 -0.34058,0 -0.60588,1.10534 -0.33122,1.38 0.17071,0.17071 0.53729,0.14843 0.73009,-0.0444 z m 8.01937,1.96074 c -0.34422,-0.2145 -0.39875,-0.58964 -0.37737,-2.59636 0.0259,-2.43211 -0.0491,-2.3125 1.38568,-2.20903 1.22485,0.0883 1.43199,0.20578 1.87223,1.06166 0.26908,0.52311 0.29981,0.67673 0.29815,1.4903 -0.002,0.87772 -0.0136,0.92437 -0.36628,1.44155 -0.20043,0.29396 -0.46,0.60141 -0.5768,0.68323 -0.27364,0.19166 -1.97718,0.2897 -2.23561,0.12865 z m 1.74075,-1.12482 c 0.40725,-0.27382 0.57646,-0.71023 0.58415,-1.50654 0.005,-0.53543 -0.0232,-0.61381 -0.33436,-0.925 -0.29716,-0.29716 -0.40381,-0.34 -0.84648,-0.34 -0.41827,0 -0.52683,0.038 -0.6233,0.21827 -0.14574,0.27233 -0.0683,2.24895 0.10045,2.56429 0.15678,0.29294 0.67506,0.28784 1.11954,-0.011 z m 45.753672,1.08531 c -0.49214,-0.14927 -0.97372,-0.60746 -1.25999,-1.19881 -0.31398,-0.64861 -0.32981,-1.9321 -0.0309,-2.50804 0.38815,-0.74796 1.01272,-1.16881 1.76164,-1.18703 0.47589,-0.0116 0.58142,0.0267 0.98522,0.35728 0.55199,0.45191 0.90906,1.29376 0.90158,2.12563 -0.005,0.59701 -0.45604,1.68913 -0.85225,2.06528 -0.40129,0.38096 -0.96339,0.51005 -1.50527,0.34569 z m 1.02892,-1.18099 c 0.41092,-0.43969 0.56247,-0.82497 0.4348,-1.10537 -0.0552,-0.12127 -0.0798,-0.36079 -0.0546,-0.53226 0.0528,-0.35951 -0.18375,-0.88342 -0.46747,-1.03527 -0.28382,-0.15189 -0.82934,-0.12516 -1.08386,0.0531 -0.68464,0.47954 -0.68504,1.96519 -7e-4,2.64952 0.40081,0.40081 0.7784,0.39123 1.17183,-0.0297 z m 8.4572,1.20867 c -0.42409,-0.23196 -0.45,-0.35529 -0.45,-2.14198 0,-1.93129 0.0408,-1.83793 -0.805,-1.84118 -0.43812,-0.002 -0.595,-0.14825 -0.595,-0.55587 0,-0.44685 0.31467,-0.71648 0.65511,-0.56137 0.15242,0.0694 0.79234,0.11587 1.59729,0.11587 1.32795,0 1.34485,0.003 1.50948,0.2541 0.13332,0.20348 0.14417,0.30308 0.0544,0.5 -0.0991,0.21742 -0.17517,0.2459 -0.65704,0.2459 -0.86414,0 -0.8768,0.0296 -0.8497,1.98999 0.0158,1.1407 -0.0146,1.73255 -0.0968,1.88616 -0.0659,0.12312 -0.12946,0.22248 -0.14128,0.22081 -0.0118,-0.002 -0.11148,-0.0523 -0.22148,-0.11243 z m -51.810032,-0.0611 c -0.2895,-0.19331 -0.33225,-0.54042 -0.30902,-2.50894 0.021,-1.78227 0.0442,-2.03221 0.20285,-2.18831 0.45586,-0.44852 0.65029,0.5822 0.67923,3.60062 0.01,1.02972 -0.16683,1.36787 -0.57306,1.09663 z m 2.17592,-0.14847 c -0.13941,-0.26602 -0.13845,-0.23237 -0.0715,-2.5036 0.0537,-1.82309 0.12548,-2.1714 0.44726,-2.1714 0.213,0 0.71546,0.48236 0.91537,0.87876 0.0752,0.14918 0.31443,0.57569 0.53153,0.94781 0.71381,1.22346 0.86145,1.16838 0.86145,-0.32139 0,-0.92344 0.0285,-1.11781 0.19374,-1.3191 0.15779,-0.19229 0.22736,-0.21551 0.375,-0.12521 0.16494,0.10089 0.18251,0.299 0.19515,2.2 0.0133,2.00715 -0.0371,2.43913 -0.28466,2.43913 -0.2214,0 -1.23482,-1.14221 -1.63359,-1.84121 -0.28472,-0.49905 -0.46226,-0.70879 -0.6,-0.70879 -0.18368,0 -0.19572,0.0764 -0.19702,1.25 -8e-4,0.6875 -0.0372,1.30625 -0.0809,1.375 -0.13099,0.20591 -0.52304,0.14576 -0.65183,-0.1 z m 5.72864,0.13451 c -0.66867,-0.28839 -1.26057,-1.53356 -1.27064,-2.67306 -0.005,-0.60062 0.0362,-0.78604 0.26213,-1.17161 0.14764,-0.25193 0.43169,-0.58258 0.63121,-0.73476 0.30614,-0.23351 0.46049,-0.27696 0.98879,-0.27839 0.53705,-0.002 0.68769,0.0415 1.06,0.30227 0.36668,0.25683 0.43893,0.36381 0.4659,0.68983 0.0515,0.62313 -0.2802,0.72721 -0.81664,0.25621 -0.79289,-0.69617 -1.76528,-0.0987 -1.76528,1.08458 0,0.78916 0.59204,1.71542 1.09646,1.71542 0.64509,0 0.97278,-0.69802 0.42854,-0.91283 -0.48365,-0.19089 -0.57428,-0.25495 -0.60876,-0.43033 -0.0934,-0.47504 0.60748,-0.69092 1.38376,-0.4262 0.34411,0.11735 0.35115,0.13102 0.41845,0.812 0.0804,0.81328 -0.0298,1.10333 -0.57812,1.52152 -0.27566,0.21025 -0.49216,0.28145 -0.92511,0.30423 -0.31087,0.0163 -0.65768,-0.0101 -0.77069,-0.0589 z m 8.36944,0.0185 c -0.37234,-0.0706 -1.06257,-0.8323 -1.24835,-1.37754 -0.22269,-0.65355 -0.21189,-1.68889 0.023,-2.20602 0.38177,-0.84051 1.32377,-1.36593 2.13421,-1.19041 0.32185,0.0697 0.85656,0.38561 1.00065,0.59117 0.12631,0.18022 0.0833,0.62469 -0.073,0.7544 -0.12112,0.10052 -0.19957,0.0886 -0.41323,-0.0628 -0.7234,-0.51247 -1.01783,-0.52795 -1.59975,-0.0841 -0.43768,0.33383 -0.52757,0.80419 -0.28826,1.50825 0.24281,0.71431 0.64277,1.13946 1.0701,1.13748 0.38334,-0.002 0.51825,-0.0756 0.61465,-0.33614 0.0824,-0.22276 -0.089,-0.46233 -0.33076,-0.46233 -0.25908,0 -0.53243,-0.35053 -0.45749,-0.58666 0.0799,-0.25189 0.6698,-0.45523 1.08163,-0.37286 0.52737,0.10547 0.67261,0.31743 0.67261,0.98159 0,0.67843 -0.0847,0.88259 -0.58212,1.40293 -0.32723,0.34231 -0.40246,0.37381 -0.86318,0.36138 -0.27759,-0.007 -0.61092,-0.0338 -0.74074,-0.0584 z m 3.93603,-10e-4 c -0.40979,-0.0238 -0.63963,-0.0873 -0.725,-0.2002 -0.15022,-0.1987 -0.1774,-4.38943 -0.03,-4.62248 0.0745,-0.11784 0.35357,-0.14049 1.47347,-0.11964 0.75983,0.0142 1.46016,0.0488 1.55628,0.077 0.0961,0.0282 0.20321,0.16462 0.23796,0.30311 0.11029,0.4394 -0.1084,0.53483 -1.28888,0.56245 -1.19584,0.028 -1.38051,0.10878 -1.19236,0.52172 0.13997,0.30721 0.4811,0.4507 1.0715,0.4507 0.34035,0 0.46467,0.0461 0.54903,0.20378 0.15103,0.28219 0.0304,0.59441 -0.23376,0.60485 -0.996,0.0394 -1.21237,0.0796 -1.33585,0.24852 -0.19963,0.27301 -0.16059,0.52376 0.12622,0.81057 0.25013,0.25013 0.28969,0.257 1.20383,0.20919 0.85691,-0.0448 0.95477,-0.0316 1.04754,0.14177 0.17374,0.32464 0.0703,0.71506 -0.21,0.7924 -0.25707,0.0709 -1.19259,0.0777 -2.25,0.0162 z m 11.67975,-0.007 c -0.0661,-0.042 -0.25627,-0.4126 -0.42251,-0.82347 -0.33606,-0.83055 -0.67457,-1.19703 -1.10567,-1.19703 -0.46534,0 -0.60157,0.22457 -0.60157,0.99164 0,0.56064 -0.0361,0.71004 -0.20954,0.86699 -0.2065,0.18688 -0.2123,0.18622 -0.39982,-0.0453 -0.17395,-0.21483 -0.18974,-0.41413 -0.18403,-2.32341 0.005,-1.66052 0.0352,-2.11741 0.14767,-2.22986 0.14018,-0.14018 0.26771,-0.14126 1.90796,-0.0162 1.39498,0.10639 1.94359,1.07707 1.23776,2.19004 -0.165,0.26018 -0.29978,0.55024 -0.29951,0.64458 3e-4,0.0943 0.16093,0.48419 0.35703,0.86633 0.2949,0.57466 0.33841,0.7346 0.25166,0.925 -0.10563,0.23182 -0.43639,0.30519 -0.67943,0.1507 z m -0.40475,-3.1012 c 0.2274,-0.1953 0.2208,-0.33243 -0.0289,-0.60044 -0.35377,-0.37973 -1.6961,-0.25594 -1.6961,0.15641 0,0.37914 0.28135,0.61249 0.77688,0.64433 0.55548,0.0357 0.71179,0.003 0.94812,-0.2003 z m 6.6435,3.07878 c -0.46158,-0.13816 -0.90582,-0.54132 -1.20775,-1.09607 -0.22472,-0.41288 -0.29481,-0.69327 -0.33522,-1.34095 -0.0568,-0.9097 0.0826,-1.32169 0.67554,-1.997 0.28248,-0.32173 0.42557,-0.38171 1.25972,-0.52809 0.70608,-0.1239 1.69985,0.78192 1.45278,1.32419 -0.17967,0.39434 -0.37879,0.39454 -0.81458,0.001 -0.45672,-0.41262 -0.62139,-0.43804 -1.06913,-0.16503 -0.46624,0.28428 -0.66424,0.72565 -0.57972,1.29222 0.24858,1.66629 1.37976,2.06711 1.85176,0.65616 0.20258,-0.60556 0.40987,-0.75518 0.69225,-0.49963 0.2781,0.25169 0.2609,0.65762 -0.058,1.36819 -0.36949,0.82332 -1.10763,1.21269 -1.86767,0.98519 z m 19.692472,-0.12308 c -0.079,-0.12375 -0.26435,-0.5175 -0.41188,-0.875 -0.33945,-0.8225 -0.59084,-1.1 -0.99652,-1.1 -0.45619,0 -0.55257,0.15659 -0.55257,0.89775 0,0.72188 -0.17536,1.10225 -0.50815,1.10225 -0.31213,0 -0.41019,-0.44239 -0.39902,-1.8 0.0261,-3.16922 0.0235,-3.16035 0.90193,-3.04554 0.30538,0.0399 0.86099,0.0817 1.23468,0.0928 0.88417,0.0264 1.15414,0.21905 1.38188,0.98622 0.0926,0.31196 0.13079,0.59044 0.0849,0.61884 -0.046,0.0284 -0.2029,0.30395 -0.3488,0.61234 l -0.26526,0.56072 0.30895,0.67026 c 0.36122,0.78369 0.38191,1.03134 0.10894,1.30431 -0.25686,0.25686 -0.36221,0.25197 -0.53903,-0.025 z m -0.36097,-2.97468 c 0.23622,-0.23622 0.25048,-0.39274 0.0596,-0.65382 -0.19461,-0.26615 -1.36545,-0.28254 -1.62561,-0.0228 -0.2778,0.27741 -0.076,0.70944 0.36817,0.78841 0.68384,0.12155 0.99338,0.0926 1.19787,-0.11184 z m -11.9738,2.825 c -0.15288,-0.4503 -0.0989,-4.26691 0.0631,-4.46212 0.38059,-0.45859 0.94655,-0.0171 1.59875,1.2472 0.48801,0.946 0.73287,1.25059 0.91491,1.13808 0.0866,-0.0535 0.10753,-0.27256 0.0706,-0.73713 -0.0724,-0.91071 0.10839,-1.75131 0.38518,-1.79086 0.11481,-0.0164 0.25519,0.0286 0.31194,0.1 0.06,0.0754 0.12563,1.06002 0.15674,2.35048 0.0556,2.30652 0.0238,2.51948 -0.35485,2.37418 -0.26375,-0.10121 -1.146,-1.22206 -1.57819,-2.00499 -0.33849,-0.6132 -0.45407,-0.74548 -0.6295,-0.72047 -0.20784,0.0296 -0.21369,0.0676 -0.17829,1.15547 0.0299,0.91767 0.006,1.17092 -0.1273,1.375 -0.21944,0.3349 -0.5149,0.32331 -0.6331,-0.0248 z m 15.15432,0.19297 c -0.27365,-0.10975 -1.06812,-1.20393 -1.20079,-1.65379 -0.38143,-1.2933 0.12547,-2.58717 1.20688,-3.08056 1.56394,-0.71353 3.04675,1.10143 2.50223,3.06276 -0.1777,0.64005 -0.7482,1.44685 -1.13839,1.60988 -0.35555,0.14856 -1.07282,0.18087 -1.36993,0.0617 z m 1.18504,-1.17306 c 0.18394,-0.1403 0.33444,-0.34014 0.33444,-0.4441 0,-0.10395 0.045,-0.21682 0.1,-0.25081 0.1763,-0.10896 0.11234,-1.03378 -0.10033,-1.45064 -0.35337,-0.69266 -0.95778,-0.80563 -1.54619,-0.289 -0.31983,0.28081 -0.35348,0.36003 -0.35348,0.83219 0,0.99511 0.47775,1.85745 1.02905,1.85745 0.11114,0 0.35257,-0.11479 0.53651,-0.25509 z m 18.55608,1.09899 c -0.12257,-0.0858 -0.45355,-0.6146 -0.7355,-1.175 -0.28195,-0.56039 -0.56191,-1.11572 -0.62213,-1.23405 -0.1321,-0.25958 -0.43589,-0.46403 -0.56808,-0.38234 -0.0528,0.0326 -0.0959,0.6098 -0.0959,1.28339 0,1.25332 -0.0587,1.4641 -0.40776,1.4641 -0.38653,0 -0.42155,-0.21968 -0.40219,-2.52247 0.0189,-2.24794 0.0562,-2.47753 0.40258,-2.47753 0.2916,0 1.09579,0.99749 1.59888,1.9832 0.19851,0.38894 0.5744,0.78423 0.66223,0.6964 0.0289,-0.0289 0.0686,-0.58736 0.0884,-1.24106 0.0197,-0.6537 0.0682,-1.26729 0.10758,-1.36354 0.0829,-0.20222 0.47762,-0.23362 0.62857,-0.05 0.14504,0.17644 0.15075,4.86954 0.006,5.04379 -0.14514,0.17489 -0.3907,0.16567 -0.66276,-0.0249 z m 3.02836,-0.046 c -0.8459,-0.44407 -1.38579,-1.45959 -1.36311,-2.56403 0.0156,-0.75877 0.27211,-1.38726 0.75943,-1.86054 0.46926,-0.45574 1.31294,-0.59691 1.90064,-0.31803 0.72294,0.34306 1.25304,1.32676 1.25304,2.32524 0,1.69511 -1.39917,3.0215 -2.55,2.41736 z m 0.84559,-0.9955 c 0.10034,-0.0537 0.32238,-0.30891 0.49342,-0.56714 0.24577,-0.37104 0.31091,-0.57602 0.31062,-0.97736 0,-0.56098 -0.24481,-1.06797 -0.60869,-1.26271 -0.23303,-0.12471 -0.95293,-0.0732 -1.10523,0.0791 -0.0495,0.0495 -0.16095,0.36939 -0.24759,0.71078 -0.14527,0.57241 -0.14445,0.65354 0.0105,1.04282 0.21521,0.54057 0.61829,1.07211 0.81301,1.07211 0.0833,0 0.23359,-0.0439 0.33393,-0.0976 z m -56.989122,0.93107 c -0.11356,-0.0795 -0.20647,-0.20406 -0.20647,-0.27671 0,-0.0726 -0.0667,-0.18747 -0.14831,-0.25517 -0.16482,-0.13679 -1.57764,-0.32354 -1.80054,-0.238 -0.0781,0.03 -0.23431,0.21103 -0.34722,0.4024 -0.15307,0.25944 -0.26234,0.33983 -0.42961,0.31607 -0.39984,-0.0568 -0.33627,-0.54216 0.32868,-2.50936 0.68282,-2.02009 0.80623,-2.27251 1.11107,-2.27251 0.26371,0 0.98593,0.71108 0.98593,0.97072 0,0.1957 0.3017,1.11244 0.70076,2.12928 0.29053,0.74031 0.46758,1.41427 0.42419,1.61474 -0.0497,0.2295 -0.37189,0.29125 -0.61848,0.11854 z m -0.90307,-1.93473 c 0.0367,-0.1383 0.005,-0.46455 -0.0714,-0.725 -0.22493,-0.7714 -0.68258,-0.55959 -0.86503,0.40036 -0.0978,0.5146 -10e-4,0.64078 0.46401,0.60622 0.33699,-0.025 0.41697,-0.0727 0.47239,-0.28158 z m 37.739372,1.8932 c -0.17978,-0.1989 -0.19107,-0.36128 -0.16759,-2.40942 0.0145,-1.26835 0.0688,-2.27773 0.12852,-2.38924 0.0596,-0.1113 0.20865,-0.19309 0.35196,-0.19309 0.37328,0 0.50264,0.36814 0.37861,1.07749 -0.12985,0.74268 -0.0296,2.76796 0.14572,2.94283 0.14631,0.14596 0.87527,0.16256 1.737,0.0396 0.56552,-0.0807 0.56741,-0.0801 0.72907,0.23249 0.13757,0.26603 0.14237,0.35456 0.0318,0.58552 l -0.13029,0.2721 -1.50601,0.0275 c -1.42849,0.0261 -1.51593,0.0165 -1.69878,-0.18576 z m 11.80798,-0.0168 c -0.0872,-0.12375 -0.34158,-0.5175 -0.56524,-0.875 -0.50228,-0.80285 -0.76991,-1.1 -0.9907,-1.1 -0.29436,0 -0.40374,0.25845 -0.44387,1.04887 -0.0432,0.85078 -0.16075,1.07575 -0.53882,1.03119 -0.33882,-0.0399 -0.37606,-0.28166 -0.31279,-2.03006 0.0279,-0.77 0.0253,-1.67 -0.006,-2 -0.0576,-0.61273 0.0636,-1.15 0.25952,-1.15 0.19063,0 0.54641,0.3993 0.56036,0.6289 0.007,0.1216 0.004,0.40406 -0.007,0.62767 -0.0221,0.4309 0.16009,0.69412 0.40635,0.58699 0.0757,-0.0329 0.42436,-0.39423 0.77475,-0.80285 0.35039,-0.40863 0.74404,-0.76981 0.87478,-0.80262 0.38517,-0.0967 0.53814,0.0198 0.53814,0.40964 0,0.28992 -0.0996,0.46232 -0.55,0.95227 -0.3025,0.32904 -0.55,0.65774 -0.55,0.73044 0,0.13857 0.69878,1.34813 1.01565,1.75805 0.18194,0.23536 0.24181,0.74541 0.12365,1.05333 -0.0881,0.22972 -0.40488,0.19376 -0.58855,-0.0668 z m 11.07566,-0.24811 c -0.15751,-0.24143 -0.17262,-0.49572 -0.14103,-2.37364 0.0195,-1.15679 0.0727,-2.1735 0.11841,-2.25936 0.0686,-0.12898 0.24497,-0.14926 1.01462,-0.11667 1.06209,0.045 1.53209,0.14675 1.8626,0.40336 0.31355,0.24343 0.43489,0.83529 0.29526,1.4402 -0.10063,0.43594 -0.0891,0.52192 0.11983,0.89366 0.44832,0.79767 0.20773,1.64143 -0.56563,1.98377 -0.2803,0.12407 -0.76937,0.20452 -1.47359,0.24239 l -1.05405,0.0567 -0.17642,-0.27039 z m 2.24637,-1.09113 c 0.16651,-0.22772 0.16155,-0.48278 -0.0122,-0.62697 -0.21871,-0.18151 -1.13042,-0.25832 -1.30881,-0.11026 -0.18343,0.15222 -0.20024,0.71136 -0.0268,0.89073 0.18153,0.18772 1.18156,0.0738 1.34778,-0.1535 z m -0.0644,-1.9471 c 0.0851,-0.13557 0.0323,-0.47314 -0.0946,-0.6048 -0.0351,-0.0364 -0.33194,-0.0814 -0.65971,-0.1 -0.57724,-0.0328 -0.59914,-0.0249 -0.69798,0.25161 -0.0889,0.24865 -0.0702,0.31125 0.14489,0.48542 0.19515,0.15802 0.34901,0.19015 0.73365,0.15319 0.26769,-0.0257 0.52588,-0.10916 0.57377,-0.18542 z m -22.74568,-11.90151 c -0.17665,-0.10455 -0.18323,-0.21712 -0.11561,-1.97896 0.059,-1.53676 0.0471,-1.88855 -0.0672,-1.98335 -0.0764,-0.0634 -0.47435,-0.12866 -0.88439,-0.14504 l -0.74553,-0.0298 -0.007,-5.6 c -0.005,-3.83639 -0.0418,-5.66299 -0.11637,-5.8 -0.0606,-0.11124 -0.39012,-0.30455 -0.74255,-0.43559 -0.3485,-0.12957 -0.82099,-0.36582 -1.04998,-0.525 -0.22899,-0.15917 -0.46872,-0.28941 -0.53274,-0.28941 -0.064,0 -0.57547,-0.46125 -1.13657,-1.025 -0.83544,-0.8394 -1.09733,-1.17892 -1.44625,-1.875 -0.77443,-1.54498 -0.90808,-2.25358 -1.02788,-5.45 -0.0577,-1.54 -0.0781,-3.0925 -0.0453,-3.45 0.0328,-0.3575 0.063,-2.7484 0.0673,-5.31312 0.008,-4.84789 -0.0189,-5.19002 -0.39478,-5.03209 -0.25367,0.10658 -1.90561,0.20264 -3.41733,0.19872 l -1.35,-0.004 -0.033,-0.28915 c -0.0187,-0.16359 0.0247,-0.32673 0.1,-0.3757 0.1243,-0.0809 2.00892,-0.048 4.00278,0.0698 0.81321,0.0481 0.87721,0.0375 0.98423,-0.16246 0.0828,-0.15472 0.10873,-1.78056 0.0938,-5.8782 -0.0317,-8.6884 -0.0159,-10.39365 0.0987,-10.60773 0.0569,-0.1064 0.10353,-0.30756 0.10353,-0.44704 0,-0.24105 0.2728,-0.82225 0.88803,-1.89198 0.31553,-0.54863 1.24236,-1.55397 1.89621,-2.05684 0.99651,-0.76641 2.53183,-1.40699 3.74586,-1.56288 0.59858,-0.0769 0.68998,-0.26802 0.66815,-1.39741 -0.008,-0.44025 -0.002,-1.22795 0.0143,-1.75045 0.0164,-0.5225 0.0154,-2.19525 -0.002,-3.71723 -0.0175,-1.52198 -0.002,-2.81573 0.0348,-2.875 0.10862,-0.17575 0.53967,-0.1229 0.64796,0.0795 0.0641,0.1197 0.0668,0.30385 0.007,0.51059 -0.10298,0.35904 -0.13317,7.67174 -0.0348,8.43571 0.0763,0.59235 0.15484,0.63364 1.43421,0.75363 2.00925,0.18844 3.47145,1.05004 4.85255,2.85938 0.70213,0.91985 1.16998,2.03121 1.45187,3.44888 0.1794,0.90222 0.20675,1.37358 0.19172,3.30348 -0.0616,7.90356 -0.0509,12.57365 0.0291,12.73484 0.0873,0.17596 0.30799,0.18111 5.2145,0.12171 4.97916,-0.0603 5.12826,-0.0566 5.2983,0.13132 0.16746,0.18503 0.16503,0.20278 -0.0565,0.41327 -0.20999,0.1995 -0.3012,0.21445 -0.9815,0.16079 -0.4125,-0.0325 -2.67819,-0.0614 -5.03488,-0.064 -3.24899,-0.004 -4.32069,0.0248 -4.43303,0.11807 -0.12811,0.10632 -0.14024,0.65152 -0.0897,4.02905 0.0322,2.14835 0.0676,5.90884 0.0788,8.35665 0.0196,4.29019 0.0129,4.46676 -0.18382,4.9 -0.11227,0.24719 -0.30375,0.74194 -0.42551,1.09944 -0.68409,2.00844 -2.29578,3.51857 -4.64344,4.35084 -0.32215,0.11421 -0.51119,0.24862 -0.57104,0.40602 -0.0492,0.12942 -0.0843,2.13832 -0.0781,4.46422 0.009,3.26226 0.0422,4.31751 0.14604,4.61649 0.17797,0.51225 0.16997,0.90778 -0.0267,1.32232 -0.15952,0.33615 -0.16912,0.34013 -0.825,0.34164 -0.36499,0.001 -0.73111,0.0443 -0.81361,0.0965 -0.12632,0.08 -0.15,0.46259 -0.15,2.42347 0,2.25382 -0.006,2.32926 -0.2,2.35249 -0.11,0.0132 -0.28429,-0.0259 -0.3873,-0.0868 z m -0.18259,-5.24567 c 0.0405,-0.41488 -0.19243,-0.61353 -0.53588,-0.45705 -0.13741,0.0626 -0.27654,0.18341 -0.30916,0.26843 -0.0893,0.23273 0.26023,0.56176 0.55971,0.52687 0.204,-0.0238 0.26126,-0.0916 0.28533,-0.33825 z m 1.48373,-0.99148 c 0.0317,-0.0825 0.12382,-0.15 0.2048,-0.15 0.10771,0 0.13203,-0.0738 0.0906,-0.275 -0.0673,-0.32645 -0.067,-0.12864 -0.007,-4.275 0.0261,-1.815 0.0138,-3.57 -0.0272,-3.9 l -0.0746,-0.6 -0.38198,-0.0314 c -0.69433,-0.0572 -0.6649,-0.26445 -0.63109,4.44471 0.0219,3.05653 0.063,4.27668 0.14677,4.36044 0.064,0.064 0.1163,0.17256 0.1163,0.24133 0,0.11996 0.26523,0.32559 0.42814,0.33193 0.043,0.002 0.10404,-0.0645 0.1357,-0.14696 z m -1.67707,-0.625 0.29911,-0.275 -0.0222,-4.05094 c -0.0122,-2.22802 -0.0531,-4.10096 -0.0909,-4.16209 -0.1284,-0.20776 -0.68995,-0.25249 -0.89057,-0.0709 -0.17517,0.15853 -0.18298,0.36324 -0.14503,3.80103 0.0348,3.15095 0.0618,3.66665 0.20374,3.88321 0.09,0.13734 0.11844,0.24972 0.0632,0.24972 -0.13758,0 -0.23688,0.43954 -0.1565,0.69278 0.0908,0.28605 0.3834,0.25921 0.73906,-0.0678 z m 0.12599,-9.69147 c 0.10927,-0.13254 0.13099,-0.61313 0.10657,-2.35792 -0.0319,-2.27827 -10e-4,-2.47561 0.38618,-2.47561 0.0995,0 0.20588,0.0787 0.23627,0.175 0.0304,0.0962 0.0462,1.1788 0.035,2.40567 -0.0226,2.49144 -0.0442,2.41508 0.68254,2.4178 0.88734,0.003 2.88326,-0.92421 3.79247,-1.76242 0.63192,-0.58256 1.54938,-1.93854 1.74973,-2.58605 0.0681,-0.22 0.18453,-0.58 0.2588,-0.8 0.16992,-0.50334 0.33894,-2.83489 0.25372,-3.5 -0.0619,-0.48354 -0.0781,-0.50445 -0.49168,-0.63531 -0.77666,-0.24575 -1.36286,-1.09153 -0.96046,-1.38577 0.24534,-0.1794 0.28569,-0.16881 0.68177,0.17896 0.43851,0.38501 0.6746,0.35189 0.77317,-0.10848 0.13335,-0.62279 0.13155,-5.99099 -0.002,-6.1246 -0.0914,-0.0914 -0.21815,-0.0642 -0.55355,0.11906 -0.43361,0.23687 -0.81842,0.22766 -0.73666,-0.0176 0.0227,-0.068 0.27932,-0.28875 0.57033,-0.49054 0.85962,-0.59603 0.812,-0.46292 0.80202,-2.2422 -0.005,-0.87642 -0.004,-1.86745 0.002,-2.2023 0.0146,-0.82828 -0.062,-0.87924 -1.33273,-0.88588 -0.95204,-0.005 -1.01791,-0.0185 -1.04586,-0.21406 -0.0548,-0.38363 0.16631,-0.44788 1.13402,-0.32951 1.30093,0.15913 1.2612,0.24286 1.18499,-2.49743 -0.0331,-1.19037 -0.0806,-2.19806 -0.10558,-2.23931 -0.025,-0.0413 -0.13867,-0.075 -0.25266,-0.075 -0.30452,0 -1.08094,-0.81405 -1.08094,-1.13332 0,-0.28776 0.25706,-0.47636 0.51675,-0.37912 0.0917,0.0343 0.26372,0.18619 0.38225,0.33744 0.20194,0.25768 0.4859,0.36836 0.51313,0.2 0.0469,-0.28991 0.0703,-5.65148 0.0259,-5.95 -0.0802,-0.54066 -0.40054,-0.51345 -0.88273,0.075 -0.37746,0.46064 -0.61837,0.56274 -0.7176,0.30412 -0.15209,-0.39633 0.57907,-1.47924 1.08439,-1.60606 0.54302,-0.13629 0.61332,-0.33451 0.53847,-1.51838 -0.10491,-1.65951 -0.38533,-2.76684 -0.98527,-3.89071 -0.21223,-0.39759 -2.10474,-2.33897 -2.28008,-2.33897 -0.0728,0 -0.22527,-0.0868 -0.33881,-0.19284 -0.34908,-0.32607 -2.01457,-0.82611 -2.80645,-0.84259 l -0.7,-0.0146 0.0161,3.35 c 0.009,1.8425 0.022,4.51655 0.0291,5.94234 0.0112,2.22674 -0.009,2.61434 -0.14298,2.7483 -0.11924,0.11925 -0.19672,0.13024 -0.32909,0.0467 -0.16102,-0.10164 -0.17312,-0.52795 -0.17312,-6.0983 l 0,-5.98903 -0.42446,-0.0307 c -0.44812,-0.0324 -1.83192,0.48919 -2.87554,1.08395 -1.2232,0.6971 -2.31597,1.98813 -2.88618,3.40982 -0.31752,0.79169 -0.33612,0.90638 -0.34387,2.12091 -0.008,1.33338 0.0708,1.76604 0.32382,1.76604 0.0818,0 0.38667,0.0896 0.67748,0.19916 0.563,0.21207 1.05469,0.7587 0.94337,1.04879 -0.0912,0.23766 -0.32433,0.18148 -0.82141,-0.19795 -0.46297,-0.35339 -1.03012,-0.47419 -1.05639,-0.225 -0.0469,0.44525 -0.0643,1.29093 -0.0664,3.225 -0.001,1.21 -0.009,2.43456 -0.0169,2.72124 -0.0254,0.9097 0.27519,1.12643 1.04996,0.75697 0.24982,-0.11913 0.37717,-0.25639 0.41544,-0.44776 0.13151,-0.65754 0.63194,-0.62462 0.62956,0.0414 -0.002,0.48676 -0.0244,0.52942 -0.48114,0.90475 -0.27079,0.22253 -0.43246,0.27339 -0.8691,0.27339 -0.5682,0 -0.64427,0.0518 -0.7056,0.48071 -0.0835,0.58406 -0.0421,4.10762 0.0511,4.35291 0.12538,0.32977 0.43644,0.40962 1.31024,0.33637 0.71924,-0.0603 0.98406,0.0563 0.86032,0.37874 -0.0464,0.12083 -0.25586,0.15127 -1.04119,0.15127 -0.63133,0 -1.02608,0.0429 -1.10314,0.12 -0.17116,0.17116 -0.1654,4.23598 0.007,4.57018 0.14732,0.28644 0.26875,0.35544 0.91515,0.51998 0.57969,0.14756 1.15838,0.61451 1.15838,0.9347 0,0.28149 -0.33887,0.60444 -0.5187,0.49433 -0.0722,-0.0442 -0.326,-0.22862 -0.56396,-0.40979 -0.4805,-0.36582 -0.72405,-0.40841 -0.96391,-0.16855 -0.14155,0.14156 -0.15913,0.53444 -0.14657,3.275 0.009,2.04307 0.0539,3.23453 0.12948,3.46415 0.12453,0.37838 0.0994,0.37284 1.26366,0.27839 0.29243,-0.0237 0.35502,0.007 0.38055,0.18585 0.0408,0.28607 -0.45529,0.63576 -0.90187,0.63576 -0.59705,0 -0.69544,0.1535 -0.75373,1.17595 -0.0392,0.68685 -0.0117,1.03508 0.11153,1.4117 0.0899,0.27496 0.16352,0.59788 0.16352,0.71761 0,0.11972 0.11021,0.42626 0.2449,0.68121 0.1347,0.25494 0.31221,0.63182 0.39448,0.83752 0.28636,0.71602 1.30425,1.8871 1.91062,2.19815 0.22,0.11285 0.535,0.31849 0.7,0.45697 0.3956,0.33202 1.43472,0.82031 1.75,0.82234 0.1375,0.001 0.3175,0.0452 0.4,0.0986 0.238,0.1538 0.76265,0.1156 0.91276,-0.0665 z m 0.0218,-5.95847 c -0.11132,-0.18011 -0.0415,-0.70148 0.1156,-0.86373 0.31641,-0.32672 0.68429,0.26397 0.46465,0.74604 -0.11808,0.25914 -0.45109,0.32668 -0.58025,0.11769 z m -0.0152,-2.70175 c -0.0791,-0.0953 -0.11127,-1.34424 -0.10889,-4.22929 0.006,-7.49655 -0.0126,-9.0925 -0.10835,-9.24402 -0.0726,-0.11481 -0.25868,-0.14341 -0.79329,-0.1219 -0.59266,0.0238 -0.71332,0 -0.79665,-0.15538 -0.17978,-0.33593 0.007,-0.43735 0.71801,-0.39084 1.007,0.0658 1.01542,0.0482 0.9396,-1.96857 -0.0655,-1.74293 -0.01,-2.02493 0.38684,-1.94706 0.18268,0.0359 0.19339,0.13843 0.19339,1.85187 0,0.99764 0.0373,1.85168 0.0829,1.89788 0.0456,0.0462 0.42812,0.1065 0.85,0.134 0.7382,0.0481 0.76706,0.0594 0.76706,0.3 0,0.24178 -0.0246,0.25098 -0.74988,0.27988 -0.41244,0.0164 -0.79,0.07 -0.83903,0.11903 -0.0902,0.0902 -0.0929,1.8849 -0.0136,8.95109 0.0241,2.145 0.0102,4.05723 -0.0308,4.2494 -0.0792,0.37094 -0.31085,0.49855 -0.49729,0.27391 z m -5.20329,-2.52802 c -0.0638,-0.14008 -0.11605,-0.65758 -0.11605,-1.15 0,-0.77162 0.0285,-0.92384 0.20669,-1.10198 0.16431,-0.16431 0.23608,-0.1823 0.35,-0.0878 0.18718,0.15534 0.20729,2.29047 0.0233,2.47445 -0.18671,0.18671 -0.33744,0.14295 -0.46395,-0.13471 z m 11.20395,-1.16529 c -0.0796,-0.0796 -0.12,-0.51211 -0.12,-1.2845 0,-1.01683 0.0241,-1.18629 0.18989,-1.33635 0.18057,-0.16342 0.19773,-0.16064 0.35,0.0568 0.12124,0.1731 0.15978,0.47201 0.15874,1.23134 -0.001,0.55151 -0.0285,1.104 -0.0617,1.22775 -0.0654,0.24409 -0.32513,0.29684 -0.51697,0.105 z m -9.35838,-9.83266 c -0.30722,-0.30723 -0.088,-0.69322 0.35788,-0.63002 0.3023,0.0429 0.31311,0.45343 0.0171,0.64996 -0.1866,0.1239 -0.23366,0.1214 -0.375,-0.0199 z m 6.76338,-0.0136 c -0.17103,-0.069 -0.15778,-0.48207 0.0202,-0.62978 0.21508,-0.17851 0.50019,-0.0843 0.53748,0.17754 0.0541,0.37969 -0.20893,0.59297 -0.55768,0.45224 z m -3.5,-7.2 c -0.0688,-0.0278 -0.125,-0.21896 -0.125,-0.42521 0,-0.30127 0.051,-0.40206 0.26005,-0.51394 0.23352,-0.12498 0.27433,-0.11965 0.4,0.0522 0.18142,0.2481 0.17695,0.45584 -0.0157,0.73091 -0.15343,0.21905 -0.27363,0.25516 -0.51933,0.15602 z m 6.19843,-1.40877 c -0.0386,-0.0962 -0.071,-0.625 -0.0719,-1.175 l -0.002,-1 0.25,0 c 0.21887,0 0.25905,0.056 0.32265,0.45 0.109,0.67511 0.0985,1.47367 -0.0224,1.69951 -0.13225,0.24712 -0.38244,0.26049 -0.47683,0.0255 z m -11.37864,-0.0334 c -0.11902,-0.19257 -0.074,-1.58591 0.0563,-1.74294 0.16039,-0.19325 0.34128,-0.18851 0.5088,0.0133 0.15295,0.1843 0.13816,1.36133 -0.0208,1.65844 -0.10596,0.19799 -0.439,0.24154 -0.54429,0.0712 z m 13.35521,17.60843 c 0,-0.055 -0.0477,-0.1 -0.1059,-0.1 -0.0583,0 -0.0781,0.045 -0.0441,0.1 0.034,0.055 0.0816,0.1 0.1059,0.1 0.0243,0 0.0441,-0.045 0.0441,-0.1 z m -62.280002,29.48 c -0.0791,-0.0791 -0.12,-0.50263 -0.12,-1.24182 0,-1.22261 -0.0415,-1.43818 -0.27694,-1.43818 -0.21517,0 -1.00739,0.52775 -1.39163,0.92707 -0.62249,0.64689 -1.08714,0.79347 -2.56464,0.80905 -1.21311,0.0128 -1.34589,-0.004 -1.68641,-0.21595 -0.70804,-0.44027 -0.87944,-1.3199 -0.94788,-4.86471 -0.0268,-1.38817 -0.0796,-2.14176 -0.15665,-2.23456 -0.13592,-0.16377 -0.4109,-0.13086 -1.97076,0.23592 -1.52515,0.35861 -2.56604,0.63188 -3.29118,0.86404 -0.63453,0.20315 -0.63597,0.20447 -0.5823,0.5352 0.0319,0.19651 0.006,0.37016 -0.0639,0.42632 -0.0647,0.0521 -0.4777,0.0953 -0.9177,0.0959 -0.44,0.001 -0.92668,0.0508 -1.08151,0.11143 -0.38095,0.14926 -0.89099,0.13902 -1.11164,-0.0223 -0.25015,-0.18292 -0.12793,-0.51367 0.24724,-0.66908 0.1636,-0.0678 0.47476,-0.28635 0.69146,-0.48575 0.58091,-0.53453 0.96764,-0.81255 1.13026,-0.81255 0.0793,0 0.33549,0.13858 0.56931,0.30796 l 0.42512,0.30796 0.46488,-0.19958 c 0.64708,-0.2778 2.38136,-0.71694 4.24617,-1.07518 1.42586,-0.27391 1.31433,0.0632 1.29162,-3.90421 -0.0175,-3.06546 -0.0356,-3.39882 -0.19026,-3.51195 -0.094,-0.0687 -0.22931,-0.125 -0.30071,-0.125 -0.18163,0 -1.36412,-0.45519 -2.08685,-0.80332 -0.3327,-0.16025 -0.7827,-0.35433 -1,-0.43127 -0.44541,-0.15772 -1.39274,-0.69456 -1.69509,-0.96059 -0.11,-0.0968 -0.3575,-0.26121 -0.55,-0.3654 -0.1925,-0.10418 -0.8,-0.5024 -1.35,-0.88493 -1.40948,-0.98031 -4.32634,-3.91229 -5.00905,-5.03502 -0.19046,-0.31321 -0.59599,-0.95197 -0.90118,-1.41947 -1.07439,-1.64577 -2.36041,-4.64506 -2.57264,-6 -0.0301,-0.1925 -0.14709,-0.78264 -0.25985,-1.31142 -0.11277,-0.52877 -0.22936,-1.13627 -0.25909,-1.35 -0.16006,-1.15044 -0.24692,-2.05365 -0.24897,-2.58858 -0.001,-0.33 -0.0423,-0.66313 -0.0911,-0.74029 -0.074,-0.11681 -0.69853,-0.13689 -3.73208,-0.12002 -3.13536,0.0174 -3.66065,-10e-4 -3.76791,-0.1299 -0.1843,-0.22207 -0.0927,-0.48715 0.19188,-0.55512 0.31799,-0.076 6.23235,0.0455 6.7,0.13757 0.60806,0.11973 0.69132,-0.028 0.75642,-1.34224 0.0313,-0.6325 0.0948,-1.375 0.14104,-1.65 0.19988,-1.18877 0.42779,-2.33485 0.55669,-2.79952 0.3816,-1.37555 0.63248,-2.14194 0.83493,-2.55048 0.12264,-0.2475 0.31749,-0.72 0.43299,-1.05 0.1155,-0.33 0.28718,-0.7125 0.38152,-0.85 0.0943,-0.1375 0.30087,-0.45739 0.45896,-0.71087 0.66596,-1.06775 1.51822,-2.29405 2.1469,-3.08913 1.02369,-1.29464 3.35063,-3.46036 4.64055,-4.31904 1.64181,-1.09293 2.73537,-1.73954 3.35,-1.98083 0.3025,-0.11875 0.6921,-0.30348 0.86579,-0.41049 0.33901,-0.20887 3.45788,-1.23128 4.28421,-1.40442 1.13362,-0.23753 2.27495,-0.39393 3.55,-0.48649 1.07581,-0.0781 1.37538,-0.13242 1.475,-0.26748 0.0913,-0.12385 0.125,-0.78026 0.125,-2.43812 0,-1.88594 0.0251,-2.28946 0.14872,-2.39207 0.0818,-0.0679 0.21432,-0.0983 0.29449,-0.0675 0.18752,0.072 0.30464,0.6898 0.17646,0.93091 -0.0542,0.10204 -0.12983,0.99553 -0.16796,1.98553 -0.0855,2.21927 -0.0916,2.20464 0.91308,2.17158 0.79655,-0.0262 3.05075,0.21373 4.13521,0.44016 1.11536,0.23288 3.38319,0.92638 3.92167,1.19925 0.25942,0.13145 0.53184,0.23901 0.60537,0.23901 0.0735,0 0.35627,0.109 0.62832,0.24222 0.27205,0.13323 0.65214,0.3132 0.84464,0.39994 1.08859,0.49051 2.84115,1.61243 4.18129,2.67669 0.81302,0.64564 3.6133,3.52954 3.9716,4.09018 0.1262,0.19747 0.30181,0.43139 0.39025,0.51983 0.43086,0.43086 2.45592,4.04806 2.45655,4.38792 2e-4,0.0917 0.10821,0.38423 0.24009,0.65 0.31314,0.63107 0.68417,1.81521 0.99741,3.18322 0.23544,1.02828 0.28546,1.41119 0.41695,3.19184 0.0281,0.38051 0.10732,0.80801 0.17605,0.95 0.1213,0.25059 0.15276,0.25816 1.07239,0.25816 0.88987,0 0.94926,0.0129 0.97774,0.21254 0.0611,0.42864 -0.23411,0.56237 -1.07699,0.48775 -0.58291,-0.0516 -0.78956,-0.0359 -0.87027,0.066 -0.0827,0.10451 -0.22716,1.64943 -0.25087,2.68369 -0.006,0.25102 -0.38036,2.52646 -0.47743,2.9 -0.23155,0.89103 -0.61095,2.16916 -0.69758,2.35 -0.0527,0.11 -0.3305,0.7625 -0.61735,1.45 -0.28684,0.6875 -0.62685,1.39317 -0.75556,1.56817 -0.12872,0.17499 -0.28187,0.44499 -0.34034,0.6 -0.20269,0.53729 -1.6481,2.57438 -2.50172,3.52578 -0.9817,1.09417 -2.36875,2.46277 -2.91376,2.87501 -1.36839,1.03504 -1.36786,1.03478 -1.57845,0.78104 -0.16514,-0.19897 -0.6,-0.19718 -0.6,0.002 0,0.0839 0.1125,0.19524 0.25,0.24752 0.1375,0.0523 0.25,0.14052 0.25,0.19609 0,0.0556 -0.28125,0.24248 -0.625,0.41537 -0.34375,0.17289 -0.7825,0.43675 -0.975,0.58636 -0.43781,0.34027 -2.03883,1.11343 -2.9,1.40047 -1.18369,0.39453 -1.07482,0.0423 -1.08823,3.52133 -0.0139,3.61499 0.0674,4.64073 0.38881,4.90096 0.12515,0.10134 0.38492,0.17942 0.59693,0.17942 0.34776,0 1.97408,0.55126 2.82884,0.95886 0.30109,0.14358 0.41534,0.15425 0.6257,0.0584 0.38872,-0.17711 0.51383,-0.14735 0.92266,0.21946 0.20641,0.1852 0.63506,0.48258 0.95257,0.66084 0.59573,0.33447 0.77272,0.53966 0.77272,0.89587 0,0.15954 -0.0626,0.20576 -0.275,0.20303 -0.15125,-0.002 -0.3875,-0.0679 -0.525,-0.14646 -0.15526,-0.0888 -0.54193,-0.14426 -1.0203,-0.14646 -0.99693,-0.005 -1.25992,-0.12239 -1.29948,-0.58208 -0.0166,-0.19316 -0.0977,-0.38722 -0.18022,-0.43124 -1.34409,-0.71717 -3.34616,-1.48537 -3.48887,-1.33868 -0.0527,0.0541 -0.13625,0.6437 -0.18569,1.3101 -0.0758,1.02116 -0.12516,1.25645 -0.31419,1.49677 -0.37648,0.47862 -0.71195,0.57682 -2.13625,0.62539 -0.31912,0.0109 -0.53816,0.0794 -0.66743,0.20863 -0.33329,0.33328 -0.57374,0.40752 -1.326,0.40938 -0.63354,0.002 -0.80528,0.0437 -1.28157,0.31437 -1.07121,0.60876 -1.24606,0.68384 -1.59615,0.68535 -0.58955,0.003 -0.6093,0.0458 -0.63261,1.38547 -0.0167,0.9594 -0.0533,1.24081 -0.17124,1.31524 -0.19567,0.12353 -0.23663,0.12113 -0.38,-0.0222 z m -2.62,-2.12401 c 0.1925,-0.0981 0.55789,-0.35111 0.81198,-0.56218 0.25409,-0.21107 0.68159,-0.48727 0.95,-0.61378 0.26841,-0.12652 0.51863,-0.27261 0.55604,-0.32464 0.14583,-0.20283 -0.13291,-0.42661 -0.73684,-0.59156 -0.34715,-0.0948 -0.93124,-0.28863 -1.29798,-0.43069 -0.84092,-0.32575 -1.38696,-0.27076 -2.00866,0.20228 -0.23349,0.17766 -0.69454,0.47566 -1.02454,0.6622 -0.68255,0.38584 -0.74748,0.45572 -0.74554,0.80238 0.002,0.27638 0.47522,0.85439 0.82274,1.00397 0.3763,0.16197 2.2705,0.0571 2.6728,-0.14798 z m 4.74721,-1.72143 c 0.32335,-0.15946 0.60596,-0.34406 0.62801,-0.41021 0.0221,-0.0662 -0.11692,-0.19516 -0.30882,-0.28667 -0.32426,-0.15463 -0.37795,-0.15477 -0.75968,-0.002 -0.22592,0.0904 -0.49659,0.16435 -0.60149,0.16435 -0.10491,0 -0.30322,0.14373 -0.44071,0.31941 l -0.24997,0.3194 0.21773,0.1261 c 0.31407,0.1819 0.84163,0.10168 1.51493,-0.23035 z m -7.29034,-1.08559 c 0.39801,-0.24807 0.89665,-0.52332 1.10809,-0.61167 0.56317,-0.2353 1.41313,-0.12037 2.28504,0.30899 0.90294,0.44463 1.49361,0.55003 1.62506,0.28997 0.0518,-0.10245 0.0982,-1.02689 0.10315,-2.05432 0.008,-1.56958 -0.0157,-1.88853 -0.14536,-1.99618 -0.17782,-0.14757 -2.52862,-0.13828 -3.32714,0.0132 -0.26001,0.0493 -0.93363,0.1214 -1.49691,0.16019 -0.67367,0.0464 -1.07305,0.11942 -1.16701,0.21339 -0.11418,0.11418 -0.14115,0.51507 -0.13437,1.99771 0.005,1.02018 0.0322,1.91673 0.0612,1.99233 0.0878,0.22871 0.33029,0.15883 1.08822,-0.31357 z m 10.86402,-0.10977 c 0.23339,-0.12069 0.4584,-0.14149 0.97231,-0.0899 0.50164,0.0504 0.69556,0.0339 0.77641,-0.0661 0.12831,-0.15864 0.26787,-2.68408 0.15721,-2.84476 -0.0423,-0.0614 -0.39182,-0.18642 -0.77682,-0.27793 -0.385,-0.0915 -0.79,-0.189 -0.9,-0.21663 -0.44972,-0.11297 -2.06002,-0.35611 -2.95,-0.44541 -2.28945,-0.22974 -2.26936,-0.22897 -2.35523,-0.09 -0.12385,0.20038 -0.0792,3.89709 0.0486,4.0249 0.075,0.075 0.24597,0.0562 0.58145,-0.064 0.592,-0.21218 1.14369,-0.2166 1.53872,-0.0123 0.6701,0.34652 2.30673,0.39279 2.90735,0.0822 z m 1.86893,-3.77694 c 0.079,-0.0952 0.0982,-0.53549 0.0621,-1.425 -0.0287,-0.70799 -0.0799,-2.18726 -0.11372,-3.28726 -0.037,-1.20301 -0.10499,-2.05394 -0.17068,-2.13537 -0.12527,-0.15529 -0.39462,-0.12563 -1.66749,0.18365 -0.96177,0.23369 -3.11363,0.49375 -4.125,0.49853 -1.06291,0.005 -1.04131,-0.046 -1.06083,2.50637 -0.018,2.35862 0.0222,2.76313 0.28281,2.84586 0.0968,0.0307 0.68833,0.0779 1.31451,0.10482 1.57061,0.0675 3.79361,0.40494 4.83851,0.73437 0.42366,0.13357 0.51034,0.13005 0.63982,-0.026 z m -12.13982,-0.45209 c 0.495,-0.0629 1.17519,-0.15837 1.51153,-0.21223 0.33634,-0.0539 1.08458,-0.0979 1.66276,-0.0979 0.85004,0 1.07713,-0.0312 1.18661,-0.16313 0.10236,-0.12334 0.13331,-0.55638 0.12684,-1.775 -0.0168,-3.16639 -0.0211,-3.23326 -0.21274,-3.31632 -0.0962,-0.0417 -0.6925,-0.11124 -1.325,-0.15449 -0.6325,-0.0433 -1.645,-0.17391 -2.25,-0.29034 -2.08087,-0.40048 -2.34398,-0.44007 -2.41996,-0.36409 -0.13335,0.13335 -0.15697,2.81264 -0.0368,4.17195 0.0852,0.96334 0.0865,1.39962 0.005,1.64617 -0.16944,0.51341 0.0101,0.7787 0.48526,0.71715 0.20147,-0.0261 0.7713,-0.0989 1.2663,-0.16173 z m 4.34811,-6.55789 c 0.0929,-0.11192 0.12,-1.16459 0.11187,-4.34407 l -0.0107,-4.19635 0.22533,-0.15782 c 0.20728,-0.14519 0.23573,-0.14367 0.3553,0.0191 0.0993,0.1352 0.11656,0.53038 0.073,1.67689 -0.13769,3.62833 -0.14279,6.82565 -0.0112,7.00566 0.11318,0.15479 0.23915,0.16854 1.02958,0.11244 1.71228,-0.12154 5.03979,-0.74519 5.59707,-1.04902 0.12014,-0.0655 0.31127,-0.11908 0.42474,-0.11908 0.22155,0 1.4692,-0.5582 1.55387,-0.6952 0.0281,-0.0455 0.17525,-0.11293 0.32702,-0.14995 0.40613,-0.0991 2.64079,-1.2149 3.10169,-1.54877 0.21846,-0.15825 0.68379,-0.43689 1.03406,-0.61918 0.67729,-0.3525 2.37421,-1.82633 3.33991,-2.90084 0.31442,-0.34983 0.68055,-0.73618 0.81363,-0.85855 0.44474,-0.40893 1.97139,-2.53195 2.35684,-3.27751 0.0853,-0.165 0.4261,-0.8175 0.75732,-1.45 0.33122,-0.6325 0.67158,-1.375 0.75636,-1.65 0.0848,-0.275 0.2971,-0.8825 0.47184,-1.35 0.17475,-0.4675 0.35208,-1.0075 0.39407,-1.2 0.042,-0.1925 0.17232,-0.78019 0.28962,-1.30599 0.11729,-0.52579 0.23647,-1.17829 0.26483,-1.45 0.0284,-0.2717 0.10274,-0.88968 0.16527,-1.37328 0.073,-0.56456 0.0809,-1.01197 0.0221,-1.25 l -0.0916,-0.37073 -5.1,-0.0153 c -3.02086,-0.009 -5.14627,0.0226 -5.21351,0.0777 -0.10364,0.0849 -0.30041,1.47077 -0.24999,1.76074 0.0225,0.12937 -0.53043,2.33254 -0.67181,2.67685 -0.73583,1.79206 -1.76325,3.33178 -3.058,4.58283 -0.82762,0.79967 -1.29865,1.13402 -2.45669,1.74384 -0.4675,0.24618 -1.03,0.54957 -1.25,0.67419 -0.62681,0.35507 -1.42589,0.57871 -1.85982,0.52051 -0.29243,-0.0392 -0.45056,-0.003 -0.64297,0.14869 -0.19096,0.15021 -0.33896,0.18499 -0.58823,0.13822 -0.1832,-0.0344 -0.57516,0 -0.87103,0.077 -0.45161,0.11708 -0.77332,0.11921 -2.00438,0.0133 -0.80654,-0.0694 -1.51845,-0.15831 -1.58203,-0.19761 -0.0636,-0.0393 -0.43868,-0.15183 -0.83357,-0.25009 -0.75274,-0.18731 -1.25127,-0.38502 -2.35323,-0.93327 -1.20487,-0.59946 -1.85023,-1.08582 -3.06474,-2.30969 -0.94397,-0.95124 -1.29103,-1.37979 -1.62663,-2.00857 -0.23464,-0.43963 -0.53839,-0.99179 -0.675,-1.22701 -0.1366,-0.23523 -0.24854,-0.50523 -0.24874,-0.6 -2e-4,-0.0948 -0.0889,-0.31758 -0.1972,-0.49512 -0.30321,-0.4973 -0.71186,-2.17698 -0.77297,-3.1772 -0.0302,-0.495 -0.10361,-0.9609 -0.16304,-1.03533 -0.084,-0.10516 -0.30967,-0.1205 -1.01224,-0.0688 -1.23372,0.0908 -6.76109,0.0973 -8.05418,0.01 -1.51481,-0.10278 -1.46915,-0.16258 -1.26201,1.65289 0.0905,0.79291 0.2534,1.80165 0.36207,2.24165 0.10867,0.44 0.19811,0.9025 0.19876,1.02779 0.002,0.35981 0.96952,3.17115 1.47049,4.27221 0.25024,0.55 0.66014,1.3375 0.91088,1.75 0.25075,0.4125 0.4504,0.83117 0.44367,0.93037 -0.007,0.0992 0.0567,0.20682 0.14094,0.23915 0.0843,0.0323 0.5379,0.58116 1.00811,1.21963 0.85457,1.16037 2.79835,3.18135 3.77184,3.92164 0.27789,0.21132 0.64025,0.50228 0.80525,0.64658 0.40247,0.35198 1.78346,1.221 2.37822,1.49656 0.26384,0.12224 0.55983,0.29475 0.65774,0.38337 0.22721,0.20562 3.46578,1.61865 3.86404,1.68593 0.165,0.0279 0.93,0.20988 1.7,0.40445 2.22705,0.56277 4.50734,0.81471 4.74811,0.5246 z m 2.75189,-10.93599 c 0.22,-0.0486 0.5125,-0.13823 0.65,-0.19917 0.1375,-0.0609 0.655,-0.26573 1.15,-0.45507 1.9043,-0.72842 3.1037,-1.56396 4.56534,-3.18037 0.6762,-0.74781 1.88466,-2.62434 1.88466,-2.92657 0,-0.0633 0.039,-0.15786 0.0867,-0.21011 0.25638,-0.2809 0.89696,-2.68007 0.97841,-3.66448 l 0.0637,-0.76948 -0.26703,-0.067 c -0.28954,-0.0727 -0.48883,-0.34078 -0.37978,-0.51093 0.0374,-0.0584 0.16927,-0.13773 0.29302,-0.17635 0.36287,-0.11324 0.30664,-0.90459 -0.16548,-2.3288 -0.60038,-1.81115 -0.9455,-2.4707 -1.94152,-3.71042 -1.34495,-1.67401 -2.75151,-2.76944 -4.50321,-3.5071 -2.25146,-0.94812 -3.95096,-1.22945 -6.10366,-1.01038 -1.36561,0.13897 -3.7183,0.91335 -4.71113,1.55064 -0.275,0.17652 -0.68,0.43411 -0.9,0.57241 -0.48111,0.30244 -2.03016,1.71388 -2.2737,2.0717 -1.15865,1.70235 -1.58966,2.61547 -2.07216,4.38998 -0.30452,1.11997 -0.37351,1.75102 -0.21821,1.99589 0.0543,0.0856 0.26119,0.12251 0.6005,0.10703 0.55517,-0.0253 0.7579,0.0804 0.65719,0.34287 -0.0717,0.18679 -0.62578,0.32032 -0.92936,0.22397 -0.14729,-0.0468 -0.24594,0.001 -0.35885,0.17318 -0.13969,0.21319 -0.14059,0.33468 -0.009,1.17997 0.22154,1.42101 0.44011,2.11836 1.13152,3.60999 0.78858,1.70127 2.09337,3.25214 3.73996,4.44531 0.67403,0.48842 1.92199,1.12395 2.50548,1.27593 0.29163,0.076 0.86688,0.25124 1.27834,0.38952 1.11305,0.37405 2.37688,0.54825 3.6981,0.50975 0.6325,-0.0184 1.33,-0.0733 1.55,-0.12189 z m -2.43238,-0.33867 c -0.13836,-0.13836 -0.15135,-0.46951 -0.0262,-0.66719 0.14343,-0.22651 0.40856,-0.0486 0.40856,0.27419 0,0.35302 -0.20828,0.56709 -0.38238,0.393 z m -0.057,-2.53131 c -0.12866,-0.12867 -0.16059,-0.38712 -0.16059,-1.29993 0,-1.30238 0.0298,-1.2568 -0.93759,-1.43562 -1.33035,-0.24593 -3.29079,-1.57976 -3.74634,-2.54892 -0.11884,-0.25281 -0.21607,-0.49908 -0.21607,-0.54726 0,-0.0482 -0.0815,-0.19493 -0.18107,-0.32609 -0.2171,-0.28594 -0.38405,-0.84172 -0.47716,-1.58849 -0.1045,-0.83816 -0.15962,-0.9 -0.80225,-0.9 -0.51673,0 -0.55131,-0.0149 -0.52148,-0.225 0.0279,-0.19607 0.10535,-0.23154 0.60281,-0.27586 0.31397,-0.028 0.61705,-0.097 0.67352,-0.15351 0.0565,-0.0565 0.14844,-0.34411 0.20441,-0.63921 0.24369,-1.28496 1.21466,-2.67533 2.38818,-3.41971 0.50895,-0.32283 1.86459,-0.78671 2.29909,-0.78671 0.56502,0 0.65908,-0.17867 0.71395,-1.35617 0.0413,-0.88585 0.081,-1.09223 0.22784,-1.1834 0.29732,-0.18461 0.37559,0.099 0.30633,1.11008 -0.0849,1.24001 -0.002,1.36799 0.98676,1.528 1.33169,0.21544 2.36822,0.85388 3.18806,1.96367 0.36161,0.48949 0.99129,1.71349 1.29272,2.51282 0.13648,0.36193 0.14524,0.3641 1.32251,0.32819 0.65795,-0.0201 0.78428,0.003 0.84124,0.15105 0.12137,0.31627 -0.23811,0.46844 -0.98757,0.41806 -0.94077,-0.0632 -1.0385,0.0238 -1.09983,0.97932 -0.0268,0.41746 -0.10031,0.81063 -0.16339,0.8737 -0.0631,0.0631 -0.11467,0.25741 -0.11467,0.43185 0,0.44173 -0.82952,1.68172 -1.51919,2.27093 -0.78066,0.66693 -1.91632,1.22544 -2.79993,1.37698 -0.40198,0.0689 -0.77404,0.16391 -0.8268,0.21105 -0.0541,0.0484 -0.0836,0.59996 -0.0676,1.26643 0.0226,0.94142 -0.001,1.20541 -0.11849,1.30253 -0.11717,0.0973 -0.17916,0.0894 -0.30736,-0.0388 z m 2.57639,-4.05639 c 1.26904,-0.68734 2.04777,-1.7031 2.46132,-3.21051 0.22118,-0.8062 0.19542,-1.22279 -0.0848,-1.37138 -0.0899,-0.0477 -1.07315,-0.0802 -2.18494,-0.0724 -1.79504,0.0127 -2.04145,0.0343 -2.2,0.1928 -0.16149,0.1614 -0.17856,0.40786 -0.17856,2.57846 0,1.86708 0.029,2.41797 0.13062,2.48091 0.18503,0.11461 1.38505,-0.23432 2.05637,-0.59792 z m -2.76023,0.45516 c 0.0868,-0.15517 0.0596,-4.29918 -0.031,-4.71719 -0.0729,-0.33653 -0.3083,-0.39447 -1.34578,-0.3313 -0.5225,0.0318 -1.42211,0.0259 -1.99913,-0.013 -1.34695,-0.091 -1.45352,-0.0228 -1.35371,0.8661 0.0794,0.70681 0.50223,1.76962 0.91208,2.29238 0.50793,0.64785 1.53301,1.3873 2.38822,1.72276 0.90719,0.35584 1.30311,0.40578 1.4293,0.18028 z m -0.96446,-5.64508 c 0.69006,0 0.79368,-0.0243 0.89276,-0.20944 0.0715,-0.13354 0.10962,-0.84934 0.10528,-1.975 -0.009,-2.31145 0.05,-2.25958 -1.76033,-1.55038 -0.99453,0.38961 -1.7952,0.94578 -2.17872,1.51341 -0.47052,0.69638 -0.77128,1.36928 -0.77128,1.72561 0,0.59563 0.0858,0.62569 1.59081,0.557 0.73744,-0.0337 1.69211,-0.0612 2.12148,-0.0612 z m 6.0708,-0.28368 c 0.10151,-0.71678 -1.2651,-2.61554 -2.31559,-3.21727 -0.76289,-0.43699 -1.80285,-0.74069 -2.06181,-0.60209 -0.18489,0.0989 -0.20758,0.2134 -0.22437,1.13156 -0.0269,1.47007 0.0272,2.59443 0.13462,2.79842 0.0854,0.16226 0.27318,0.1747 2.26361,0.15 l 2.17045,-0.0269 0.0331,-0.23368 z m -13.85809,0.91745 c -0.15882,-0.0641 -0.16167,-0.3571 -0.005,-0.51377 0.17331,-0.17332 0.64757,-0.14875 0.71894,0.0372 0.14266,0.37177 -0.2779,0.65248 -0.71394,0.47653 z m 18.30594,-0.19736 c -0.0838,-0.21827 0.0906,-0.47909 0.34568,-0.51724 0.25161,-0.0376 0.39817,0.32021 0.21939,0.53563 -0.16173,0.19487 -0.48729,0.18428 -0.56507,-0.0184 z m -9.54895,-9.386 c -0.094,-0.20624 -0.0822,-0.28441 0.0676,-0.45 0.0997,-0.11023 0.21781,-0.20041 0.26235,-0.20041 0.15064,0 0.3054,0.41711 0.24461,0.65931 -0.0812,0.32353 -0.42557,0.31819 -0.5746,-0.009 z m 22.51801,17.94959 c 0,-0.055 -0.045,-0.1 -0.1,-0.1 -0.055,0 -0.1,0.045 -0.1,0.1 0,0.055 0.045,0.1 0.1,0.1 0.055,0 0.1,-0.045 0.1,-0.1 z m -38.73032,-8.92875 c 2.88156,0.009 3.94302,-0.0188 4.00781,-0.10459 0.0485,-0.0642 0.16043,-0.61361 0.24878,-1.22099 0.1509,-1.03725 0.67584,-2.80702 1.01482,-3.42127 0.0833,-0.15092 0.27858,-0.52443 0.434,-0.83002 0.33816,-0.66491 1.45133,-2.01479 2.3456,-2.84438 0.55312,-0.51311 1.97843,-1.51869 2.32106,-1.63755 0.0595,-0.0206 0.45817,-0.2119 0.88585,-0.425 0.42769,-0.2131 0.85886,-0.38745 0.95816,-0.38745 0.0993,0 0.46938,-0.0871 0.8224,-0.19352 0.35301,-0.10644 1.25389,-0.26709 2.00194,-0.357 1.62687,-0.19554 3.08247,-0.0995 4.57824,0.30194 1.06266,0.28523 1.26886,0.36714 2.66166,1.05729 1.78927,0.88662 2.64708,1.54501 3.85709,2.96043 0.50114,0.58622 0.95317,1.17635 1.00452,1.31141 0.0513,0.13507 0.18507,0.37435 0.29714,0.53174 0.38373,0.53891 1.19671,2.88793 1.36281,3.93771 0.10084,0.63733 0.21629,1.0483 0.31833,1.13318 0.11818,0.0983 0.35653,0.11686 0.91011,0.0709 0.69098,-0.0574 7.22239,-0.0769 8.68435,-0.0259 0.3489,0.0122 0.6864,-0.0101 0.75,-0.0496 0.1486,-0.0922 0.1327,-1.56256 -0.0248,-2.29271 -0.0636,-0.2947 -0.16412,-0.78332 -0.22347,-1.08582 -0.20163,-1.02765 -0.49653,-2.2493 -0.59143,-2.45 -0.22218,-0.46989 -0.46843,-1.37872 -0.42184,-1.55688 0.0348,-0.13313 -7e-4,-0.19312 -0.1143,-0.19312 -0.0906,0 -0.19226,-0.0788 -0.22581,-0.175 -0.0335,-0.0962 -0.29842,-0.67 -0.58859,-1.275 -2.04698,-4.2679 -5.98513,-8.10358 -10.64413,-10.36718 -0.5775,-0.28058 -1.275,-0.59006 -1.55,-0.68773 -0.275,-0.0977 -0.8825,-0.31961 -1.35,-0.49322 -0.87986,-0.32672 -0.95556,-0.34452 -2.95,-0.69353 -1.45746,-0.25504 -3.89684,-0.52246 -4.08994,-0.44836 -0.11766,0.0451 -0.13883,0.7368 -0.13076,4.27194 0.005,2.31995 -0.0247,4.31933 -0.0666,4.44308 -0.0908,0.26798 -0.31404,0.29525 -0.4093,0.05 -0.0374,-0.0962 -0.0569,-1.795 -0.0434,-3.775 0.0237,-3.47272 0.0238,-4.46292 8e-4,-4.72148 -0.0266,-0.29916 -0.3982,-0.33825 -1.73675,-0.18269 -1.84981,0.21498 -2.7327,0.38485 -4.17406,0.8031 -1.15532,0.33526 -2.64414,0.86097 -3,1.05933 -0.0825,0.046 -0.60737,0.30767 -1.16637,0.58152 -1.09031,0.53413 -2.50403,1.40901 -3.23363,2.00113 -0.2475,0.20086 -0.63,0.48827 -0.85,0.63869 -0.97585,0.66719 -3.27445,3.0835 -4.10993,4.3204 -1.64544,2.436 -2.04807,3.18511 -2.74116,5.1 -0.11945,0.33 -0.27766,0.7575 -0.35159,0.95 -0.41879,1.09049 -0.95275,3.77659 -1.02186,5.14045 -0.0716,1.41303 -0.0796,1.40547 1.37454,1.29703 0.5775,-0.0431 2.81386,-0.0729 4.96968,-0.0662 z m 50.480322,0.51528 c -0.275,-0.0495 -1.11133,-0.0613 -1.85852,-0.0263 -1.54973,0.0726 -1.79148,0.0306 -1.79148,-0.31133 0,-0.4361 0.25075,-0.5013 1.81158,-0.47108 0.79113,0.0153 1.57342,0.0364 1.73842,0.0468 0.165,0.0104 0.57635,-0.015 0.91412,-0.0566 0.66359,-0.0816 0.93588,0.0441 0.93588,0.43194 0,0.47608 -0.56209,0.60023 -1.75,0.38653 z m -80.650002,-47.28445 -0.75,-0.0521 -0.0308,-0.425 -0.0308,-0.425 0.48075,-0.0104 c 0.26441,-0.006 0.66075,-0.0239 0.88075,-0.0404 0.35893,-0.0269 4.77462,-0.11383 9.87922,-0.19459 1.03358,-0.0164 1.90574,-0.0562 1.93815,-0.0887 0.0324,-0.0324 0.14764,-0.0114 0.25608,0.0466 0.1998,0.10693 5.11665,0.1808 11.62655,0.17468 1.76,-0.002 5.0675,0.005 7.35,0.0159 2.2825,0.0104 4.24,0.019 4.35,0.0192 0.11,0 1.64,-0.004 3.4,-0.01 1.76,-0.006 4.9325,-0.008 7.05,-0.004 2.1175,0.003 7.1125,-0.0206 11.1,-0.053 3.9875,-0.0324 9.3425,-0.0757 11.9,-0.0963 2.5575,-0.0206 4.73071,-0.0704 4.82937,-0.11058 0.0986,-0.0402 0.34615,-0.0391 0.55,0.003 0.484472,0.0989 1.252952,0.1017 4.903442,0.0176 1.81012,-0.0417 3.11286,-0.11272 3.23139,-0.17615 0.13578,-0.0727 0.2376,-0.0739 0.32194,-0.004 0.0995,0.0825 2.27628,0.16314 3.56386,0.13194 0.1375,-0.003 5.56,-0.0313 12.05,-0.0622 7.2669,-0.0346 12.08812,-0.096 12.55,-0.15979 0.4125,-0.057 0.84,-0.0965 0.95,-0.0877 0.1859,0.0148 3.99227,0.0991 4.55,0.10083 0.1375,0 1.645,-0.0268 3.35,-0.0606 1.705,-0.0337 3.325,-0.0569 3.6,-0.0515 1.84098,0.0361 4.81214,0.0111 5.09988,-0.0429 0.30476,-0.0572 0.35118,-0.0372 0.40417,0.17393 0.0329,0.13118 0.0455,0.41423 0.0279,0.62898 l -0.032,0.39047 -3.8,0.0138 c -4.70786,0.0171 -12.8345,0.0219 -17.15,0.01 -3.64824,-0.0101 -16.73614,0.12113 -18.2,0.18247 -1.88701,0.0791 -15.00499,0.15804 -32.650002,0.19654 -9.9,0.0216 -19.485,0.044 -21.3,0.0499 -1.815,0.006 -4.92,0.008 -6.9,0.006 -1.98,-0.003 -6.255,-0.003 -9.5,-0.001 -3.245,0.002 -7.61,0.001 -9.7,-0.003 -2.09,-0.004 -5.06,0.006 -6.6,0.0215 -1.54,0.0155 -3.1375,0.005 -3.55,-0.0239 z m 30.55,-17.98089 c -0.44674,-0.0954 -0.45539,-0.14238 -0.44392,-2.41044 0.009,-1.69385 0.042,-2.20937 0.15472,-2.38575 0.16371,-0.25614 0.45776,-0.29362 0.63434,-0.0808 0.0994,0.11983 0.1464,0.90764 0.0927,1.55585 -0.0312,0.37739 0.1474,2.16193 0.22644,2.26192 0.0572,0.0724 0.4327,0.10243 1.06209,0.0851 0.53548,-0.0148 1.04674,0.0122 1.13612,0.0599 0.24165,0.12901 0.29262,0.46669 0.10322,0.68387 -0.14289,0.16387 -0.34485,0.19578 -1.46573,0.23159 -0.715,0.0228 -1.39,0.0223 -1.5,-0.001 z m -5.15867,-0.22986 c -0.20317,-0.20316 -0.2068,-0.2645 -0.13771,-2.325 0.039,-1.16398 0.11194,-2.16776 0.16202,-2.23062 0.0962,-0.12069 2.05424,-0.30527 2.73436,-0.25776 0.43516,0.0304 0.65,0.22502 0.65,0.58886 0,0.42431 -0.36848,0.5503 -1.38493,0.47357 l -0.90658,-0.0684 -0.12011,0.26362 c -0.10164,0.22307 -0.0922,0.29445 0.0613,0.46402 0.14486,0.16007 0.30794,0.20041 0.81019,0.20041 0.53646,0 0.6517,0.0326 0.78451,0.22225 0.19085,0.27248 0.19101,0.37259 10e-4,0.62386 -0.12797,0.16924 -0.25091,0.19228 -0.89736,0.16821 -0.87142,-0.0325 -0.84539,-0.0614 -0.8763,0.97522 -0.0188,0.63024 -0.0534,0.75385 -0.25778,0.9193 -0.29792,0.24123 -0.36576,0.23932 -0.62259,-0.0175 z m 14.89591,0.0419 c -0.10932,-0.13283 -0.13052,-0.60569 -0.10419,-2.32445 0.0182,-1.18673 0.0752,-2.2085 0.12674,-2.27059 0.11743,-0.14149 1.76907,-0.0796 2.34021,0.0877 0.22,0.0644 0.53466,0.25374 0.69924,0.42066 0.25995,0.26364 0.29935,0.37668 0.3,0.86082 6e-4,0.43099 -0.0559,0.64032 -0.24924,0.92347 -0.30594,0.44807 -0.62758,0.5692 -1.51141,0.5692 -0.80839,0 -0.88859,0.0857 -0.88859,0.95 0,0.30973 -0.0466,0.65019 -0.10352,0.75657 -0.12715,0.23758 -0.42493,0.25062 -0.60924,0.0267 z m 2.22988,-2.69874 c 0.4483,-0.4057 0.0153,-1.1345 -0.6741,-1.1345 -0.59513,0 -0.84302,0.15446 -0.84302,0.52527 0,0.55761 0.23059,0.77473 0.82279,0.77473 0.33559,0 0.57434,-0.0569 0.69433,-0.1655 z m 8.32003,2.6677 c -0.4206,-0.18713 -0.7727,-0.57498 -1.09136,-1.2022 -0.25047,-0.49299 -0.25304,-1.90782 -0.004,-2.42365 0.23843,-0.49465 0.7106,-0.945 1.13905,-1.08639 0.77156,-0.25464 1.74654,0.0964 2.02125,0.72767 0.26735,0.6144 -0.27769,0.94152 -0.72039,0.43237 -0.28229,-0.32465 -0.93143,-0.34668 -1.31541,-0.0446 -0.71184,0.55993 -0.49952,2.21356 0.33995,2.64766 0.51407,0.26584 1.09415,-0.0744 1.09415,-0.64174 0,-0.36076 0.21982,-0.71128 0.44605,-0.71128 0.4677,0 0.5709,0.42114 0.29886,1.21954 -0.17028,0.49973 -0.66657,0.96724 -1.23483,1.16323 -0.42629,0.14702 -0.46939,0.14345 -0.97293,-0.0806 z m 3.65918,-0.2866 c -0.84514,-0.87682 -1.03705,-2.09424 -0.51118,-3.2428 0.41065,-0.89691 1.07685,-1.31251 1.92217,-1.19913 0.85625,0.11484 1.69751,1.29382 1.69075,2.36948 -0.005,0.81035 -0.48497,1.83227 -1.0715,2.28185 -0.29987,0.22985 -0.45767,0.275 -0.96106,0.275 -0.58923,0 -0.6124,-0.0105 -1.06918,-0.4844 z m 1.67358,-0.63974 c 0.51096,-0.46739 0.69689,-1.85105 0.32967,-2.45335 -0.45051,-0.7389 -1.43605,-0.62219 -1.87246,0.22173 -0.20727,0.40081 -0.10928,1.44921 0.17904,1.91573 0.38979,0.6307 0.89233,0.7471 1.36375,0.31589 z m 9.09941,1.04726 c -0.3001,-0.0664 -0.3441,-0.40361 -0.264,-2.02312 0.0889,-1.79716 0.0536,-1.9 -0.65171,-1.9 -0.56906,0 -0.77769,-0.17121 -0.73648,-0.60441 0.0303,-0.31862 0.0563,-0.34307 0.33287,-0.3134 0.53544,0.0574 1.0806,0.0541 2.12653,-0.0131 0.94026,-0.0604 1.04321,-0.0493 1.225,0.13248 0.23219,0.23219 0.24184,0.30168 0.0735,0.52904 -0.0827,0.1117 -0.33784,0.19078 -0.75435,0.23381 -0.48066,0.0497 -0.65412,0.1113 -0.73419,0.26092 -0.0639,0.11941 -0.0934,0.78718 -0.0756,1.7103 0.036,1.86765 -0.0276,2.10121 -0.54153,1.98752 z m 6.40349,-0.19812 c -0.087,-0.0962 -0.26933,-0.48131 -0.40516,-0.8557 -0.33844,-0.93282 -0.49362,-1.08604 -1.06238,-1.04897 l -0.45527,0.0297 -0.0799,0.7 c -0.11221,0.98245 -0.18817,1.19484 -0.4403,1.23107 -0.39901,0.0573 -0.44913,-0.24563 -0.4116,-2.48818 0.0282,-1.68395 0.0637,-2.11615 0.18341,-2.22963 0.12242,-0.11609 0.36556,-0.12452 1.38739,-0.0481 0.68143,0.051 1.32268,0.13751 1.425,0.19227 0.29588,0.15835 0.48813,0.52876 0.54751,1.05488 0.0472,0.41791 0.0181,0.53691 -0.20321,0.83208 -0.33231,0.4432 -0.33368,0.91013 -0.005,1.65366 0.25079,0.56709 0.25341,0.91379 0.008,1.07538 -0.1783,0.11745 -0.3192,0.0891 -0.48872,-0.0985 z m -0.29281,-2.945 c 0.15714,-0.15714 0.15404,-0.6273 -0.005,-0.7591 -0.11232,-0.0931 -0.74295,-0.1536 -1.35248,-0.12979 -0.32498,0.0127 -0.4811,0.4546 -0.27287,0.77239 0.1377,0.21016 0.23044,0.2365 0.83265,0.2365 0.39377,0 0.72797,-0.0503 0.7977,-0.12 z m 3.37,3.0234 c -0.35253,-0.14792 -0.93653,-0.83951 -1.09971,-1.3023 -0.0888,-0.25173 -0.16262,-0.80077 -0.16815,-1.25 -0.008,-0.66586 0.0291,-0.86863 0.22088,-1.2011 0.51007,-0.88425 0.93436,-1.15 1.836102,-1.15 0.44189,0 0.60436,0.0495 0.85517,0.26054 0.66823,0.56228 1.16576,1.83704 0.98503,2.5238 -0.24599,0.93473 -0.33794,1.16194 -0.60767,1.50159 -0.48555,0.61142 -1.3829,0.8855 -2.021652,0.61747 z m 1.101562,-0.96784 c 0.22606,-0.0867 0.55875,-0.87497 0.6177,-1.46349 0.0365,-0.36434 -0.004,-0.57825 -0.17163,-0.9 -0.26983,-0.51884 -0.34402,-0.56861 -0.85038,-0.57054 -0.467972,-0.002 -0.786402,0.19073 -1.000582,0.6049 -0.12483,0.24139 -0.13491,0.43349 -0.0561,1.06855 0.0842,0.67859 0.1342,0.80827 0.40433,1.04963 0.302792,0.27054 0.696502,0.34914 1.056622,0.21095 z m -40.903772,0.762 c -0.17607,-0.19455 -0.17647,-0.23105 -0.0102,-0.93642 0.0952,-0.40369 0.26397,-0.90365 0.37512,-1.11103 0.2299,-0.42895 0.54274,-1.40747 0.63945,-2.00011 0.14263,-0.87406 0.32478,-1.00415 0.90443,-0.6459 0.45135,0.27894 0.66512,0.60829 0.80537,1.24082 0.0616,0.27779 0.3011,0.95508 0.53224,1.50508 0.23113,0.55 0.44521,1.20911 0.47571,1.46468 0.0484,0.40565 0.0278,0.47949 -0.16234,0.58125 -0.19459,0.10414 -0.26258,0.0683 -0.6377,-0.33638 -0.41654,-0.44933 -0.42511,-0.45292 -1.0699,-0.44808 -0.86206,0.006 -0.97351,0.0467 -1.16505,0.42062 -0.261,0.5095 -0.41313,0.56827 -0.68716,0.26547 z m 2.22665,-1.71784 c 0.16495,-0.1369 0.15925,-0.5055 -0.0142,-0.92072 -0.26746,-0.64012 -0.58897,-0.57277 -0.80942,0.16955 -0.18652,0.62809 -0.18664,0.62131 0.0136,0.82154 0.17097,0.17097 0.55999,0.13717 0.81007,-0.0704 z m -0.72871,-2.98663 c -0.0857,-0.1387 -0.14573,-0.11284 -0.14573,0.0628 0,0.0857 0.0457,0.12763 0.10163,0.0931 0.0559,-0.0345 0.0757,-0.10471 0.0441,-0.15591 z m 22.5574,4.71276 c -0.13642,-0.2549 -0.0319,-4.30069 0.1157,-4.47854 0.33035,-0.39804 0.93291,0.12535 1.63789,1.42269 0.46429,0.85441 0.59777,1.04876 0.72075,1.04937 0.21337,0.001 0.32253,-0.46829 0.32253,-1.38677 0,-0.98865 0.14681,-1.34914 0.46914,-1.15195 0.16213,0.0992 0.18604,0.32184 0.23086,2.14999 0.0493,2.0093 0.006,2.42739 -0.26355,2.53072 -0.16302,0.0626 -0.43645,-0.0289 -0.43645,-0.14598 0,-0.0458 -0.17659,-0.28724 -0.39241,-0.53661 -0.21583,-0.24937 -0.53578,-0.74461 -0.711,-1.10054 -0.37423,-0.76016 -0.64418,-1.05064 -0.81637,-0.87845 -0.0671,0.0671 -0.1337,0.58534 -0.15976,1.24264 -0.0246,0.62017 -0.0858,1.20633 -0.1361,1.30258 -0.12191,0.23342 -0.45188,0.22255 -0.58123,-0.0191 z m 20.222752,0.0936 c -0.85796,-0.0897 -0.84699,-0.0565 -0.84033,-2.54768 0.006,-2.23541 0.0426,-2.45175 0.41445,-2.45175 0.35044,0 0.40271,0.23944 0.43483,1.99185 0.0255,1.39252 0.061,1.74682 0.18746,1.87329 0.17634,0.17635 1.06666,0.23167 1.75169,0.10884 0.35439,-0.0635 0.45698,-0.043 0.625,0.125 0.23643,0.23643 0.25602,0.48759 0.059,0.75691 -0.12365,0.16907 -0.26877,0.19438 -1.125,0.19623 -0.54066,0.001 -1.21889,-0.0225 -1.50715,-0.0527 z m 16.55481,-0.17443 c -0.0827,-0.0962 -0.3342,-0.5575 -0.55897,-1.025 -0.22477,-0.4675 -0.54825,-1.0679 -0.71884,-1.33422 -0.46648,-0.72825 -0.58642,-0.54597 -0.59551,0.90508 -0.007,1.19252 -0.0764,1.42914 -0.4161,1.42914 -0.34494,0 -0.39031,-0.3166 -0.35957,-2.50938 0.0262,-1.86829 0.0503,-2.13902 0.19906,-2.23284 0.1204,-0.0759 0.21974,-0.0752 0.34424,0.002 0.24871,0.15523 0.95517,1.07239 1.43991,1.86937 0.27495,0.45205 0.46717,0.66925 0.57405,0.64867 0.18411,-0.0355 0.17575,0.0263 0.19581,-1.44654 0.0144,-1.05593 0.0274,-1.12213 0.23402,-1.18771 0.16103,-0.0511 0.26758,-0.009 0.40356,0.15874 0.16891,0.20859 0.18231,0.41047 0.15621,2.35241 -0.0259,1.92519 -0.0464,2.14393 -0.21906,2.33452 -0.23202,0.25614 -0.47814,0.26893 -0.67881,0.0353 z m 3.23865,0.0487 c -0.77817,-0.24917 -1.41934,-1.44876 -1.41934,-2.65547 0,-0.8856 0.21258,-1.33421 0.83326,-1.75844 1.01595,-0.6944 1.87894,-0.51406 2.58517,0.54021 0.61177,0.91327 0.59647,2.02069 -0.0425,3.07495 -0.48209,0.79544 -1.13481,1.0619 -1.95662,0.79875 z m 1.08846,-1.05154 c 0.50609,-0.45219 0.6564,-1.70157 0.27917,-2.32039 -0.45788,-0.7511 -0.88859,-0.8002 -1.54867,-0.17654 l -0.45005,0.42522 0.0982,0.79058 c 0.10355,0.83411 0.29439,1.2121 0.72324,1.4325 0.3629,0.1865 0.55654,0.15387 0.89816,-0.15137 z m -12.00913,0.92623 c -0.16187,-0.19503 -0.14414,-4.4231 0.0194,-4.62012 0.13723,-0.16534 0.42738,-0.16454 0.56524,0.002 0.0593,0.0714 0.14352,0.42016 0.18724,0.775 0.1139,0.92445 0.30001,0.91943 1.1899,-0.0321 0.88484,-0.94614 1.1885,-1.03665 1.37979,-0.41127 0.0507,0.16592 -0.0649,0.34896 -0.53696,0.85 -0.41195,0.43722 -0.60189,0.71948 -0.60244,0.89525 -5e-4,0.15889 0.23027,0.56647 0.60556,1.06954 0.52947,0.70974 0.60239,0.86106 0.575,1.19328 -0.027,0.32824 -0.0649,0.38047 -0.27565,0.38047 -0.25816,0 -0.91256,-0.73471 -1.30278,-1.46267 -0.22288,-0.41576 -0.43504,-0.5307 -0.70899,-0.38408 -0.20687,0.11071 -0.25267,0.25907 -0.33407,1.08234 -0.0291,0.29457 -0.10502,0.59832 -0.16866,0.675 -0.1521,0.18327 -0.43516,0.17744 -0.59255,-0.0122 z m 14.23897,-0.41254 c -0.11297,-0.27038 -0.1464,-0.67594 -0.12982,-1.575 0.0123,-0.66597 0.0173,-1.50335 0.0112,-1.86085 -0.0201,-1.17383 -0.0901,-1.11377 1.20829,-1.03613 1.92125,0.1149 2.257,0.40333 2.11749,1.81907 -0.0443,0.44977 -0.0311,0.71371 0.0378,0.7563 0.13541,0.0837 0.25772,0.88652 0.1814,1.19064 -0.0321,0.12784 -0.16086,0.35126 -0.28617,0.49648 -0.37404,0.43351 -0.85764,0.57364 -1.97971,0.57364 l -1.00832,0 -0.15215,-0.36415 z m 2.16236,-0.66464 c 0.32036,-0.16126 0.37197,-0.56021 0.11371,-0.87898 -0.17172,-0.21195 -0.26787,-0.23918 -0.76903,-0.21781 -0.31503,0.0134 -0.63396,0.0752 -0.70873,0.13724 -0.16657,0.13824 -0.17504,0.49313 -0.0199,0.83363 0.10239,0.22472 0.17597,0.25454 0.625,0.25324 0.27992,-10e-4 0.62145,-0.0581 0.75895,-0.12732 z m -0.28666,-2.0402 c 0.15557,-0.0297 0.31118,-0.15529 0.38023,-0.30684 0.17338,-0.38052 -0.0263,-0.518 -0.7965,-0.54853 l -0.64707,-0.0256 -0.0305,0.3655 c -0.024,0.28827 0.0182,0.4 0.2,0.52879 0.1346,0.0954 0.31367,0.13702 0.43047,0.10015 0.11,-0.0347 0.3185,-0.0858 0.46334,-0.11343 z m -2.57764,-7.40601 c -0.0471,-0.0962 -0.0857,-1.345 -0.0857,-2.775 0,-2.59662 0,-2.60004 -0.21834,-2.63108 -0.12008,-0.0171 -0.46888,0.0875 -0.7751,0.23231 -0.64802,0.30657 -0.86817,0.29476 -0.9547,-0.0512 -0.0344,-0.1375 -0.008,-1.0375 0.0584,-2 0.10633,-1.53823 0.10246,-1.77907 -0.032,-1.99027 l -0.15295,-0.24028 -1.66268,0.0649 c -1.95198,0.0762 -2.21562,0.13162 -2.39622,0.50349 -0.18136,0.37344 -0.317,0.40497 -0.88216,0.20507 -0.26637,-0.0942 -0.79931,-0.19868 -1.18431,-0.23213 -0.65493,-0.0569 -0.70157,-0.0769 -0.72435,-0.31082 -0.0359,-0.36883 0.14993,-0.5438 1.00085,-0.94219 1.08331,-0.50719 1.38643,-0.51624 1.62824,-0.0486 l 0.15987,0.30916 1.2177,-0.0761 c 0.66973,-0.0419 1.5605,-0.0658 1.97949,-0.0531 0.56503,0.0171 0.80023,-0.0154 0.91059,-0.12575 0.12341,-0.12341 0.15178,-0.60648 0.16628,-2.83106 0.01,-1.47525 0.043,-2.885098 0.0741,-3.133018 0.067,-0.53403 -0.0837,-0.71968 -0.72234,-0.88965 -0.22527,-0.06 -0.60057,-0.25539 -0.83399,-0.4343 -0.23342,-0.17891 -0.57236,-0.4378 -0.7532,-0.5753 -0.42631,-0.32414 -1.20408,-1.21491 -1.41219,-1.61735 -0.42499,-0.82183 -0.85706,-2.60747 -0.78345,-3.23779 0.0189,-0.16217 0.0817,-0.82868 0.13949,-1.481129 0.0578,-0.652449 0.12958,-1.225954 0.15956,-1.274455 0.03,-0.0485 0.0928,-0.639678 0.13962,-1.313728 0.14456,-2.081369 0.39534,-4.795525 0.50205,-5.433736 0.0559,-0.334506 0.10195,-0.829506 0.10226,-1.1 0,-0.270495 0.095,-1.166809 0.21036,-1.991809 0.11539,-0.825 0.22494,-2.092647 0.24343,-2.816994 0.0185,-0.724347 0.0786,-1.489347 0.13347,-1.7 0.0549,-0.210653 0.14718,-0.990506 0.20504,-1.733006 0.30916,-3.966761 0.4155,-5.228675 0.50563,-6 0.0546,-0.4675 0.14745,-1.4125 0.20627,-2.1 0.0588,-0.6875 0.1529,-1.7675 0.20909,-2.4 0.0562,-0.6325 0.11652,-1.375 0.13407,-1.65 0.028,-0.43822 0.13364,-1.621579 0.30809,-3.45 0.0289,-0.3025 0.0897,-1.2025 0.1353,-2 0.11208,-1.96235 0.41097,-2.880538 1.19183,-3.661405 0.36302,-0.363013 0.67067,-0.572739 0.95165,-0.648738 0.84023,-0.227268 0.94334,-0.291315 1.00297,-0.623013 0.0313,-0.174264 0.0577,-1.006656 0.0586,-1.849759 0.001,-0.843103 0.0259,-1.572151 0.0555,-1.620108 0.0567,-0.09175 0.0673,-1.894696 0.0251,-4.246977 l -0.0252,-1.4 0.30763,-0.03011 c 0.51123,-0.05003 0.55325,0.09527 0.43801,1.514457 -0.0564,0.695099 -0.0972,2.220479 -0.0905,3.389733 0.007,1.169254 0.003,2.395917 -0.009,2.725917 -0.061,1.73675 -0.0672,1.681696 0.20214,1.810574 0.7797,0.373116 1.18939,0.539426 1.32883,0.539426 0.0863,0 0.32089,0.154636 0.52129,0.343636 0.50315,0.474529 0.71866,1.23969 0.79918,2.837453 0.0352,0.697901 0.12725,1.786411 0.2046,2.418911 0.0773,0.6325 0.18814,1.8925 0.24621,2.8 0.0581,0.9075 0.13101,1.7175 0.16212,1.8 0.0311,0.0825 0.0963,0.87 0.1449,1.75 0.10264,1.858934 0.23949,3.645987 0.39822,5.2 0.13341,1.306162 0.1274,1.236144 0.33473,3.9 0.0899,1.155 0.21253,2.382694 0.27251,2.728208 0.06,0.345515 0.0883,0.707379 0.0631,0.804143 -0.0253,0.09677 0.0157,0.781571 0.0912,1.521792 0.0755,0.740221 0.18106,1.930857 0.23467,2.645857 0.0536,0.715 0.1477,1.84 0.20911,2.5 0.0614,0.66 0.10622,1.351806 0.0996,1.537346 -0.007,0.185541 0.0593,0.717953 0.14646,1.183138 0.0872,0.465185 0.13568,0.90521 0.10781,0.977833 -0.0525,0.13677 0.1416,2.86722 0.34234,4.816183 0.14606,1.41809 0.0177,2.26412 -0.51688,3.40623 -0.73252,1.56507 -1.58168,2.43762 -3.15673,3.24368 -0.67535,0.34563 -0.84887,0.48225 -0.92758,0.73038 -0.0533,0.16787 -0.10896,1.20521 -0.12379,2.305208 -0.0417,3.09377 -0.0293,3.52238 0.10719,3.68679 0.10266,0.1237 0.49791,0.1536 2.2428,0.16967 1.16499,0.0107 2.25317,0.0153 2.41817,0.0101 0.165,-0.005 0.67635,0.0363 1.13634,0.0922 0.7385,0.0898 0.85842,0.0817 1.025,-0.0691 0.10376,-0.0939 0.18866,-0.22823 0.18866,-0.2985 0,-0.43282 1.43967,-0.0381 1.85711,0.50919 0.13359,0.17515 0.24289,0.38745 0.24289,0.47177 0,0.24549 -0.28046,0.41094 -0.67165,0.39624 -0.20787,-0.008 -0.49891,0.0707 -0.68224,0.18397 -0.46559,0.28775 -0.7589,0.24917 -0.99773,-0.13126 -0.20127,-0.32058 -0.20345,-0.32125 -1.25,-0.3813 -0.57661,-0.0331 -1.16088,-0.0869 -1.29838,-0.1195 -0.1375,-0.0327 -1.1349,-0.0863 -2.21644,-0.11915 -1.55076,-0.0471 -1.98362,-0.0325 -2.04769,0.0695 -0.0447,0.0711 -0.068,0.69179 -0.0519,1.37929 0.0343,1.46109 0.008,1.52176 -0.77992,1.77467 -0.4235,0.13601 -0.56145,0.23141 -0.61503,0.42533 -0.038,0.1375 -0.0736,1.47921 -0.079,2.98158 -0.006,1.67185 -0.0501,2.80661 -0.11349,2.925 -0.12888,0.24082 -0.34759,0.24957 -0.46078,0.0184 z m -0.36613,-6.1206 c 0.22788,-0.13895 0.33873,-0.29696 0.38634,-0.55072 0.0876,-0.46687 -0.0741,-0.65368 -0.56585,-0.65368 -0.46631,0 -0.69347,0.27636 -0.65852,0.80112 0.0427,0.64079 0.2695,0.74994 0.83803,0.40328 z m 1.75683,-2.398 c 0.042,-0.46398 0.0406,-0.87938 -0.003,-0.92312 -0.0437,-0.0437 -0.2209,-0.1078 -0.39368,-0.14236 -0.29704,-0.0594 -0.31999,-0.0418 -0.42132,0.32313 -0.25799,0.92915 -0.0379,1.67618 0.47639,1.61666 0.25666,-0.0297 0.26783,-0.0583 0.34173,-0.87431 z m -1.3871,0.43543 c 0.0334,-0.087 0.0607,-0.42292 0.0607,-0.74649 0,-0.47113 -0.037,-0.60812 -0.18594,-0.68781 -0.2183,-0.11683 -0.87235,-0.0314 -0.99802,0.1303 -0.28425,0.36584 -0.15015,1.21418 0.21519,1.36136 0.36509,0.14708 0.84116,0.11701 0.90807,-0.0574 z m -0.0557,-2.51683 c 0.072,-0.33146 0.12194,-1.23147 0.11793,-2.125 -0.004,-0.8525 0.002,-1.7075 0.0141,-1.9 0.0239,-0.396888 0.0107,-0.909098 -0.0347,-1.349998 -0.0249,-0.24201 -0.0986,-0.32306 -0.38091,-0.41935 -0.92621,-0.31586 -0.92864,-0.3089 -0.97863,2.802508 -0.0542,3.37134 -0.0187,3.52279 0.833,3.55524 0.29169,0.0111 0.30958,-0.0124 0.42925,-0.5634 z m 1.34994,0.35 c 0.17701,-0.28823 0.22241,-5.837068 0.0495,-6.045448 -0.12652,-0.15244 -0.54448,-0.17282 -0.63224,-0.0308 -0.0336,0.0543 -0.085,1.40046 -0.11441,2.991488 -0.0523,2.83472 -0.0492,2.89695 0.15511,3.10128 0.26567,0.26567 0.37076,0.26247 0.54207,-0.0165 z m 0.43267,-5.899998 c -0.0277,-0.0688 -0.0504,-0.0125 -0.0504,0.125 0,0.1375 0.0227,0.19375 0.0504,0.125 0.0277,-0.0688 0.0277,-0.18125 0,-0.25 z m -1.78267,-1.31871 c 0.10468,-0.10232 0.13527,-0.73144 0.14146,-2.90988 0.007,-2.59248 0.0207,-2.79212 0.19813,-2.96956 0.15541,-0.15541 0.2178,-0.16735 0.34084,-0.0652 0.12813,0.10634 0.14178,0.39461 0.0914,1.93169 -0.0325,0.99369 -0.0817,2.1892 -0.10921,2.6567 -0.0275,0.4675 -0.0112,0.985 0.0362,1.15 0.0837,0.2911 0.10304,0.29943 0.6509,0.28059 1.11501,-0.0383 2.80542,-1.19781 3.48996,-2.39383 0.49239,-0.8603 0.7747,-1.48113 0.7757,-1.70586 0.001,-0.1205 0.0435,-0.24541 0.0956,-0.27756 0.052,-0.0322 0.0965,-0.22606 0.0988,-0.4309 0.002,-0.20484 0.0107,-0.55244 0.0188,-0.77244 0.0172,-0.47056 -0.0852,-1.724277 -0.21807,-2.669155 -0.0517,-0.368036 -0.0941,-0.966915 -0.0941,-1.330842 0,-0.363928 -0.0433,-1.075308 -0.0962,-1.580845 -0.15751,-1.505415 -0.30457,-3.256919 -0.35844,-4.269158 -0.0625,-1.173561 -0.21774,-3.221518 -0.34499,-4.55 -0.0527,-0.55 -0.11755,-1.2475 -0.14413,-1.55 -0.0266,-0.3025 -0.0724,-0.685 -0.10177,-0.85 -0.0512,-0.287542 -0.27305,-3.906224 -0.30959,-5.05 -0.01,-0.3025 -0.0701,-1.1575 -0.13422,-1.9 -0.24511,-2.836609 -0.31343,-3.675181 -0.36254,-4.45 -0.0279,-0.44 -0.0927,-1.205 -0.14401,-1.7 -0.0513,-0.495 -0.12092,-1.4175 -0.15469,-2.05 -0.0338,-0.6325 -0.10728,-1.555 -0.16337,-2.05 -0.11422,-1.008088 -0.14011,-1.327704 -0.23493,-2.9 -0.0365,-0.605 -0.11129,-1.274796 -0.16622,-1.488435 -0.25375,-0.986887 -1.33749,-1.887668 -1.83414,-1.524506 -0.18036,0.131876 -0.19022,0.385855 -0.22233,5.725469 -0.0185,3.07311 -0.0535,5.643722 -0.0779,5.712472 -0.0486,0.137141 -0.40986,0.171764 -0.48717,0.04669 -0.0705,-0.114069 -0.0739,-1.261044 -0.0181,-6.071689 0.0274,-2.365 0.075,-4.443556 0.1057,-4.619012 0.0706,-0.403364 -0.0264,-0.800141 -0.21301,-0.871754 -0.22897,-0.08787 -0.91574,0.235441 -1.18837,0.559446 -0.17551,0.208574 -0.24963,0.415941 -0.24963,0.698354 0,0.314665 -0.0424,0.412779 -0.19573,0.452873 -0.25906,0.06775 -0.37931,0.487655 -0.4525,1.580093 -0.0332,0.495 -0.12643,1.53 -0.20727,2.3 -0.0808,0.77 -0.19217,2.0525 -0.24739,2.85 -0.21717,3.136298 -0.2847,3.999396 -0.34556,4.41633 -0.0348,0.238518 -0.0803,0.68117 -0.10111,0.98367 -0.0208,0.3025 -0.13066,1.36 -0.24413,2.35 -0.11347,0.99 -0.25267,2.655 -0.30932,3.7 -0.0567,1.045 -0.16806,2.3725 -0.24758,2.95 -0.23268,1.689872 -0.23551,1.718548 -0.39231,3.976586 -0.0437,0.629467 -0.18337,1.928155 -0.3574,3.323414 -0.0926,0.742364 -0.2471,2.694186 -0.22244,2.810073 0.007,0.03304 -0.0555,0.685541 -0.13902,1.45 -0.0835,0.76446 -0.16809,1.592427 -0.18798,1.839927 -0.0199,0.2475 -0.10971,1.0125 -0.19957,1.7 -0.19751,1.510939 -0.12845,3.287529 0.15603,4.013999 0.62296,1.59091 2.3694,3.286 3.38551,3.286 0.16439,0 0.46822,0.11492 0.67518,0.25536 0.39309,0.26676 0.74386,0.26708 1.01615,9e-4 z m 0.0364,-7.176287 c -0.066,-0.066 -0.12,-0.2145 -0.12,-0.33 0,-0.431726 0.50348,-0.617201 0.69648,-0.256574 0.14064,0.262788 0.13065,0.365158 -0.0536,0.549431 -0.1879,0.187902 -0.35988,0.200119 -0.52286,0.03714 z m -0.0581,-3.908971 c -0.15505,-0.11337 -0.17552,-0.303885 -0.16926,-1.575 0.008,-1.594626 0.0704,-4.71343 0.17148,-8.546029 0.0362,-1.375 0.0601,-3.362433 0.053,-4.416518 -0.0113,-1.683292 0.008,-1.942633 0.16089,-2.131119 0.10933,-0.135023 0.23493,-0.191131 0.33871,-0.15131 0.17826,0.06841 0.18337,0.902021 0.0331,5.398947 -0.0349,1.045 -0.0744,4.016856 -0.0878,6.604124 -0.0134,2.587268 -0.058,4.758518 -0.0991,4.825 -0.0952,0.154083 -0.18165,0.152338 -0.40105,-0.0081 z m 0.0988,-18.929208 c -0.13393,-0.349016 -0.061,-0.645975 0.18634,-0.758667 0.43835,-0.199728 0.70973,0.237072 0.44944,0.72342 -0.1248,0.233196 -0.55076,0.256811 -0.63578,0.03525 z m -4.4607,28.458176 c 0,-0.055 -0.045,-0.1 -0.1,-0.1 -0.055,0 -0.1,0.045 -0.1,0.1 0,0.055 0.045,0.1 0.1,0.1 0.055,0 0.1,-0.045 0.1,-0.1 z M 72.980548,113.37904 c -0.10986,-0.13237 -0.13046,-1.02226 -0.11057,-4.775 0.0134,-2.53678 0.0515,-4.89385 0.0845,-5.23795 0.0679,-0.70793 -0.0361,-0.92437 -0.44419,-0.92437 -0.14097,0 -0.36429,0.10125 -0.49625,0.225 l -0.23994,0.225 -0.20175,-0.24872 c -0.1937,-0.23881 -0.19923,-0.34104 -0.13868,-2.56345 l 0.0631,-2.314718 -0.22953,-0.0576 c -0.12624,-0.0317 -1.06126,-0.037 -2.07783,-0.0118 -1.82519,0.0452 -6.47823,0.0483 -13.1983,0.009 -3.01536,-0.0178 -3.50669,-0.0424 -3.9,-0.19526 -1.09317,-0.42498 -1.84925,-1.23387 -2.20402,-2.35798 -0.20629,-0.65363 -0.21239,-0.76944 -0.11453,-2.17479 0.0643,-0.92372 0.0881,-4.827153 0.0629,-10.334398 -0.0444,-9.701608 -0.0707,-17.203656 -0.0677,-19.3 10e-4,-0.7425 -0.003,-2.9925 -0.01,-5 -0.008,-2.444738 0.0279,-3.86148 0.10767,-4.290442 0.19767,-1.063298 0.8762,-1.873917 2.02219,-2.415889 l 0.61774,-0.292144 3.71764,-0.03643 c 2.06326,-0.02022 3.79551,0.0033 3.89263,0.05276 0.12225,0.0623 0.175,0.208707 0.175,0.485666 l 0,0.396482 -1.025,0.0029 c -3.33537,0.0094 -6.17489,0.106202 -6.675,0.227481 -0.62826,0.152354 -1.32235,0.55815 -1.55064,0.906569 -0.0856,0.130699 -0.19758,0.494914 -0.24876,0.809366 -0.0895,0.549806 -0.1377,8.225683 -0.0996,15.853685 0.01,2.0075 0.016,5.36 0.0132,7.45 -0.003,2.09 0.0133,6.875186 0.0357,10.633746 0.0395,6.625688 0.047,6.846548 0.24437,7.254328 0.53837,1.11213 1.5411,1.47918 3.70577,1.35652 0.1375,-0.008 1.10553,-5e-4 2.15118,0.0162 1.04566,0.0167 1.94566,0.004 2,-0.0273 0.0543,-0.0317 0.39132,-0.0217 0.74882,0.0224 0.3575,0.044 2.045,0.0847 3.75,0.0904 1.705,0.006 4.53271,0.021 6.2838,0.034 3.03749,0.0226 3.18847,0.0149 3.28538,-0.16613 0.0643,-0.12005 0.0817,-0.88986 0.0474,-2.09506 -0.0329,-1.15528 -0.0159,-1.97687 0.0431,-2.08718 0.11026,-0.20604 0.4794,-0.24714 0.51124,-0.0569 0.0115,0.0687 0.0228,1.02891 0.025,2.13368 0.003,1.57929 0.0343,2.04532 0.1455,2.18004 0.12781,0.15485 0.35889,0.16744 2.4,0.13084 3.23256,-0.058 6.33984,-0.0869 7.95858,-0.074 3.14639,0.025 10.02617,-0.0984 10.38861,-0.18635 0.37915,-0.092 1.26067,-0.82894 1.26201,-1.05504 3e-4,-0.0573 0.0731,-0.23918 0.16168,-0.40418 0.34418,-0.64104 0.40771,-2.38873 0.37442,-10.299994 -0.0176,-4.18 -0.0372,-12.7525 -0.0435,-19.05 -0.007,-6.493882 -0.0509,-11.606269 -0.10246,-11.811025 -0.0996,-0.395751 -0.82504,-1.288975 -1.0468,-1.288975 -0.0765,0 -0.28642,-0.08983 -0.4665,-0.199626 -0.18008,-0.109795 -0.44824,-0.199795 -0.59591,-0.2 -0.14767,-2e-4 -0.39517,-0.04989 -0.55,-0.11042 -0.19659,-0.07685 -3.17198,-0.115753 -9.86428,-0.128967 -7.9197,-0.01564 -9.61633,0.0046 -9.77608,0.116471 -0.18846,0.132004 -0.19307,0.335838 -0.18419,8.143103 0.01,8.443062 0.0234,8.173739 -0.41971,8.177908 -0.34838,0.0033 -0.37446,-0.208561 -0.33248,-2.700563 0.0495,-2.94044 0.13497,-9.725714 0.15039,-11.943304 0.01,-1.438389 -0.007,-1.608618 -0.17203,-1.729724 -0.1426,-0.104603 -0.53716,-0.122968 -1.78313,-0.083 -0.88,0.02823 -3.30791,0.06411 -5.39537,0.07972 l -3.79538,0.0284 -0.0812,-0.390093 c -0.0447,-0.214552 -0.0598,-0.411511 -0.0336,-0.437688 0.068,-0.06799 9.25543,-0.03655 10.15555,0.03474 1.2259,0.0971 1.14081,0.376153 1.11889,-3.669335 -0.0102,-1.890695 -0.0456,-3.667602 -0.0785,-3.948682 -0.0435,-0.370941 -0.0154,-0.597126 0.10244,-0.825 0.17742,-0.343098 0.32101,-0.385586 0.60393,-0.178706 0.1623,0.118672 0.17619,0.219744 0.11344,0.825 -0.13481,1.300165 -0.18094,7.314087 -0.0579,7.544051 l 0.11352,0.212126 6.16709,-0.05575 c 3.3919,-0.03066 7.94977,-0.05967 10.1286,-0.06446 l 3.96151,-0.0087 0.65085,0.307508 c 0.9053,0.427737 1.47834,0.966036 1.91699,1.80078 l 0.37033,0.704744 -0.007,4.674731 c -0.008,5.37043 -0.001,12.975891 0.0242,26.42473 l 0.0179,9.45 -0.22319,0.63838 c -0.30302,0.86672 -0.53087,1.20866 -1.16831,1.75324 -0.95625,0.81695 -0.56376,0.77453 -7.044,0.76127 -3.16836,-0.006 -7.33565,-0.0311 -9.26065,-0.0548 -1.925,-0.0237 -3.54951,-0.0104 -3.61003,0.0294 -0.25671,0.16913 -0.36597,0.62193 -0.42611,1.76585 -0.0857,1.629978 -0.0102,2.202098 0.32549,2.466128 0.3411,0.26831 0.32949,0.37627 -0.0896,0.83386 l -0.35029,0.38243 -0.78681,-0.0686 c -0.60643,-0.0529 -0.79726,-0.0387 -0.8324,0.0621 -0.0251,0.0719 -0.0344,2.28926 -0.0206,4.92745 0.0202,3.88158 -0.001,4.85933 -0.11221,5.125 -0.15322,0.36671 -0.25919,0.40504 -0.4579,0.16561 z m 1.18761,-11.25607 c -0.0618,-0.18542 -0.27708,-0.21617 -0.27708,-0.0396 0,0.0871 0.0712,0.15833 0.15833,0.15833 0.0871,0 0.14052,-0.0534 0.11875,-0.11875 z m -1.37708,-0.68125 c 0,-0.055 -0.0423,-0.1 -0.0941,-0.1 -0.0518,0 -0.12191,0.045 -0.1559,0.1 -0.034,0.055 0.008,0.1 0.0941,0.1 0.0857,0 0.1559,-0.045 0.1559,-0.1 z m 1.81128,-0.43294 c 0.10927,-0.40859 0.0578,-3.139158 -0.0613,-3.251578 -0.055,-0.0519 -0.24068,-0.124 -0.41263,-0.16017 -0.55544,-0.11684 -0.63737,0.0771 -0.63737,1.50841 0,1.308958 0.0458,1.494798 0.48395,1.964428 0.31489,0.33751 0.52624,0.31693 0.62734,-0.0611 z m -1.69853,-0.63282 c 0.20186,-0.24381 0.1635,-2.400838 -0.0464,-2.610758 -0.19261,-0.19261 -0.4433,-0.097 -0.56159,0.21408 -0.0507,0.13347 -0.10633,0.70062 -0.1235,1.26032 -0.028,0.912548 -0.0112,1.032328 0.16288,1.159878 0.25338,0.18568 0.40048,0.17959 0.56864,-0.0235 z m 0.0479,-9.292418 c -0.0906,-0.23623 -0.0735,-0.53095 0.0435,-0.749662 0.0847,-0.158351 0.14168,-0.17464 0.30496,-0.08726 0.29792,0.159445 0.43632,0.523282 0.29761,0.782452 -0.13424,0.25085 -0.55703,0.28649 -0.64607,0.0545 z m -0.0495,-2.920938 c -0.0604,-0.112866 -0.0647,-1.231778 -0.0117,-3.025 0.0463,-1.565233 0.0887,-4.752863 0.0943,-7.08362 0.006,-2.330758 0.0344,-4.277008 0.0641,-4.325 0.0814,-0.131738 0.40323,-0.104627 0.5269,0.04439 0.13851,0.166892 0.13352,-0.414496 0.0645,7.51408 -0.0401,4.607707 -0.0937,6.83735 -0.16646,6.925 -0.1542,0.185801 -0.45977,0.159155 -0.57162,-0.04985 z m -0.008,-16.214305 c -0.19455,-0.363526 -0.12289,-0.608083 0.22049,-0.752464 0.17821,-0.07493 0.35475,-0.117242 0.39231,-0.09403 0.11415,0.07055 0.2027,0.622469 0.1344,0.837669 -0.0865,0.272452 -0.60284,0.278548 -0.7472,0.0088 z M 60.891378,51.992531 c -0.14593,-0.383829 -0.12325,-0.620558 0.0664,-0.693345 0.22928,-0.08798 0.31003,0.02524 0.34951,0.490078 0.0267,0.314903 -0.002,0.404726 -0.14094,0.432277 -0.11453,0.0228 -0.20925,-0.05609 -0.275,-0.22901 z M 52.457758,26.87994 c -0.009,-0.0065 -5.77667,-0.03972 -12.81667,-0.07381 -13.79381,-0.0668 -16.14319,-0.113135 -16.56711,-0.326748 -0.24565,-0.123777 -0.68289,-0.627087 -0.68289,-0.786067 0,-0.03717 1.09125,-0.04194 2.425,-0.01061 1.33375,0.03133 4.7425,0.08658 7.575,0.122785 6.62265,0.08464 90.330912,0.10497 108.100002,0.02625 14.89957,-0.06601 13.96628,-0.101596 13.64468,0.520317 -0.0807,0.156081 -0.23264,0.329747 -0.33761,0.385926 -0.12778,0.06839 -6.41483,0.105365 -19.02396,0.111894 -69.154662,0.0358 -82.301592,0.04061 -82.316442,0.03007 z"
   id="path3009"
   inkscape:connector-curvature="0" /></svg>