<?xml version="1.0" encoding="utf-8"?>
<!-- Generator: Adobe Illustrator 15.0.2, SVG Export Plug-In . SVG Version: 6.00 Build 0)  -->
<!DOCTYPE svg PUBLIC "-//W3C//DTD SVG 1.1//EN" "http://www.w3.org/Graphics/SVG/1.1/DTD/svg11.dtd">
<svg version="1.1" id="Ebene_1" xmlns="http://www.w3.org/2000/svg" xmlns:xlink="http://www.w3.org/1999/xlink" x="0px" y="0px"
	 width="317.481px" height="419.528px" viewBox="0 0 317.481 419.528" enable-background="new 0 0 317.481 419.528"
	 xml:space="preserve">
<g>
	<path fill="none" stroke="#000000" stroke-miterlimit="10" d="M129.625,206.568c0-23.652-19.175-42.827-42.827-42.827
		c-23.651,0-42.825,19.174-42.825,42.827s19.174,42.826,42.825,42.826C110.45,249.395,129.625,230.221,129.625,206.568"/>
	<path fill-rule="evenodd" clip-rule="evenodd" d="M89.235,206.568c0-1.421-1.091-2.572-2.438-2.572
		c-1.346,0-2.437,1.151-2.437,2.572s1.091,2.572,2.437,2.572C88.145,209.141,89.235,207.989,89.235,206.568"/>
	<path fill="none" stroke="#000000" stroke-miterlimit="10" d="M89.235,206.568c0-1.421-1.091-2.572-2.438-2.572
		c-1.346,0-2.437,1.151-2.437,2.572s1.091,2.572,2.437,2.572C88.145,209.141,89.235,207.989,89.235,206.568"/>
	<path fill="none" stroke="#000000" stroke-miterlimit="10" d="M92.393,206.568c0-3.174-2.504-5.747-5.595-5.747
		c-3.09,0-5.594,2.572-5.594,5.747c0,3.173,2.504,5.745,5.594,5.745C89.889,212.313,92.393,209.742,92.393,206.568"/>
	<path fill="none" stroke="#000000" stroke-miterlimit="10" d="M277.526,206.568c0-23.652-19.174-42.826-42.826-42.826
		s-42.826,19.173-42.826,42.826s19.174,42.826,42.826,42.826S277.526,230.221,277.526,206.568"/>
	<path fill-rule="evenodd" clip-rule="evenodd" d="M237.137,206.568c0-1.421-1.092-2.572-2.438-2.572s-2.438,1.151-2.438,2.572
		s1.092,2.572,2.438,2.572S237.137,207.989,237.137,206.568"/>
	<path fill="none" stroke="#000000" stroke-miterlimit="10" d="M237.137,206.568c0-1.421-1.092-2.572-2.438-2.572
		s-2.438,1.151-2.438,2.572s1.092,2.572,2.438,2.572S237.137,207.989,237.137,206.568"/>
	<path fill="none" stroke="#000000" stroke-miterlimit="10" d="M240.293,206.568c0-3.173-2.504-5.747-5.594-5.747
		s-5.594,2.573-5.594,5.747s2.504,5.745,5.594,5.745S240.293,209.742,240.293,206.568"/>
	<path fill="none" stroke="#000000" stroke-miterlimit="10" d="M139.034,88.096c0-17.597-14.266-31.862-31.863-31.862
		c-17.597,0-31.861,14.265-31.861,31.862s14.265,31.862,31.861,31.862C124.769,119.958,139.034,105.693,139.034,88.096"/>
	<path fill-rule="evenodd" clip-rule="evenodd" d="M108.984,88.096c0-1.057-0.811-1.914-1.813-1.914
		c-1.001,0-1.813,0.857-1.813,1.914c0,1.057,0.812,1.914,1.813,1.914C108.174,90.01,108.984,89.153,108.984,88.096"/>
	<path fill="none" stroke="#000000" stroke-miterlimit="10" d="M108.984,88.096c0-1.057-0.811-1.914-1.813-1.914
		c-1.001,0-1.813,0.857-1.813,1.914c0,1.057,0.812,1.914,1.813,1.914C108.174,90.01,108.984,89.153,108.984,88.096"/>
	<path fill="none" stroke="#000000" stroke-miterlimit="10" d="M111.334,88.096c0-2.361-1.863-4.275-4.163-4.275
		c-2.299,0-4.162,1.914-4.162,4.275s1.863,4.275,4.162,4.275C109.471,92.371,111.334,90.457,111.334,88.096"/>
	<path fill="none" stroke="#000000" stroke-miterlimit="10" d="M247.696,88.096c0-17.597-14.264-31.863-31.861-31.863
		s-31.863,14.266-31.863,31.863s14.266,31.863,31.863,31.863S247.696,105.693,247.696,88.096"/>
	<path fill-rule="evenodd" clip-rule="evenodd" d="M217.647,88.096c0-1.057-0.813-1.914-1.813-1.914
		c-1.002,0-1.813,0.857-1.813,1.914s0.811,1.914,1.813,1.914C216.834,90.01,217.647,89.153,217.647,88.096"/>
	<path fill="none" stroke="#000000" stroke-miterlimit="10" d="M217.647,88.096c0-1.057-0.813-1.914-1.813-1.914
		c-1.002,0-1.813,0.857-1.813,1.914s0.811,1.914,1.813,1.914C216.834,90.01,217.647,89.153,217.647,88.096"/>
	<path fill="none" stroke="#000000" stroke-miterlimit="10" d="M219.997,88.096c0-2.361-1.863-4.275-4.162-4.275
		s-4.162,1.914-4.162,4.275c0,2.361,1.863,4.275,4.162,4.275S219.997,90.457,219.997,88.096"/>
	<rect x="12.207" y="11.338" fill="none" stroke="#000000" stroke-miterlimit="10" width="296.401" height="268.642"/>
	<path fill="none" stroke="#000000" stroke-miterlimit="10" d="M64.16,371.664c0-7.918-6.42-14.338-14.338-14.338
		s-14.337,6.42-14.337,14.338S41.904,386,49.822,386S64.16,379.582,64.16,371.664"/>
	<rect x="46.05" y="352.045" fill-rule="evenodd" clip-rule="evenodd" fill="#FFFFFF" width="7.546" height="40.748"/>
	<rect x="46.05" y="352.045" fill="none" stroke="#000000" stroke-miterlimit="10" width="7.546" height="40.748"/>
	<path fill="none" stroke="#000000" stroke-miterlimit="10" d="M128.301,352.799c0-7.918-6.419-14.338-14.337-14.338
		c-7.919,0-14.338,6.42-14.338,14.338s6.419,14.338,14.338,14.338C121.882,367.137,128.301,360.717,128.301,352.799"/>
	<rect x="110.19" y="333.18" fill-rule="evenodd" clip-rule="evenodd" fill="#FFFFFF" width="7.546" height="40.748"/>
	<rect x="110.19" y="333.18" fill="none" stroke="#000000" stroke-miterlimit="10" width="7.546" height="40.748"/>
	<rect x="11.339" y="323.734" fill="none" stroke="#000000" stroke-miterlimit="10" width="296.314" height="83.773"/>
	<path fill="none" stroke="#000000" stroke-miterlimit="10" d="M217.344,352.799c0-7.918-6.42-14.338-14.338-14.338
		s-14.338,6.42-14.338,14.338s6.42,14.338,14.338,14.338S217.344,360.717,217.344,352.799"/>
	<rect x="199.233" y="333.18" fill-rule="evenodd" clip-rule="evenodd" fill="#FFFFFF" width="7.547" height="40.748"/>
	<rect x="199.233" y="333.18" fill="none" stroke="#000000" stroke-miterlimit="10" width="7.547" height="40.748"/>
	<path fill="none" stroke="#000000" stroke-miterlimit="10" d="M286.012,372.418c0-7.918-6.42-14.336-14.338-14.336
		s-14.338,6.418-14.338,14.336c0,7.92,6.42,14.338,14.338,14.338S286.012,380.338,286.012,372.418"/>
	<rect x="267.901" y="352.799" fill-rule="evenodd" clip-rule="evenodd" fill="#FFFFFF" width="7.547" height="40.748"/>
	<rect x="267.901" y="352.799" fill="none" stroke="#000000" stroke-miterlimit="10" width="7.547" height="40.748"/>
</g>
</svg>
